<svg width="93" height="33" viewBox="0 0 93 33" fill="none" xmlns="http://www.w3.org/2000/svg">
<rect x="1" y="1" width="91" height="31" rx="8" fill="#70B873"/>
<path fill-rule="evenodd" clip-rule="evenodd" d="M11.7288 22.5744C11.6633 22.5107 11.5985 22.4458 11.5345 22.3796C8.15515 18.8859 8.15516 13.2213 11.5345 9.72754C14.9139 6.23373 25.6819 6 25.6819 6C25.6819 6 27.1517 18.8859 23.7724 22.3796C20.771 25.4826 16.1135 25.8297 12.7417 23.4211L15.4586 19.974L19.8019 19.0046L16.2565 18.6381L18.5096 16.2664L21.0744 15.6855L19.0463 15.0645L21.0744 11.2821L18.1897 14.6273L17.0757 13.0022L17.4678 15.6855L15.4586 18.0272L14.5272 15.0645V19.0046L11.7288 22.5744Z" fill="white"/>
<path d="M51.47 14.07C51.1993 13.5007 50.8073 13.062 50.294 12.754C49.7807 12.4367 49.1833 12.278 48.502 12.278C47.8207 12.278 47.2047 12.4367 46.654 12.754C46.1127 13.062 45.6833 13.51 45.366 14.098C45.058 14.6767 44.904 15.3487 44.904 16.114C44.904 16.8793 45.058 17.5513 45.366 18.13C45.6833 18.7087 46.1127 19.1567 46.654 19.474C47.2047 19.782 47.8207 19.936 48.502 19.936C49.454 19.936 50.238 19.6513 50.854 19.082C51.47 18.5127 51.8293 17.7427 51.932 16.772H48.04V15.736H53.29V16.716C53.2153 17.5187 52.9633 18.256 52.534 18.928C52.1047 19.5907 51.54 20.118 50.84 20.51C50.14 20.8927 49.3607 21.084 48.502 21.084C47.5967 21.084 46.7707 20.874 46.024 20.454C45.2773 20.0247 44.6847 19.432 44.246 18.676C43.8167 17.92 43.602 17.066 43.602 16.114C43.602 15.162 43.8167 14.308 44.246 13.552C44.6847 12.7867 45.2773 12.194 46.024 11.774C46.7707 11.3447 47.5967 11.13 48.502 11.13C49.538 11.13 50.4527 11.3867 51.246 11.9C52.0487 12.4133 52.632 13.1367 52.996 14.07H51.47ZM56.2485 14.574C56.4725 14.1353 56.7898 13.7947 57.2005 13.552C57.6205 13.3093 58.1292 13.188 58.7265 13.188V14.504H58.3905C56.9625 14.504 56.2485 15.2787 56.2485 16.828V21H54.9745V13.328H56.2485V14.574ZM59.7211 17.136C59.7211 16.352 59.8798 15.666 60.1971 15.078C60.5145 14.4807 60.9485 14.0187 61.4991 13.692C62.0591 13.3653 62.6798 13.202 63.3611 13.202C64.0331 13.202 64.6165 13.3467 65.1111 13.636C65.6058 13.9253 65.9745 14.2893 66.2171 14.728V13.328H67.5051V21H66.2171V19.572C65.9651 20.02 65.5871 20.3933 65.0831 20.692C64.5885 20.9813 64.0098 21.126 63.3471 21.126C62.6658 21.126 62.0498 20.958 61.4991 20.622C60.9485 20.286 60.5145 19.8147 60.1971 19.208C59.8798 18.6013 59.7211 17.9107 59.7211 17.136ZM66.2171 17.15C66.2171 16.5713 66.1005 16.0673 65.8671 15.638C65.6338 15.2087 65.3165 14.882 64.9151 14.658C64.5231 14.4247 64.0891 14.308 63.6131 14.308C63.1371 14.308 62.7031 14.42 62.3111 14.644C61.9191 14.868 61.6065 15.1947 61.3731 15.624C61.1398 16.0533 61.0231 16.5573 61.0231 17.136C61.0231 17.724 61.1398 18.2373 61.3731 18.676C61.6065 19.1053 61.9191 19.4367 62.3111 19.67C62.7031 19.894 63.1371 20.006 63.6131 20.006C64.0891 20.006 64.5231 19.894 64.9151 19.67C65.3165 19.4367 65.6338 19.1053 65.8671 18.676C66.1005 18.2373 66.2171 17.7287 66.2171 17.15ZM72.3741 21.126C71.7861 21.126 71.2587 21.028 70.7921 20.832C70.3254 20.6267 69.9567 20.3467 69.6861 19.992C69.4154 19.628 69.2661 19.2127 69.2381 18.746H70.5541C70.5914 19.1287 70.7687 19.4413 71.0861 19.684C71.4127 19.9267 71.8374 20.048 72.3601 20.048C72.8454 20.048 73.2281 19.9407 73.5081 19.726C73.7881 19.5113 73.9281 19.2407 73.9281 18.914C73.9281 18.578 73.7787 18.3307 73.4801 18.172C73.1814 18.004 72.7194 17.8407 72.0941 17.682C71.5247 17.5327 71.0581 17.3833 70.6941 17.234C70.3394 17.0753 70.0314 16.8467 69.7701 16.548C69.5181 16.24 69.3921 15.8387 69.3921 15.344C69.3921 14.952 69.5087 14.5927 69.7421 14.266C69.9754 13.9393 70.3067 13.6827 70.7361 13.496C71.1654 13.3 71.6554 13.202 72.2061 13.202C73.0554 13.202 73.7414 13.4167 74.2641 13.846C74.7867 14.2753 75.0667 14.8633 75.1041 15.61H73.8301C73.8021 15.2087 73.6387 14.8867 73.3401 14.644C73.0507 14.4013 72.6587 14.28 72.1641 14.28C71.7067 14.28 71.3427 14.378 71.0721 14.574C70.8014 14.77 70.6661 15.0267 70.6661 15.344C70.6661 15.596 70.7454 15.806 70.9041 15.974C71.0721 16.1327 71.2774 16.2633 71.5201 16.366C71.7721 16.4593 72.1174 16.5667 72.5561 16.688C73.1067 16.8373 73.5547 16.9867 73.9001 17.136C74.2454 17.276 74.5394 17.4907 74.7821 17.78C75.0341 18.0693 75.1647 18.4473 75.1741 18.914C75.1741 19.334 75.0574 19.712 74.8241 20.048C74.5907 20.384 74.2594 20.65 73.8301 20.846C73.4101 21.0327 72.9247 21.126 72.3741 21.126ZM79.6885 21.126C79.1005 21.126 78.5732 21.028 78.1065 20.832C77.6399 20.6267 77.2712 20.3467 77.0005 19.992C76.7299 19.628 76.5805 19.2127 76.5525 18.746H77.8685C77.9059 19.1287 78.0832 19.4413 78.4005 19.684C78.7272 19.9267 79.1519 20.048 79.6745 20.048C80.1599 20.048 80.5425 19.9407 80.8225 19.726C81.1025 19.5113 81.2425 19.2407 81.2425 18.914C81.2425 18.578 81.0932 18.3307 80.7945 18.172C80.4959 18.004 80.0339 17.8407 79.4085 17.682C78.8392 17.5327 78.3725 17.3833 78.0085 17.234C77.6539 17.0753 77.3459 16.8467 77.0845 16.548C76.8325 16.24 76.7065 15.8387 76.7065 15.344C76.7065 14.952 76.8232 14.5927 77.0565 14.266C77.2899 13.9393 77.6212 13.6827 78.0505 13.496C78.4799 13.3 78.9699 13.202 79.5205 13.202C80.3699 13.202 81.0559 13.4167 81.5785 13.846C82.1012 14.2753 82.3812 14.8633 82.4185 15.61H81.1445C81.1165 15.2087 80.9532 14.8867 80.6545 14.644C80.3652 14.4013 79.9732 14.28 79.4785 14.28C79.0212 14.28 78.6572 14.378 78.3865 14.574C78.1159 14.77 77.9805 15.0267 77.9805 15.344C77.9805 15.596 78.0599 15.806 78.2185 15.974C78.3865 16.1327 78.5919 16.2633 78.8345 16.366C79.0865 16.4593 79.4319 16.5667 79.8705 16.688C80.4212 16.8373 80.8692 16.9867 81.2145 17.136C81.5599 17.276 81.8539 17.4907 82.0965 17.78C82.3485 18.0693 82.4792 18.4473 82.4885 18.914C82.4885 19.334 82.3719 19.712 82.1385 20.048C81.9052 20.384 81.5739 20.65 81.1445 20.846C80.7245 21.0327 80.2392 21.126 79.6885 21.126Z" fill="white"/>
<rect x="0.5" y="0.5" width="92" height="32" rx="8.5" stroke="white" stroke-opacity="0.47" stroke-dasharray="2 2"/>
</svg>
