<svg width="25" height="25" viewBox="0 0 25 25" fill="none" xmlns="http://www.w3.org/2000/svg">
<path d="M14.4063 19.7917C14.2507 19.7922 14.0969 19.7579 13.9563 19.6912C13.8157 19.6245 13.6918 19.5271 13.5938 19.4063L8.56253 13.1563C8.40932 12.9699 8.32556 12.7361 8.32556 12.4948C8.32556 12.2535 8.40932 12.0197 8.56253 11.8333L13.7709 5.58334C13.9477 5.37061 14.2017 5.23683 14.4772 5.21144C14.7526 5.18604 15.0269 5.27111 15.2396 5.44792C15.4523 5.62473 15.5861 5.8788 15.6115 6.15425C15.6369 6.42969 15.5518 6.70394 15.375 6.91667L10.7188 12.5L15.2188 18.0833C15.3462 18.2362 15.4271 18.4224 15.4519 18.6199C15.4768 18.8173 15.4446 19.0178 15.3591 19.1975C15.2737 19.3772 15.1385 19.5287 14.9696 19.634C14.8008 19.7393 14.6053 19.794 14.4063 19.7917Z" fill="black"/>
</svg>
