<svg width="226" height="57" viewBox="0 0 226 57" fill="none" xmlns="http://www.w3.org/2000/svg">
<rect width="226" height="57" rx="8" fill="#FF6262"/>
<path d="M42.688 24.532V28.26H46.752V29.46H42.688V33.3H47.232V34.5H41.232V23.332H47.232V24.532H42.688ZM54.0111 34.5L51.9311 31.236L49.9311 34.5H48.4111L51.2431 30.148L48.4111 25.732H50.0591L52.1391 28.98L54.1231 25.732H55.6431L52.8271 30.068L55.6591 34.5H54.0111ZM56.5474 30.1C56.5474 29.1933 56.7287 28.404 57.0914 27.732C57.454 27.0493 57.9554 26.5213 58.5954 26.148C59.246 25.7747 59.9874 25.588 60.8194 25.588C61.8967 25.588 62.782 25.8493 63.4754 26.372C64.1794 26.8947 64.6434 27.62 64.8674 28.548H63.2994C63.15 28.0147 62.8567 27.5933 62.4194 27.284C61.9927 26.9747 61.4594 26.82 60.8194 26.82C59.9874 26.82 59.3154 27.108 58.8034 27.684C58.2914 28.2493 58.0354 29.0547 58.0354 30.1C58.0354 31.156 58.2914 31.972 58.8034 32.548C59.3154 33.124 59.9874 33.412 60.8194 33.412C61.4594 33.412 61.9927 33.2627 62.4194 32.964C62.846 32.6653 63.1394 32.2387 63.2994 31.684H64.8674C64.6327 32.58 64.1634 33.3 63.4594 33.844C62.7554 34.3773 61.8754 34.644 60.8194 34.644C59.9874 34.644 59.246 34.4573 58.5954 34.084C57.9554 33.7107 57.454 33.1827 57.0914 32.5C56.7287 31.8173 56.5474 31.0173 56.5474 30.1ZM68.2661 22.66V34.5H66.8101V22.66H68.2661ZM78.5236 25.732V34.5H77.0676V33.204C76.7903 33.652 76.401 34.004 75.8996 34.26C75.409 34.5053 74.865 34.628 74.2676 34.628C73.585 34.628 72.9716 34.4893 72.4276 34.212C71.8836 33.924 71.4516 33.4973 71.1316 32.932C70.8223 32.3667 70.6676 31.6787 70.6676 30.868V25.732H72.1076V30.676C72.1076 31.54 72.3263 32.2067 72.7636 32.676C73.201 33.1347 73.7983 33.364 74.5556 33.364C75.3343 33.364 75.9476 33.124 76.3956 32.644C76.8436 32.164 77.0676 31.4653 77.0676 30.548V25.732H78.5236ZM81.734 24.308C81.4567 24.308 81.222 24.212 81.03 24.02C80.838 23.828 80.742 23.5933 80.742 23.316C80.742 23.0387 80.838 22.804 81.03 22.612C81.222 22.42 81.4567 22.324 81.734 22.324C82.0007 22.324 82.2247 22.42 82.406 22.612C82.598 22.804 82.694 23.0387 82.694 23.316C82.694 23.5933 82.598 23.828 82.406 24.02C82.2247 24.212 82.0007 24.308 81.734 24.308ZM82.438 25.732V34.5H80.982V25.732H82.438ZM86.3755 27.156C86.6315 26.6547 86.9942 26.2653 87.4635 25.988C87.9435 25.7107 88.5248 25.572 89.2075 25.572V27.076H88.8235C87.1915 27.076 86.3755 27.9613 86.3755 29.732V34.5H84.9195V25.732H86.3755V27.156ZM94.6099 30.084C94.6099 29.188 94.7912 28.404 95.1539 27.732C95.5165 27.0493 96.0125 26.5213 96.6419 26.148C97.2819 25.7747 97.9965 25.588 98.7859 25.588C99.4685 25.588 100.103 25.748 100.69 26.068C101.277 26.3773 101.725 26.788 102.034 27.3V22.66H103.506V34.5H102.034V32.852C101.746 33.3747 101.319 33.8067 100.754 34.148C100.189 34.4787 99.5272 34.644 98.7699 34.644C97.9912 34.644 97.2819 34.452 96.6419 34.068C96.0125 33.684 95.5165 33.1453 95.1539 32.452C94.7912 31.7587 94.6099 30.9693 94.6099 30.084ZM102.034 30.1C102.034 29.4387 101.901 28.8627 101.634 28.372C101.367 27.8813 101.005 27.508 100.546 27.252C100.098 26.9853 99.6019 26.852 99.0579 26.852C98.5139 26.852 98.0179 26.98 97.5699 27.236C97.1219 27.492 96.7645 27.8653 96.4979 28.356C96.2312 28.8467 96.0979 29.4227 96.0979 30.084C96.0979 30.756 96.2312 31.3427 96.4979 31.844C96.7645 32.3347 97.1219 32.7133 97.5699 32.98C98.0179 33.236 98.5139 33.364 99.0579 33.364C99.6019 33.364 100.098 33.236 100.546 32.98C101.005 32.7133 101.367 32.3347 101.634 31.844C101.901 31.3427 102.034 30.7613 102.034 30.1ZM105.422 30.084C105.422 29.188 105.604 28.404 105.966 27.732C106.329 27.0493 106.825 26.5213 107.454 26.148C108.094 25.7747 108.804 25.588 109.582 25.588C110.35 25.588 111.017 25.7533 111.582 26.084C112.148 26.4147 112.569 26.8307 112.846 27.332V25.732H114.318V34.5H112.846V32.868C112.558 33.38 112.126 33.8067 111.55 34.148C110.985 34.4787 110.324 34.644 109.566 34.644C108.788 34.644 108.084 34.452 107.454 34.068C106.825 33.684 106.329 33.1453 105.966 32.452C105.604 31.7587 105.422 30.9693 105.422 30.084ZM112.846 30.1C112.846 29.4387 112.713 28.8627 112.446 28.372C112.18 27.8813 111.817 27.508 111.358 27.252C110.91 26.9853 110.414 26.852 109.87 26.852C109.326 26.852 108.83 26.98 108.382 27.236C107.934 27.492 107.577 27.8653 107.31 28.356C107.044 28.8467 106.91 29.4227 106.91 30.084C106.91 30.756 107.044 31.3427 107.31 31.844C107.577 32.3347 107.934 32.7133 108.382 32.98C108.83 33.236 109.326 33.364 109.87 33.364C110.414 33.364 110.91 33.236 111.358 32.98C111.817 32.7133 112.18 32.3347 112.446 31.844C112.713 31.3427 112.846 30.7613 112.846 30.1ZM128.501 26.612C128.501 27.54 128.181 28.3133 127.541 28.932C126.911 29.54 125.946 29.844 124.645 29.844H122.501V34.5H121.045V23.348H124.645C125.903 23.348 126.858 23.652 127.509 24.26C128.17 24.868 128.501 25.652 128.501 26.612ZM124.645 28.644C125.455 28.644 126.053 28.468 126.437 28.116C126.821 27.764 127.013 27.2627 127.013 26.612C127.013 25.236 126.223 24.548 124.645 24.548H122.501V28.644H124.645ZM134.134 34.644C133.313 34.644 132.566 34.4573 131.894 34.084C131.233 33.7107 130.71 33.1827 130.326 32.5C129.953 31.8067 129.766 31.0067 129.766 30.1C129.766 29.204 129.958 28.4147 130.342 27.732C130.737 27.0387 131.27 26.5107 131.942 26.148C132.614 25.7747 133.366 25.588 134.198 25.588C135.03 25.588 135.782 25.7747 136.454 26.148C137.126 26.5107 137.654 27.0333 138.038 27.716C138.433 28.3987 138.63 29.1933 138.63 30.1C138.63 31.0067 138.427 31.8067 138.022 32.5C137.627 33.1827 137.089 33.7107 136.406 34.084C135.723 34.4573 134.966 34.644 134.134 34.644ZM134.134 33.364C134.657 33.364 135.147 33.2413 135.606 32.996C136.065 32.7507 136.433 32.3827 136.71 31.892C136.998 31.4013 137.142 30.804 137.142 30.1C137.142 29.396 137.003 28.7987 136.726 28.308C136.449 27.8173 136.086 27.4547 135.638 27.22C135.19 26.9747 134.705 26.852 134.182 26.852C133.649 26.852 133.158 26.9747 132.71 27.22C132.273 27.4547 131.921 27.8173 131.654 28.308C131.387 28.7987 131.254 29.396 131.254 30.1C131.254 30.8147 131.382 31.4173 131.638 31.908C131.905 32.3987 132.257 32.7667 132.694 33.012C133.131 33.2467 133.611 33.364 134.134 33.364ZM145.441 34.5L142.001 30.628V34.5H140.545V22.66H142.001V29.62L145.377 25.732H147.409L143.281 30.1L147.425 34.5H145.441ZM156.779 29.78C156.779 30.0573 156.763 30.3507 156.731 30.66H149.723C149.776 31.524 150.07 32.2013 150.603 32.692C151.147 33.172 151.803 33.412 152.571 33.412C153.2 33.412 153.723 33.268 154.139 32.98C154.566 32.6813 154.864 32.2867 155.035 31.796H156.603C156.368 32.6387 155.899 33.3267 155.195 33.86C154.491 34.3827 153.616 34.644 152.571 34.644C151.739 34.644 150.992 34.4573 150.331 34.084C149.68 33.7107 149.168 33.1827 148.795 32.5C148.422 31.8067 148.235 31.0067 148.235 30.1C148.235 29.1933 148.416 28.3987 148.779 27.716C149.142 27.0333 149.648 26.5107 150.299 26.148C150.96 25.7747 151.718 25.588 152.571 25.588C153.403 25.588 154.139 25.7693 154.779 26.132C155.419 26.4947 155.91 26.996 156.251 27.636C156.603 28.2653 156.779 28.98 156.779 29.78ZM155.275 29.476C155.275 28.9213 155.152 28.4467 154.907 28.052C154.662 27.6467 154.326 27.3427 153.899 27.14C153.483 26.9267 153.019 26.82 152.507 26.82C151.771 26.82 151.142 27.0547 150.619 27.524C150.107 27.9933 149.814 28.644 149.739 29.476H155.275ZM154.075 23.252L150.667 25.076V23.988L154.075 21.988V23.252ZM158.157 30.084C158.157 29.188 158.338 28.404 158.701 27.732C159.063 27.0493 159.559 26.5213 160.189 26.148C160.829 25.7747 161.543 25.588 162.333 25.588C163.015 25.588 163.65 25.748 164.237 26.068C164.823 26.3773 165.271 26.788 165.581 27.3V22.66H167.053V34.5H165.581V32.852C165.293 33.3747 164.866 33.8067 164.301 34.148C163.735 34.4787 163.074 34.644 162.317 34.644C161.538 34.644 160.829 34.452 160.189 34.068C159.559 33.684 159.063 33.1453 158.701 32.452C158.338 31.7587 158.157 30.9693 158.157 30.084ZM165.581 30.1C165.581 29.4387 165.447 28.8627 165.181 28.372C164.914 27.8813 164.551 27.508 164.093 27.252C163.645 26.9853 163.149 26.852 162.605 26.852C162.061 26.852 161.565 26.98 161.117 27.236C160.669 27.492 160.311 27.8653 160.045 28.356C159.778 28.8467 159.645 29.4227 159.645 30.084C159.645 30.756 159.778 31.3427 160.045 31.844C160.311 32.3347 160.669 32.7133 161.117 32.98C161.565 33.236 162.061 33.364 162.605 33.364C163.149 33.364 163.645 33.236 164.093 32.98C164.551 32.7133 164.914 32.3347 165.181 31.844C165.447 31.3427 165.581 30.7613 165.581 30.1ZM177.513 29.78C177.513 30.0573 177.497 30.3507 177.465 30.66H170.457C170.511 31.524 170.804 32.2013 171.337 32.692C171.881 33.172 172.537 33.412 173.305 33.412C173.935 33.412 174.457 33.268 174.873 32.98C175.3 32.6813 175.599 32.2867 175.769 31.796H177.337C177.103 32.6387 176.633 33.3267 175.929 33.86C175.225 34.3827 174.351 34.644 173.305 34.644C172.473 34.644 171.727 34.4573 171.065 34.084C170.415 33.7107 169.903 33.1827 169.529 32.5C169.156 31.8067 168.969 31.0067 168.969 30.1C168.969 29.1933 169.151 28.3987 169.513 27.716C169.876 27.0333 170.383 26.5107 171.033 26.148C171.695 25.7747 172.452 25.588 173.305 25.588C174.137 25.588 174.873 25.7693 175.513 26.132C176.153 26.4947 176.644 26.996 176.985 27.636C177.337 28.2653 177.513 28.98 177.513 29.78ZM176.009 29.476C176.009 28.9213 175.887 28.4467 175.641 28.052C175.396 27.6467 175.06 27.3427 174.633 27.14C174.217 26.9267 173.753 26.82 173.241 26.82C172.505 26.82 171.876 27.0547 171.353 27.524C170.841 27.9933 170.548 28.644 170.473 29.476H176.009ZM184.011 34.5L181.931 31.236L179.931 34.5H178.411L181.243 30.148L178.411 25.732H180.059L182.139 28.98L184.123 25.732H185.643L182.827 30.068L185.659 34.5H184.011Z" fill="white"/>
</svg>
