<svg width="287" height="74" viewBox="0 0 287 74" fill="none" xmlns="http://www.w3.org/2000/svg">
<rect width="287" height="74" rx="8" fill="#33A4F5"/>
<path d="M104.828 33.576C104.828 34.552 104.604 35.448 104.156 36.264C103.708 37.064 103.02 37.712 102.092 38.208C101.164 38.704 100.012 38.952 98.636 38.952H96.092V45H91.988V28.152H98.636C99.98 28.152 101.116 28.384 102.044 28.848C102.972 29.312 103.668 29.952 104.132 30.768C104.596 31.584 104.828 32.52 104.828 33.576ZM98.324 35.688C99.108 35.688 99.692 35.504 100.076 35.136C100.46 34.768 100.652 34.248 100.652 33.576C100.652 32.904 100.46 32.384 100.076 32.016C99.692 31.648 99.108 31.464 98.324 31.464H96.092V35.688H98.324ZM113.061 45.192C111.749 45.192 110.565 44.912 109.509 44.352C108.469 43.792 107.645 42.992 107.037 41.952C106.445 40.912 106.149 39.696 106.149 38.304C106.149 36.928 106.453 35.72 107.061 34.68C107.669 33.624 108.501 32.816 109.557 32.256C110.613 31.696 111.797 31.416 113.109 31.416C114.421 31.416 115.605 31.696 116.661 32.256C117.717 32.816 118.549 33.624 119.157 34.68C119.765 35.72 120.069 36.928 120.069 38.304C120.069 39.68 119.757 40.896 119.133 41.952C118.525 42.992 117.685 43.792 116.613 44.352C115.557 44.912 114.373 45.192 113.061 45.192ZM113.061 41.64C113.845 41.64 114.509 41.352 115.053 40.776C115.613 40.2 115.893 39.376 115.893 38.304C115.893 37.232 115.621 36.408 115.077 35.832C114.549 35.256 113.893 34.968 113.109 34.968C112.309 34.968 111.645 35.256 111.117 35.832C110.589 36.392 110.325 37.216 110.325 38.304C110.325 39.376 110.581 40.2 111.093 40.776C111.621 41.352 112.277 41.64 113.061 41.64ZM130.43 45L126.35 39.384V45H122.246V27.24H126.35V37.056L130.406 31.608H135.47L129.902 38.328L135.518 45H130.43ZM149.706 38.088C149.706 38.472 149.682 38.872 149.634 39.288H140.346C140.41 40.12 140.674 40.76 141.138 41.208C141.618 41.64 142.202 41.856 142.89 41.856C143.914 41.856 144.626 41.424 145.026 40.56H149.394C149.17 41.44 148.762 42.232 148.17 42.936C147.594 43.64 146.866 44.192 145.986 44.592C145.106 44.992 144.122 45.192 143.034 45.192C141.722 45.192 140.554 44.912 139.53 44.352C138.506 43.792 137.706 42.992 137.13 41.952C136.554 40.912 136.266 39.696 136.266 38.304C136.266 36.912 136.546 35.696 137.106 34.656C137.682 33.616 138.482 32.816 139.506 32.256C140.53 31.696 141.706 31.416 143.034 31.416C144.33 31.416 145.482 31.688 146.49 32.232C147.498 32.776 148.282 33.552 148.842 34.56C149.418 35.568 149.706 36.744 149.706 38.088ZM145.506 37.008C145.506 36.304 145.266 35.744 144.786 35.328C144.306 34.912 143.706 34.704 142.986 34.704C142.298 34.704 141.714 34.904 141.234 35.304C140.77 35.704 140.482 36.272 140.37 37.008H145.506ZM145.794 28.176L140.01 30.6V27.768L145.794 24.984V28.176ZM151.055 38.28C151.055 36.904 151.311 35.696 151.823 34.656C152.351 33.616 153.063 32.816 153.959 32.256C154.855 31.696 155.855 31.416 156.959 31.416C157.839 31.416 158.639 31.6 159.359 31.968C160.095 32.336 160.671 32.832 161.087 33.456V27.24H165.191V45H161.087V43.08C160.703 43.72 160.151 44.232 159.431 44.616C158.727 45 157.903 45.192 156.959 45.192C155.855 45.192 154.855 44.912 153.959 44.352C153.063 43.776 152.351 42.968 151.823 41.928C151.311 40.872 151.055 39.656 151.055 38.28ZM161.087 38.304C161.087 37.28 160.799 36.472 160.223 35.88C159.663 35.288 158.975 34.992 158.159 34.992C157.343 34.992 156.647 35.288 156.071 35.88C155.511 36.456 155.231 37.256 155.231 38.28C155.231 39.304 155.511 40.12 156.071 40.728C156.647 41.32 157.343 41.616 158.159 41.616C158.975 41.616 159.663 41.32 160.223 40.728C160.799 40.136 161.087 39.328 161.087 38.304ZM180.784 38.088C180.784 38.472 180.76 38.872 180.712 39.288H171.424C171.488 40.12 171.752 40.76 172.216 41.208C172.696 41.64 173.28 41.856 173.968 41.856C174.992 41.856 175.704 41.424 176.104 40.56H180.472C180.248 41.44 179.84 42.232 179.248 42.936C178.672 43.64 177.944 44.192 177.064 44.592C176.184 44.992 175.2 45.192 174.112 45.192C172.8 45.192 171.632 44.912 170.608 44.352C169.584 43.792 168.784 42.992 168.208 41.952C167.632 40.912 167.344 39.696 167.344 38.304C167.344 36.912 167.624 35.696 168.184 34.656C168.76 33.616 169.56 32.816 170.584 32.256C171.608 31.696 172.784 31.416 174.112 31.416C175.408 31.416 176.56 31.688 177.568 32.232C178.576 32.776 179.36 33.552 179.92 34.56C180.496 35.568 180.784 36.744 180.784 38.088ZM176.584 37.008C176.584 36.304 176.344 35.744 175.864 35.328C175.384 34.912 174.784 34.704 174.064 34.704C173.376 34.704 172.792 34.904 172.312 35.304C171.848 35.704 171.56 36.272 171.448 37.008H176.584ZM190.869 45L188.301 41.28L186.141 45H181.701L186.117 38.16L181.581 31.608H186.189L188.757 35.304L190.917 31.608H195.357L190.869 38.352L195.477 45H190.869Z" fill="white"/>
</svg>
