<svg width="108" height="33" viewBox="0 0 108 33" fill="none" xmlns="http://www.w3.org/2000/svg">
<rect x="1" y="1" width="106" height="31" rx="8" fill="#0A6CBF"/>
<path fill-rule="evenodd" clip-rule="evenodd" d="M20.5132 16.4541C20.6555 16.3673 20.7762 16.1855 20.8736 15.9833C22.1551 16.5071 23.0557 17.7448 23.0557 19.1882C23.0557 21.1056 21.4664 22.6601 19.5058 22.6601C18.701 22.6601 17.9588 22.3981 17.3633 21.9567C17.168 21.8642 17.0073 21.7753 16.8758 21.7026C16.6719 21.5899 16.5381 21.5159 16.4543 21.5275C16.2095 21.5612 16.2806 21.7865 16.3452 21.9911C16.389 22.1301 16.4299 22.2596 16.3667 22.313C16.3005 22.369 16.086 22.1645 15.8355 21.9256C15.4944 21.6004 15.0863 21.2114 14.8939 21.3282C14.7418 21.4206 14.8895 21.6713 15.0703 21.9781L15.0837 22.0009C15.1601 22.1305 15.2486 22.2626 15.3294 22.3831C15.4936 22.628 15.6258 22.8254 15.5596 22.8588C15.4796 22.8991 14.9224 22.523 14.4528 22.0009C14.2716 21.7993 14.096 21.5809 13.9329 21.3779V21.3779C13.5757 20.9335 13.2782 20.5633 13.1112 20.6072C12.9103 20.6599 13.0623 21.0743 13.2856 21.4731C13.39 21.6596 13.5129 21.8495 13.6192 22.014V22.014C13.7846 22.2697 13.9102 22.4638 13.8647 22.4876C13.8032 22.5197 13.2626 21.9926 12.8954 21.3282C12.6773 20.9336 12.4942 20.4975 12.3459 20.1445C12.1851 19.7616 12.0653 19.4765 11.9865 19.4478C11.7125 19.348 11.7125 19.9067 11.8224 20.713C11.8367 20.8182 11.858 20.9286 11.8843 21.0409C12.9501 24.4892 16.224 27 20.0975 27C24.8355 27 28.6763 23.2435 28.6763 18.6095C28.6763 14.199 25.197 10.5834 20.7764 10.2449C20.782 10.0371 20.8904 9.62508 20.8904 9.62508C20.8904 9.62508 21.6708 7.7369 21.7121 7.33341C21.7148 7.30663 21.718 7.27753 21.7215 7.24654C21.7701 6.81059 21.8606 6 21.1632 6C20.7908 6 20.6176 6.27705 20.4196 6.5939V6.59391C20.3435 6.71555 20.2638 6.84306 20.1677 6.96301C19.4759 7.82698 18.3125 8.90591 17.6529 9.48071C16.2586 10.6956 14.8906 11.6941 14.0928 12.2765L14.0927 12.2765C13.7299 12.5413 13.485 12.7201 13.4092 12.794C12.838 13.3508 10.79 17.0449 10.79 17.0449C10.79 17.0449 10.1277 18.2301 10.3631 18.4705C10.5985 18.7109 11.1662 18.6558 11.1662 18.6558C11.1662 18.6558 18.7927 16.9062 19.4755 16.7682C19.6593 16.731 19.7891 16.7096 19.8887 16.6931C20.1592 16.6485 20.2078 16.6404 20.5132 16.4541ZM15.121 14.2057C14.7116 14.5949 14.0327 15.5237 14.0327 15.5237C14.0327 15.5237 15.2945 15.6014 15.9894 14.9408C16.6844 14.2802 16.5251 13.1545 16.5251 13.1545C16.5251 13.1545 15.5303 13.8166 15.121 14.2057Z" fill="white"/>
<path d="M51.116 11.242C52.18 11.242 53.0993 11.4427 53.874 11.844C54.658 12.236 55.2553 12.8007 55.666 13.538C56.086 14.2753 56.296 15.1433 56.296 16.142C56.296 17.1407 56.086 18.0087 55.666 18.746C55.2553 19.474 54.658 20.034 53.874 20.426C53.0993 20.8087 52.18 21 51.116 21H48.078V11.242H51.116ZM51.116 19.95C52.376 19.95 53.3373 19.6187 54 18.956C54.6627 18.284 54.994 17.346 54.994 16.142C54.994 14.9287 54.658 13.9813 53.986 13.3C53.3233 12.6187 52.3667 12.278 51.116 12.278H49.352V19.95H51.116ZM59.2504 14.574C59.4744 14.1353 59.7918 13.7947 60.2024 13.552C60.6224 13.3093 61.1311 13.188 61.7284 13.188V14.504H61.3924C59.9644 14.504 59.2504 15.2787 59.2504 16.828V21H57.9764V13.328H59.2504V14.574ZM62.7231 17.136C62.7231 16.352 62.8818 15.666 63.1991 15.078C63.5164 14.4807 63.9504 14.0187 64.5011 13.692C65.0611 13.3653 65.6818 13.202 66.3631 13.202C67.0351 13.202 67.6184 13.3467 68.1131 13.636C68.6078 13.9253 68.9764 14.2893 69.2191 14.728V13.328H70.5071V21H69.2191V19.572C68.9671 20.02 68.5891 20.3933 68.0851 20.692C67.5904 20.9813 67.0118 21.126 66.3491 21.126C65.6678 21.126 65.0518 20.958 64.5011 20.622C63.9504 20.286 63.5164 19.8147 63.1991 19.208C62.8818 18.6013 62.7231 17.9107 62.7231 17.136ZM69.2191 17.15C69.2191 16.5713 69.1024 16.0673 68.8691 15.638C68.6358 15.2087 68.3184 14.882 67.9171 14.658C67.5251 14.4247 67.0911 14.308 66.6151 14.308C66.1391 14.308 65.7051 14.42 65.3131 14.644C64.9211 14.868 64.6084 15.1947 64.3751 15.624C64.1418 16.0533 64.0251 16.5573 64.0251 17.136C64.0251 17.724 64.1418 18.2373 64.3751 18.676C64.6084 19.1053 64.9211 19.4367 65.3131 19.67C65.7051 19.894 66.1391 20.006 66.6151 20.006C67.0911 20.006 67.5251 19.894 67.9171 19.67C68.3184 19.4367 68.6358 19.1053 68.8691 18.676C69.1024 18.2373 69.2191 17.7287 69.2191 17.15ZM75.824 13.202C76.4867 13.202 77.0654 13.3467 77.56 13.636C78.064 13.9253 78.4374 14.2893 78.68 14.728V13.328H79.968V21.168C79.968 21.868 79.8187 22.4887 79.52 23.03C79.2214 23.5807 78.792 24.01 78.232 24.318C77.6814 24.626 77.0374 24.78 76.3 24.78C75.292 24.78 74.452 24.542 73.78 24.066C73.108 23.59 72.7114 22.9413 72.59 22.12H73.85C73.99 22.5867 74.2794 22.96 74.718 23.24C75.1567 23.5293 75.684 23.674 76.3 23.674C77 23.674 77.5694 23.4547 78.008 23.016C78.456 22.5773 78.68 21.9613 78.68 21.168V19.558C78.428 20.006 78.0547 20.3793 77.56 20.678C77.0654 20.9767 76.4867 21.126 75.824 21.126C75.1427 21.126 74.522 20.958 73.962 20.622C73.4114 20.286 72.9774 19.8147 72.66 19.208C72.3427 18.6013 72.184 17.9107 72.184 17.136C72.184 16.352 72.3427 15.666 72.66 15.078C72.9774 14.4807 73.4114 14.0187 73.962 13.692C74.522 13.3653 75.1427 13.202 75.824 13.202ZM78.68 17.15C78.68 16.5713 78.5634 16.0673 78.33 15.638C78.0967 15.2087 77.7794 14.882 77.378 14.658C76.986 14.4247 76.552 14.308 76.076 14.308C75.6 14.308 75.166 14.42 74.774 14.644C74.382 14.868 74.0694 15.1947 73.836 15.624C73.6027 16.0533 73.486 16.5573 73.486 17.136C73.486 17.724 73.6027 18.2373 73.836 18.676C74.0694 19.1053 74.382 19.4367 74.774 19.67C75.166 19.894 75.6 20.006 76.076 20.006C76.552 20.006 76.986 19.894 77.378 19.67C77.7794 19.4367 78.0967 19.1053 78.33 18.676C78.5634 18.2373 78.68 17.7287 78.68 17.15ZM85.467 21.126C84.7483 21.126 84.095 20.9627 83.507 20.636C82.9283 20.3093 82.471 19.8473 82.135 19.25C81.8083 18.6433 81.645 17.9433 81.645 17.15C81.645 16.366 81.813 15.6753 82.149 15.078C82.4943 14.4713 82.961 14.0093 83.549 13.692C84.137 13.3653 84.795 13.202 85.523 13.202C86.251 13.202 86.909 13.3653 87.497 13.692C88.085 14.0093 88.547 14.4667 88.883 15.064C89.2283 15.6613 89.401 16.3567 89.401 17.15C89.401 17.9433 89.2236 18.6433 88.869 19.25C88.5236 19.8473 88.0523 20.3093 87.455 20.636C86.8576 20.9627 86.195 21.126 85.467 21.126ZM85.467 20.006C85.9243 20.006 86.3536 19.8987 86.755 19.684C87.1563 19.4693 87.4783 19.1473 87.721 18.718C87.973 18.2887 88.099 17.766 88.099 17.15C88.099 16.534 87.9776 16.0113 87.735 15.582C87.4923 15.1527 87.175 14.8353 86.783 14.63C86.391 14.4153 85.9663 14.308 85.509 14.308C85.0423 14.308 84.613 14.4153 84.221 14.63C83.8383 14.8353 83.5303 15.1527 83.297 15.582C83.0636 16.0113 82.947 16.534 82.947 17.15C82.947 17.7753 83.059 18.3027 83.283 18.732C83.5163 19.1613 83.8243 19.4833 84.207 19.698C84.5896 19.9033 85.0096 20.006 85.467 20.006ZM94.814 13.188C95.7474 13.188 96.5034 13.4727 97.082 14.042C97.6607 14.602 97.95 15.414 97.95 16.478V21H96.69V16.66C96.69 15.8947 96.4987 15.3113 96.116 14.91C95.7334 14.4993 95.2107 14.294 94.548 14.294C93.876 14.294 93.3394 14.504 92.938 14.924C92.546 15.344 92.35 15.9553 92.35 16.758V21H91.076V13.328H92.35V14.42C92.602 14.028 92.9427 13.7247 93.372 13.51C93.8107 13.2953 94.2914 13.188 94.814 13.188Z" fill="white"/>
<rect x="0.5" y="0.5" width="107" height="32" rx="8.5" stroke="white" stroke-opacity="0.47" stroke-dasharray="2 2"/>
</svg>
