<svg width="108" height="33" viewBox="0 0 108 33" fill="none" xmlns="http://www.w3.org/2000/svg">
<rect x="1" y="1" width="106" height="31" rx="8" fill="#8A8A8A"/>
<path fill-rule="evenodd" clip-rule="evenodd" d="M28.7285 16.5C28.7285 21.5968 24.5968 25.7285 19.5 25.7285C14.4032 25.7285 10.2715 21.5968 10.2715 16.5C10.2715 11.4032 14.4032 7.27148 19.5 7.27148C24.5968 7.27148 28.7285 11.4032 28.7285 16.5ZM24.7734 16.5C24.7734 19.4124 22.4124 21.7734 19.5 21.7734C16.5876 21.7734 14.2266 19.4124 14.2266 16.5C14.2266 13.5876 16.5876 11.2266 19.5 11.2266C22.4124 11.2266 24.7734 13.5876 24.7734 16.5Z" fill="white"/>
<path d="M55.75 21H54.476L49.352 13.23V21H48.078V11.228H49.352L54.476 18.984V11.228H55.75V21ZM61.2678 21.126C60.5491 21.126 59.8958 20.9627 59.3078 20.636C58.7291 20.3093 58.2718 19.8473 57.9358 19.25C57.6091 18.6433 57.4458 17.9433 57.4458 17.15C57.4458 16.366 57.6138 15.6753 57.9498 15.078C58.2951 14.4713 58.7618 14.0093 59.3498 13.692C59.9378 13.3653 60.5958 13.202 61.3238 13.202C62.0518 13.202 62.7098 13.3653 63.2978 13.692C63.8858 14.0093 64.3478 14.4667 64.6838 15.064C65.0291 15.6613 65.2018 16.3567 65.2018 17.15C65.2018 17.9433 65.0244 18.6433 64.6698 19.25C64.3244 19.8473 63.8531 20.3093 63.2558 20.636C62.6584 20.9627 61.9958 21.126 61.2678 21.126ZM61.2678 20.006C61.7251 20.006 62.1544 19.8987 62.5558 19.684C62.9571 19.4693 63.2791 19.1473 63.5218 18.718C63.7738 18.2887 63.8998 17.766 63.8998 17.15C63.8998 16.534 63.7784 16.0113 63.5358 15.582C63.2931 15.1527 62.9758 14.8353 62.5838 14.63C62.1918 14.4153 61.7671 14.308 61.3098 14.308C60.8431 14.308 60.4138 14.4153 60.0218 14.63C59.6391 14.8353 59.3311 15.1527 59.0978 15.582C58.8644 16.0113 58.7478 16.534 58.7478 17.15C58.7478 17.7753 58.8598 18.3027 59.0838 18.732C59.3171 19.1613 59.6251 19.4833 60.0078 19.698C60.3904 19.9033 60.8104 20.006 61.2678 20.006ZM68.1508 14.574C68.3748 14.1353 68.6922 13.7947 69.1028 13.552C69.5228 13.3093 70.0315 13.188 70.6288 13.188V14.504H70.2928C68.8648 14.504 68.1508 15.2787 68.1508 16.828V21H66.8768V13.328H68.1508V14.574ZM81.3255 13.188C81.9228 13.188 82.4548 13.314 82.9215 13.566C83.3882 13.8087 83.7568 14.1773 84.0275 14.672C84.2982 15.1667 84.4335 15.7687 84.4335 16.478V21H83.1735V16.66C83.1735 15.8947 82.9822 15.3113 82.5995 14.91C82.2262 14.4993 81.7175 14.294 81.0735 14.294C80.4108 14.294 79.8835 14.5087 79.4915 14.938C79.0995 15.358 78.9035 15.9693 78.9035 16.772V21H77.6435V16.66C77.6435 15.8947 77.4522 15.3113 77.0695 14.91C76.6962 14.4993 76.1875 14.294 75.5435 14.294C74.8808 14.294 74.3535 14.5087 73.9615 14.938C73.5695 15.358 73.3735 15.9693 73.3735 16.772V21H72.0995V13.328H73.3735V14.434C73.6255 14.0327 73.9615 13.7247 74.3815 13.51C74.8108 13.2953 75.2822 13.188 75.7955 13.188C76.4395 13.188 77.0088 13.3327 77.5035 13.622C77.9982 13.9113 78.3668 14.336 78.6095 14.896C78.8242 14.3547 79.1788 13.9347 79.6735 13.636C80.1682 13.3373 80.7188 13.188 81.3255 13.188ZM86.0473 17.136C86.0473 16.352 86.206 15.666 86.5233 15.078C86.8406 14.4807 87.2746 14.0187 87.8253 13.692C88.3853 13.3653 89.006 13.202 89.6873 13.202C90.3593 13.202 90.9426 13.3467 91.4373 13.636C91.932 13.9253 92.3006 14.2893 92.5433 14.728V13.328H93.8313V21H92.5433V19.572C92.2913 20.02 91.9133 20.3933 91.4093 20.692C90.9146 20.9813 90.336 21.126 89.6733 21.126C88.992 21.126 88.376 20.958 87.8253 20.622C87.2746 20.286 86.8406 19.8147 86.5233 19.208C86.206 18.6013 86.0473 17.9107 86.0473 17.136ZM92.5433 17.15C92.5433 16.5713 92.4266 16.0673 92.1933 15.638C91.96 15.2087 91.6426 14.882 91.2413 14.658C90.8493 14.4247 90.4153 14.308 89.9393 14.308C89.4633 14.308 89.0293 14.42 88.6373 14.644C88.2453 14.868 87.9326 15.1947 87.6993 15.624C87.466 16.0533 87.3493 16.5573 87.3493 17.136C87.3493 17.724 87.466 18.2373 87.6993 18.676C87.9326 19.1053 88.2453 19.4367 88.6373 19.67C89.0293 19.894 89.4633 20.006 89.9393 20.006C90.4153 20.006 90.8493 19.894 91.2413 19.67C91.6426 19.4367 91.96 19.1053 92.1933 18.676C92.4266 18.2373 92.5433 17.7287 92.5433 17.15ZM97.2583 10.64V21H95.9843V10.64H97.2583Z" fill="white"/>
<rect x="0.5" y="0.5" width="107" height="32" rx="8.5" stroke="white" stroke-opacity="0.47" stroke-dasharray="2 2"/>
</svg>
