<svg width="84" height="33" viewBox="0 0 84 33" fill="none" xmlns="http://www.w3.org/2000/svg">
<rect x="1" y="1" width="82" height="31" rx="8" fill="#316520"/>
<path fill-rule="evenodd" clip-rule="evenodd" d="M23.0355 6.02056C23.0508 5.99875 23.0808 5.99345 23.1026 6.00872L24.5937 7.0528C24.6155 7.06807 24.6208 7.09812 24.6055 7.11993L22.5302 10.0838C23.5391 10.4061 24.2265 10.7538 24.2265 10.7538C24.2265 10.7538 22.5464 13.6439 19.6966 13.6439C16.8469 13.6439 14.8219 10.9503 14.8219 10.9503C14.8219 10.9503 15.5399 10.4921 16.6043 10.0991L14.3279 7.38623C14.3108 7.36583 14.3135 7.33543 14.3339 7.31832L15.7283 6.14826C15.7487 6.13114 15.7791 6.1338 15.7962 6.1542L18.6785 9.58913C18.9252 9.56121 19.1767 9.54561 19.4304 9.54561C19.7951 9.54561 20.1593 9.57333 20.5149 9.62038L23.0355 6.02056ZM23.5993 13.7807C24.3597 13.2376 25.5105 11.82 25.5105 11.82C25.5105 11.82 28.4498 14.1493 28.4498 19.0883C28.4498 24.0271 23.3681 26.9997 23.3681 26.9997C23.3681 26.9997 20.9402 24.5477 20.3442 21.4395C19.7482 18.3313 21.2259 14.88 21.2259 14.88C21.2259 14.88 22.8388 14.3239 23.5993 13.7807V13.7807ZM15.4091 13.7807C14.6487 13.2376 13.4979 11.82 13.4979 11.82C13.4979 11.82 10.5586 14.1493 10.5586 19.0883C10.5586 24.0271 15.6403 26.9997 15.6403 26.9997C15.6403 26.9997 18.0682 24.5477 18.6642 21.4395C19.2602 18.3313 17.7826 14.88 17.7826 14.88C17.7826 14.88 16.1697 14.3239 15.4091 13.7807V13.7807Z" fill="white"/>
<path d="M52.964 15.974C53.3187 16.03 53.6407 16.1747 53.93 16.408C54.2287 16.6413 54.462 16.9307 54.63 17.276C54.8073 17.6213 54.896 17.99 54.896 18.382C54.896 18.8767 54.77 19.3247 54.518 19.726C54.266 20.118 53.8973 20.4307 53.412 20.664C52.936 20.888 52.3713 21 51.718 21H48.078V11.242H51.578C52.2407 11.242 52.8053 11.354 53.272 11.578C53.7387 11.7927 54.0887 12.0867 54.322 12.46C54.5553 12.8333 54.672 13.2533 54.672 13.72C54.672 14.2987 54.5133 14.7793 54.196 15.162C53.888 15.5353 53.4773 15.806 52.964 15.974ZM49.352 15.456H51.494C52.0913 15.456 52.5533 15.316 52.88 15.036C53.2067 14.756 53.37 14.3687 53.37 13.874C53.37 13.3793 53.2067 12.992 52.88 12.712C52.5533 12.432 52.082 12.292 51.466 12.292H49.352V15.456ZM51.606 19.95C52.2407 19.95 52.7353 19.8007 53.09 19.502C53.4447 19.2033 53.622 18.788 53.622 18.256C53.622 17.7147 53.4353 17.29 53.062 16.982C52.6887 16.6647 52.1893 16.506 51.564 16.506H49.352V19.95H51.606ZM63.4679 13.328V21H62.1939V19.866C61.9513 20.258 61.6106 20.566 61.1719 20.79C60.7426 21.0047 60.2666 21.112 59.7439 21.112C59.1466 21.112 58.6099 20.9907 58.1339 20.748C57.6579 20.496 57.2799 20.1227 56.9999 19.628C56.7293 19.1333 56.5939 18.5313 56.5939 17.822V13.328H57.8539V17.654C57.8539 18.41 58.0453 18.9933 58.4279 19.404C58.8106 19.8053 59.3333 20.006 59.9959 20.006C60.6773 20.006 61.2139 19.796 61.6059 19.376C61.9979 18.956 62.1939 18.3447 62.1939 17.542V13.328H63.4679ZM68.783 13.202C69.4457 13.202 70.0243 13.3467 70.519 13.636C71.023 13.9253 71.3963 14.2893 71.639 14.728V13.328H72.927V21.168C72.927 21.868 72.7777 22.4887 72.479 23.03C72.1803 23.5807 71.751 24.01 71.191 24.318C70.6403 24.626 69.9963 24.78 69.259 24.78C68.251 24.78 67.411 24.542 66.739 24.066C66.067 23.59 65.6703 22.9413 65.549 22.12H66.809C66.949 22.5867 67.2383 22.96 67.677 23.24C68.1157 23.5293 68.643 23.674 69.259 23.674C69.959 23.674 70.5283 23.4547 70.967 23.016C71.415 22.5773 71.639 21.9613 71.639 21.168V19.558C71.387 20.006 71.0137 20.3793 70.519 20.678C70.0243 20.9767 69.4457 21.126 68.783 21.126C68.1017 21.126 67.481 20.958 66.921 20.622C66.3703 20.286 65.9363 19.8147 65.619 19.208C65.3017 18.6013 65.143 17.9107 65.143 17.136C65.143 16.352 65.3017 15.666 65.619 15.078C65.9363 14.4807 66.3703 14.0187 66.921 13.692C67.481 13.3653 68.1017 13.202 68.783 13.202ZM71.639 17.15C71.639 16.5713 71.5223 16.0673 71.289 15.638C71.0557 15.2087 70.7383 14.882 70.337 14.658C69.945 14.4247 69.511 14.308 69.035 14.308C68.559 14.308 68.125 14.42 67.733 14.644C67.341 14.868 67.0283 15.1947 66.795 15.624C66.5617 16.0533 66.445 16.5573 66.445 17.136C66.445 17.724 66.5617 18.2373 66.795 18.676C67.0283 19.1053 67.341 19.4367 67.733 19.67C68.125 19.894 68.559 20.006 69.035 20.006C69.511 20.006 69.945 19.894 70.337 19.67C70.7383 19.4367 71.0557 19.1053 71.289 18.676C71.5223 18.2373 71.639 17.7287 71.639 17.15Z" fill="white"/>
<rect x="0.5" y="0.5" width="83" height="32" rx="8.5" stroke="white" stroke-opacity="0.47" stroke-dasharray="2 2"/>
</svg>
