<svg width="218" height="824" viewBox="0 0 218 824" fill="none" xmlns="http://www.w3.org/2000/svg">
<rect width="218" height="824" rx="26" fill="white"/>
<rect x="54" y="26" width="99" height="31" rx="8" fill="#AD61AE"/>
<g clip-path="url(#clip0_625_118)">
<path fill-rule="evenodd" clip-rule="evenodd" d="M78.7118 46.3691C80.7314 44.7542 82 42.4209 82 39.8262C82 34.9516 77.5229 31 72 31C66.4771 31 62 34.9516 62 39.8262C62 42.3273 63.1787 44.5854 65.0725 46.1914C64.9577 46.5877 64.8947 47.0188 64.8947 47.4695C64.8947 49.4193 66.0729 51 67.5263 51C68.4707 51 69.2989 50.3326 69.7632 49.3302C70.2274 50.3326 71.0556 51 72 51C72.8609 51 73.6252 50.4455 74.1053 49.5882C74.5854 50.4455 75.3497 51 76.2105 51C77.6639 51 78.8421 49.4193 78.8421 47.4695C78.8421 47.0853 78.7963 46.7154 78.7118 46.3691ZM77.7895 40.0012C77.7895 42.476 75.1385 44.4822 71.8684 44.4822C68.5983 44.4822 65.9474 42.476 65.9474 40.0012C65.9474 37.5264 68.5983 35.5202 71.8684 35.5202C75.1385 35.5202 77.7895 37.5264 77.7895 40.0012Z" fill="white"/>
</g>
<path d="M106.602 39.098C106.602 39.91 106.322 40.5867 105.762 41.128C105.211 41.66 104.367 41.926 103.228 41.926H101.352V46H100.078V36.242H103.228C104.329 36.242 105.165 36.508 105.734 37.04C106.313 37.572 106.602 38.258 106.602 39.098ZM103.228 40.876C103.937 40.876 104.46 40.722 104.796 40.414C105.132 40.106 105.3 39.6673 105.3 39.098C105.3 37.894 104.609 37.292 103.228 37.292H101.352V40.876H103.228ZM111.531 46.126C110.813 46.126 110.159 45.9627 109.571 45.636C108.993 45.3093 108.535 44.8473 108.199 44.25C107.873 43.6433 107.709 42.9433 107.709 42.15C107.709 41.366 107.877 40.6753 108.213 40.078C108.559 39.4713 109.025 39.0093 109.613 38.692C110.201 38.3653 110.859 38.202 111.587 38.202C112.315 38.202 112.973 38.3653 113.561 38.692C114.149 39.0093 114.611 39.4667 114.947 40.064C115.293 40.6613 115.465 41.3567 115.465 42.15C115.465 42.9433 115.288 43.6433 114.933 44.25C114.588 44.8473 114.117 45.3093 113.519 45.636C112.922 45.9627 112.259 46.126 111.531 46.126ZM111.531 45.006C111.989 45.006 112.418 44.8987 112.819 44.684C113.221 44.4693 113.543 44.1473 113.785 43.718C114.037 43.2887 114.163 42.766 114.163 42.15C114.163 41.534 114.042 41.0113 113.799 40.582C113.557 40.1527 113.239 39.8353 112.847 39.63C112.455 39.4153 112.031 39.308 111.573 39.308C111.107 39.308 110.677 39.4153 110.285 39.63C109.903 39.8353 109.595 40.1527 109.361 40.582C109.128 41.0113 109.011 41.534 109.011 42.15C109.011 42.7753 109.123 43.3027 109.347 43.732C109.581 44.1613 109.889 44.4833 110.271 44.698C110.654 44.9033 111.074 45.006 111.531 45.006ZM117.799 37.082C117.556 37.082 117.351 36.998 117.183 36.83C117.015 36.662 116.931 36.4567 116.931 36.214C116.931 35.9713 117.015 35.766 117.183 35.598C117.351 35.43 117.556 35.346 117.799 35.346C118.032 35.346 118.228 35.43 118.387 35.598C118.555 35.766 118.639 35.9713 118.639 36.214C118.639 36.4567 118.555 36.662 118.387 36.83C118.228 36.998 118.032 37.082 117.799 37.082ZM118.415 38.328V46H117.141V38.328H118.415ZM123.302 46.126C122.714 46.126 122.186 46.028 121.72 45.832C121.253 45.6267 120.884 45.3467 120.614 44.992C120.343 44.628 120.194 44.2127 120.166 43.746H121.482C121.519 44.1287 121.696 44.4413 122.014 44.684C122.34 44.9267 122.765 45.048 123.288 45.048C123.773 45.048 124.156 44.9407 124.436 44.726C124.716 44.5113 124.856 44.2407 124.856 43.914C124.856 43.578 124.706 43.3307 124.408 43.172C124.109 43.004 123.647 42.8407 123.022 42.682C122.452 42.5327 121.986 42.3833 121.622 42.234C121.267 42.0753 120.959 41.8467 120.698 41.548C120.446 41.24 120.32 40.8387 120.32 40.344C120.32 39.952 120.436 39.5927 120.67 39.266C120.903 38.9393 121.234 38.6827 121.664 38.496C122.093 38.3 122.583 38.202 123.134 38.202C123.983 38.202 124.669 38.4167 125.192 38.846C125.714 39.2753 125.994 39.8633 126.032 40.61H124.758C124.73 40.2087 124.566 39.8867 124.268 39.644C123.978 39.4013 123.586 39.28 123.092 39.28C122.634 39.28 122.27 39.378 122 39.574C121.729 39.77 121.594 40.0267 121.594 40.344C121.594 40.596 121.673 40.806 121.832 40.974C122 41.1327 122.205 41.2633 122.448 41.366C122.7 41.4593 123.045 41.5667 123.484 41.688C124.034 41.8373 124.482 41.9867 124.828 42.136C125.173 42.276 125.467 42.4907 125.71 42.78C125.962 43.0693 126.092 43.4473 126.102 43.914C126.102 44.334 125.985 44.712 125.752 45.048C125.518 45.384 125.187 45.65 124.758 45.846C124.338 46.0327 123.852 46.126 123.302 46.126ZM131.246 46.126C130.528 46.126 129.874 45.9627 129.286 45.636C128.708 45.3093 128.25 44.8473 127.914 44.25C127.588 43.6433 127.424 42.9433 127.424 42.15C127.424 41.366 127.592 40.6753 127.928 40.078C128.274 39.4713 128.74 39.0093 129.328 38.692C129.916 38.3653 130.574 38.202 131.302 38.202C132.03 38.202 132.688 38.3653 133.276 38.692C133.864 39.0093 134.326 39.4667 134.662 40.064C135.008 40.6613 135.18 41.3567 135.18 42.15C135.18 42.9433 135.003 43.6433 134.648 44.25C134.303 44.8473 133.832 45.3093 133.234 45.636C132.637 45.9627 131.974 46.126 131.246 46.126ZM131.246 45.006C131.704 45.006 132.133 44.8987 132.534 44.684C132.936 44.4693 133.258 44.1473 133.5 43.718C133.752 43.2887 133.878 42.766 133.878 42.15C133.878 41.534 133.757 41.0113 133.514 40.582C133.272 40.1527 132.954 39.8353 132.562 39.63C132.17 39.4153 131.746 39.308 131.288 39.308C130.822 39.308 130.392 39.4153 130 39.63C129.618 39.8353 129.31 40.1527 129.076 40.582C128.843 41.0113 128.726 41.534 128.726 42.15C128.726 42.7753 128.838 43.3027 129.062 43.732C129.296 44.1613 129.604 44.4833 129.986 44.698C130.369 44.9033 130.789 45.006 131.246 45.006ZM140.593 38.188C141.527 38.188 142.283 38.4727 142.861 39.042C143.44 39.602 143.729 40.414 143.729 41.478V46H142.469V41.66C142.469 40.8947 142.278 40.3113 141.895 39.91C141.513 39.4993 140.99 39.294 140.327 39.294C139.655 39.294 139.119 39.504 138.717 39.924C138.325 40.344 138.129 40.9553 138.129 41.758V46H136.855V38.328H138.129V39.42C138.381 39.028 138.722 38.7247 139.151 38.51C139.59 38.2953 140.071 38.188 140.593 38.188Z" fill="white"/>
<rect x="53.5" y="25.5" width="100" height="32" rx="8.5" stroke="white" stroke-opacity="0.47" stroke-dasharray="2 2"/>
<rect x="54" y="278" width="106" height="31" rx="8" fill="#8A8A8A"/>
<path fill-rule="evenodd" clip-rule="evenodd" d="M81.7285 293.5C81.7285 298.597 77.5968 302.729 72.5 302.729C67.4032 302.729 63.2715 298.597 63.2715 293.5C63.2715 288.403 67.4032 284.271 72.5 284.271C77.5968 284.271 81.7285 288.403 81.7285 293.5ZM77.7734 293.5C77.7734 296.412 75.4124 298.773 72.5 298.773C69.5876 298.773 67.2266 296.412 67.2266 293.5C67.2266 290.588 69.5876 288.227 72.5 288.227C75.4124 288.227 77.7734 290.588 77.7734 293.5Z" fill="white"/>
<path d="M108.75 298H107.476L102.352 290.23V298H101.078V288.228H102.352L107.476 295.984V288.228H108.75V298ZM114.268 298.126C113.549 298.126 112.896 297.963 112.308 297.636C111.729 297.309 111.272 296.847 110.936 296.25C110.609 295.643 110.446 294.943 110.446 294.15C110.446 293.366 110.614 292.675 110.95 292.078C111.295 291.471 111.762 291.009 112.35 290.692C112.938 290.365 113.596 290.202 114.324 290.202C115.052 290.202 115.71 290.365 116.298 290.692C116.886 291.009 117.348 291.467 117.684 292.064C118.029 292.661 118.202 293.357 118.202 294.15C118.202 294.943 118.024 295.643 117.67 296.25C117.324 296.847 116.853 297.309 116.256 297.636C115.658 297.963 114.996 298.126 114.268 298.126ZM114.268 297.006C114.725 297.006 115.154 296.899 115.556 296.684C115.957 296.469 116.279 296.147 116.522 295.718C116.774 295.289 116.9 294.766 116.9 294.15C116.9 293.534 116.778 293.011 116.536 292.582C116.293 292.153 115.976 291.835 115.584 291.63C115.192 291.415 114.767 291.308 114.31 291.308C113.843 291.308 113.414 291.415 113.022 291.63C112.639 291.835 112.331 292.153 112.098 292.582C111.864 293.011 111.748 293.534 111.748 294.15C111.748 294.775 111.86 295.303 112.084 295.732C112.317 296.161 112.625 296.483 113.008 296.698C113.39 296.903 113.81 297.006 114.268 297.006ZM121.151 291.574C121.375 291.135 121.692 290.795 122.103 290.552C122.523 290.309 123.031 290.188 123.629 290.188V291.504H123.293C121.865 291.504 121.151 292.279 121.151 293.828V298H119.877V290.328H121.151V291.574ZM134.325 290.188C134.923 290.188 135.455 290.314 135.921 290.566C136.388 290.809 136.757 291.177 137.027 291.672C137.298 292.167 137.433 292.769 137.433 293.478V298H136.173V293.66C136.173 292.895 135.982 292.311 135.599 291.91C135.226 291.499 134.717 291.294 134.073 291.294C133.411 291.294 132.883 291.509 132.491 291.938C132.099 292.358 131.903 292.969 131.903 293.772V298H130.643V293.66C130.643 292.895 130.452 292.311 130.069 291.91C129.696 291.499 129.187 291.294 128.543 291.294C127.881 291.294 127.353 291.509 126.961 291.938C126.569 292.358 126.373 292.969 126.373 293.772V298H125.099V290.328H126.373V291.434C126.625 291.033 126.961 290.725 127.381 290.51C127.811 290.295 128.282 290.188 128.795 290.188C129.439 290.188 130.009 290.333 130.503 290.622C130.998 290.911 131.367 291.336 131.609 291.896C131.824 291.355 132.179 290.935 132.673 290.636C133.168 290.337 133.719 290.188 134.325 290.188ZM139.047 294.136C139.047 293.352 139.206 292.666 139.523 292.078C139.841 291.481 140.275 291.019 140.825 290.692C141.385 290.365 142.006 290.202 142.687 290.202C143.359 290.202 143.943 290.347 144.437 290.636C144.932 290.925 145.301 291.289 145.543 291.728V290.328H146.831V298H145.543V296.572C145.291 297.02 144.913 297.393 144.409 297.692C143.915 297.981 143.336 298.126 142.673 298.126C141.992 298.126 141.376 297.958 140.825 297.622C140.275 297.286 139.841 296.815 139.523 296.208C139.206 295.601 139.047 294.911 139.047 294.136ZM145.543 294.15C145.543 293.571 145.427 293.067 145.193 292.638C144.96 292.209 144.643 291.882 144.241 291.658C143.849 291.425 143.415 291.308 142.939 291.308C142.463 291.308 142.029 291.42 141.637 291.644C141.245 291.868 140.933 292.195 140.699 292.624C140.466 293.053 140.349 293.557 140.349 294.136C140.349 294.724 140.466 295.237 140.699 295.676C140.933 296.105 141.245 296.437 141.637 296.67C142.029 296.894 142.463 297.006 142.939 297.006C143.415 297.006 143.849 296.894 144.241 296.67C144.643 296.437 144.96 296.105 145.193 295.676C145.427 295.237 145.543 294.729 145.543 294.15ZM150.258 287.64V298H148.984V287.64H150.258Z" fill="white"/>
<rect x="53.5" y="277.5" width="107" height="32" rx="8.5" stroke="white" stroke-opacity="0.47" stroke-dasharray="2 2"/>
<rect x="54" y="110" width="74" height="31" rx="8" fill="#F44900"/>
<path fill-rule="evenodd" clip-rule="evenodd" d="M74.0215 131.217C74.2853 130.269 73.7732 128.318 73.7732 128.318C73.7732 128.318 73.4018 129.907 72.8214 130.494C72.3263 130.995 71.7197 131.343 70.8498 131.434C71.5611 131.094 72.0502 130.386 72.0502 129.567C72.0502 128.417 71.0863 127.486 69.8974 127.486C68.7084 127.486 67.7445 128.417 67.7445 129.567C67.7445 129.881 67.8164 130.179 67.9452 130.446C67.2015 129.863 67.0846 128.929 67.0846 128.929C67.0846 128.929 66.2542 132.319 68.5423 133.914C70.8304 135.509 75.3126 134.138 75.3126 134.138C75.3126 134.138 68.8982 138.577 64.1451 133.746C60.0506 129.585 63.0764 124.106 63.0764 124.106C63.0764 124.106 62.9458 124.614 62.9458 125.204C62.9458 125.794 63.271 126.243 63.271 126.243C63.271 126.243 64.2413 124.231 64.9963 123.413C65.711 122.639 66.6068 122.011 67.3806 121.469C67.9762 121.052 68.4995 120.685 68.812 120.341C70.5334 118.448 69.478 115 69.478 115C69.478 115 71.4184 116.682 71.9602 118.855C72.1667 119.684 72.0338 120.626 71.915 121.469C71.7222 122.837 71.5664 123.942 72.9595 123.871C75.2107 123.755 73.2544 120.341 73.2544 120.341C73.2544 120.341 78.3611 122.981 77.9796 127.598C77.5981 132.215 72.3978 133.264 72.3978 133.264C72.3978 133.264 73.7576 132.166 74.0215 131.217Z" fill="white"/>
<path d="M101.594 120.242V121.278H97.352V124.568H100.796V125.604H97.352V130H96.078V120.242H101.594ZM103.791 121.082C103.548 121.082 103.343 120.998 103.175 120.83C103.007 120.662 102.923 120.457 102.923 120.214C102.923 119.971 103.007 119.766 103.175 119.598C103.343 119.43 103.548 119.346 103.791 119.346C104.024 119.346 104.22 119.43 104.379 119.598C104.547 119.766 104.631 119.971 104.631 120.214C104.631 120.457 104.547 120.662 104.379 120.83C104.22 120.998 104.024 121.082 103.791 121.082ZM104.407 122.328V130H103.133V122.328H104.407ZM107.852 123.574C108.076 123.135 108.393 122.795 108.804 122.552C109.224 122.309 109.733 122.188 110.33 122.188V123.504H109.994C108.566 123.504 107.852 124.279 107.852 125.828V130H106.578V122.328H107.852V123.574ZM118.801 125.87C118.801 126.113 118.787 126.369 118.759 126.64H112.627C112.673 127.396 112.93 127.989 113.397 128.418C113.873 128.838 114.447 129.048 115.119 129.048C115.669 129.048 116.127 128.922 116.491 128.67C116.864 128.409 117.125 128.063 117.275 127.634H118.647C118.441 128.371 118.031 128.973 117.415 129.44C116.799 129.897 116.033 130.126 115.119 130.126C114.391 130.126 113.737 129.963 113.159 129.636C112.589 129.309 112.141 128.847 111.815 128.25C111.488 127.643 111.325 126.943 111.325 126.15C111.325 125.357 111.483 124.661 111.801 124.064C112.118 123.467 112.561 123.009 113.131 122.692C113.709 122.365 114.372 122.202 115.119 122.202C115.847 122.202 116.491 122.361 117.051 122.678C117.611 122.995 118.04 123.434 118.339 123.994C118.647 124.545 118.801 125.17 118.801 125.87ZM117.485 125.604C117.485 125.119 117.377 124.703 117.163 124.358C116.948 124.003 116.654 123.737 116.281 123.56C115.917 123.373 115.511 123.28 115.063 123.28C114.419 123.28 113.868 123.485 113.411 123.896C112.963 124.307 112.706 124.876 112.641 125.604H117.485Z" fill="white"/>
<rect x="53.5" y="109.5" width="75" height="32" rx="8.5" stroke="white" stroke-opacity="0.47" stroke-dasharray="2 2"/>
<rect x="54" y="152" width="95" height="31" rx="8" fill="#6892B0"/>
<path fill-rule="evenodd" clip-rule="evenodd" d="M69.33 176.595C72.4063 176.595 75.04 174.885 76.1273 172.461C76.1405 172.432 71.762 173.599 71.9016 173.186C71.964 173.002 74.648 172.021 76.6035 170.878C77.7275 170.22 78.2451 168.829 78.2451 168.829C78.2451 168.829 76.3515 169.748 75.3942 169.981C73.4652 170.452 71.7671 170.401 71.7671 170.352C71.7671 170.246 74.5867 169.71 78.5057 167.322C80.349 166.199 80.8497 164.264 80.8497 164.264C80.8497 164.264 78.8231 165.471 77.598 165.87C74.6926 166.815 72.0412 167.1 72.0412 166.972C72.0412 166.698 74.3745 166.056 76.8483 164.858C78.1346 164.234 79.2485 163.42 80.5394 162.515C82.6516 161.033 83 158.395 83 158.395C83 158.395 80.9167 159.738 79.9 160.184C75.705 162.026 72.0008 162.992 69.33 163.201C65.2983 163.516 62 166.329 62 169.981C62 173.634 65.2817 176.595 69.33 176.595Z" fill="white"/>
<path d="M106.594 162.242V163.278H102.352V166.568H105.796V167.604H102.352V172H101.078V162.242H106.594ZM109.407 161.64V172H108.133V161.64H109.407ZM118.186 164.328L113.566 175.612H112.25L113.762 171.916L110.668 164.328H112.082L114.49 170.544L116.87 164.328H118.186ZM120.125 163.082C119.882 163.082 119.677 162.998 119.509 162.83C119.341 162.662 119.257 162.457 119.257 162.214C119.257 161.971 119.341 161.766 119.509 161.598C119.677 161.43 119.882 161.346 120.125 161.346C120.358 161.346 120.554 161.43 120.713 161.598C120.881 161.766 120.965 161.971 120.965 162.214C120.965 162.457 120.881 162.662 120.713 162.83C120.554 162.998 120.358 163.082 120.125 163.082ZM120.741 164.328V172H119.467V164.328H120.741ZM126.65 164.188C127.583 164.188 128.339 164.473 128.918 165.042C129.497 165.602 129.786 166.414 129.786 167.478V172H128.526V167.66C128.526 166.895 128.335 166.311 127.952 165.91C127.569 165.499 127.047 165.294 126.384 165.294C125.712 165.294 125.175 165.504 124.774 165.924C124.382 166.344 124.186 166.955 124.186 167.758V172H122.912V164.328H124.186V165.42C124.438 165.028 124.779 164.725 125.208 164.51C125.647 164.295 126.127 164.188 126.65 164.188ZM135.031 164.202C135.694 164.202 136.272 164.347 136.767 164.636C137.271 164.925 137.644 165.289 137.887 165.728V164.328H139.175V172.168C139.175 172.868 139.026 173.489 138.727 174.03C138.428 174.581 137.999 175.01 137.439 175.318C136.888 175.626 136.244 175.78 135.507 175.78C134.499 175.78 133.659 175.542 132.987 175.066C132.315 174.59 131.918 173.941 131.797 173.12H133.057C133.197 173.587 133.486 173.96 133.925 174.24C134.364 174.529 134.891 174.674 135.507 174.674C136.207 174.674 136.776 174.455 137.215 174.016C137.663 173.577 137.887 172.961 137.887 172.168V170.558C137.635 171.006 137.262 171.379 136.767 171.678C136.272 171.977 135.694 172.126 135.031 172.126C134.35 172.126 133.729 171.958 133.169 171.622C132.618 171.286 132.184 170.815 131.867 170.208C131.55 169.601 131.391 168.911 131.391 168.136C131.391 167.352 131.55 166.666 131.867 166.078C132.184 165.481 132.618 165.019 133.169 164.692C133.729 164.365 134.35 164.202 135.031 164.202ZM137.887 168.15C137.887 167.571 137.77 167.067 137.537 166.638C137.304 166.209 136.986 165.882 136.585 165.658C136.193 165.425 135.759 165.308 135.283 165.308C134.807 165.308 134.373 165.42 133.981 165.644C133.589 165.868 133.276 166.195 133.043 166.624C132.81 167.053 132.693 167.557 132.693 168.136C132.693 168.724 132.81 169.237 133.043 169.676C133.276 170.105 133.589 170.437 133.981 170.67C134.373 170.894 134.807 171.006 135.283 171.006C135.759 171.006 136.193 170.894 136.585 170.67C136.986 170.437 137.304 170.105 137.537 169.676C137.77 169.237 137.887 168.729 137.887 168.15Z" fill="white"/>
<rect x="53.5" y="151.5" width="96" height="32" rx="8.5" stroke="white" stroke-opacity="0.47" stroke-dasharray="2 2"/>
<rect x="54" y="194" width="97" height="31" rx="8" fill="#33A4F5"/>
<path fill-rule="evenodd" clip-rule="evenodd" d="M79.3156 213.213C79.3156 216.961 76.2658 219.999 72.5035 219.999C68.7413 219.999 65.6914 216.961 65.6914 213.213C65.6914 209.567 72.135 199.556 72.4884 199.009C72.4965 198.997 72.5106 198.997 72.5186 199.009C72.872 199.556 79.3156 209.567 79.3156 213.213ZM71.368 217.823C67.9112 217.067 68.5027 213.238 68.5027 213.238C68.5027 213.238 69.4466 215.549 71.7373 216.298C74.028 217.047 76.7962 215.949 76.7962 215.949C76.7962 215.949 74.8248 218.58 71.368 217.823Z" fill="white"/>
<path d="M113.342 204.242L110.514 214H109.086L106.818 206.146L104.466 214L103.052 214.014L100.322 204.242H101.68L103.808 212.516L106.16 204.242H107.588L109.828 212.488L111.97 204.242H113.342ZM114.26 210.136C114.26 209.352 114.419 208.666 114.736 208.078C115.054 207.481 115.488 207.019 116.038 206.692C116.598 206.365 117.219 206.202 117.9 206.202C118.572 206.202 119.156 206.347 119.65 206.636C120.145 206.925 120.514 207.289 120.756 207.728V206.328H122.044V214H120.756V212.572C120.504 213.02 120.126 213.393 119.622 213.692C119.128 213.981 118.549 214.126 117.886 214.126C117.205 214.126 116.589 213.958 116.038 213.622C115.488 213.286 115.054 212.815 114.736 212.208C114.419 211.601 114.26 210.911 114.26 210.136ZM120.756 210.15C120.756 209.571 120.64 209.067 120.406 208.638C120.173 208.209 119.856 207.882 119.454 207.658C119.062 207.425 118.628 207.308 118.152 207.308C117.676 207.308 117.242 207.42 116.85 207.644C116.458 207.868 116.146 208.195 115.912 208.624C115.679 209.053 115.562 209.557 115.562 210.136C115.562 210.724 115.679 211.237 115.912 211.676C116.146 212.105 116.458 212.437 116.85 212.67C117.242 212.894 117.676 213.006 118.152 213.006C118.628 213.006 119.062 212.894 119.454 212.67C119.856 212.437 120.173 212.105 120.406 211.676C120.64 211.237 120.756 210.729 120.756 210.15ZM125.751 207.378V211.9C125.751 212.273 125.83 212.539 125.989 212.698C126.148 212.847 126.423 212.922 126.815 212.922H127.753V214H126.605C125.896 214 125.364 213.837 125.009 213.51C124.654 213.183 124.477 212.647 124.477 211.9V207.378H123.483V206.328H124.477V204.396H125.751V206.328H127.753V207.378H125.751ZM136.297 209.87C136.297 210.113 136.283 210.369 136.255 210.64H130.123C130.169 211.396 130.426 211.989 130.893 212.418C131.369 212.838 131.943 213.048 132.615 213.048C133.165 213.048 133.623 212.922 133.987 212.67C134.36 212.409 134.621 212.063 134.771 211.634H136.143C135.937 212.371 135.527 212.973 134.911 213.44C134.295 213.897 133.529 214.126 132.615 214.126C131.887 214.126 131.233 213.963 130.655 213.636C130.085 213.309 129.637 212.847 129.311 212.25C128.984 211.643 128.821 210.943 128.821 210.15C128.821 209.357 128.979 208.661 129.297 208.064C129.614 207.467 130.057 207.009 130.627 206.692C131.205 206.365 131.868 206.202 132.615 206.202C133.343 206.202 133.987 206.361 134.547 206.678C135.107 206.995 135.536 207.434 135.835 207.994C136.143 208.545 136.297 209.17 136.297 209.87ZM134.981 209.604C134.981 209.119 134.873 208.703 134.659 208.358C134.444 208.003 134.15 207.737 133.777 207.56C133.413 207.373 133.007 207.28 132.559 207.28C131.915 207.28 131.364 207.485 130.907 207.896C130.459 208.307 130.202 208.876 130.137 209.604H134.981ZM139.252 207.574C139.476 207.135 139.794 206.795 140.204 206.552C140.624 206.309 141.133 206.188 141.73 206.188V207.504H141.394C139.966 207.504 139.252 208.279 139.252 209.828V214H137.978V206.328H139.252V207.574Z" fill="white"/>
<rect x="53.5" y="193.5" width="98" height="32" rx="8.5" stroke="white" stroke-opacity="0.47" stroke-dasharray="2 2"/>
<rect x="54" y="236" width="82" height="31" rx="8" fill="#316520"/>
<path fill-rule="evenodd" clip-rule="evenodd" d="M76.0355 241.021C76.0508 240.999 76.0808 240.993 76.1026 241.009L77.5937 242.053C77.6155 242.068 77.6208 242.098 77.6055 242.12L75.5302 245.084C76.5391 245.406 77.2265 245.754 77.2265 245.754C77.2265 245.754 75.5464 248.644 72.6966 248.644C69.8469 248.644 67.8219 245.95 67.8219 245.95C67.8219 245.95 68.5399 245.492 69.6043 245.099L67.3279 242.386C67.3108 242.366 67.3135 242.335 67.3339 242.318L68.7283 241.148C68.7487 241.131 68.7791 241.134 68.7962 241.154L71.6785 244.589C71.9252 244.561 72.1767 244.546 72.4304 244.546C72.7951 244.546 73.1593 244.573 73.5148 244.62L76.0355 241.021ZM76.5993 248.781C77.3597 248.238 78.5105 246.82 78.5105 246.82C78.5105 246.82 81.4498 249.149 81.4498 254.088C81.4498 259.027 76.3681 262 76.3681 262C76.3681 262 73.9402 259.548 73.3442 256.44C72.7482 253.331 74.2259 249.88 74.2259 249.88C74.2259 249.88 75.8388 249.324 76.5993 248.781ZM68.4091 248.781C67.6487 248.238 66.4979 246.82 66.4979 246.82C66.4979 246.82 63.5586 249.149 63.5586 254.088C63.5586 259.027 68.6403 262 68.6403 262C68.6403 262 71.0682 259.548 71.6642 256.44C72.2602 253.331 70.7826 249.88 70.7826 249.88C70.7826 249.88 69.1697 249.324 68.4091 248.781Z" fill="white"/>
<path d="M105.964 250.974C106.319 251.03 106.641 251.175 106.93 251.408C107.229 251.641 107.462 251.931 107.63 252.276C107.807 252.621 107.896 252.99 107.896 253.382C107.896 253.877 107.77 254.325 107.518 254.726C107.266 255.118 106.897 255.431 106.412 255.664C105.936 255.888 105.371 256 104.718 256H101.078V246.242H104.578C105.241 246.242 105.805 246.354 106.272 246.578C106.739 246.793 107.089 247.087 107.322 247.46C107.555 247.833 107.672 248.253 107.672 248.72C107.672 249.299 107.513 249.779 107.196 250.162C106.888 250.535 106.477 250.806 105.964 250.974ZM102.352 250.456H104.494C105.091 250.456 105.553 250.316 105.88 250.036C106.207 249.756 106.37 249.369 106.37 248.874C106.37 248.379 106.207 247.992 105.88 247.712C105.553 247.432 105.082 247.292 104.466 247.292H102.352V250.456ZM104.606 254.95C105.241 254.95 105.735 254.801 106.09 254.502C106.445 254.203 106.622 253.788 106.622 253.256C106.622 252.715 106.435 252.29 106.062 251.982C105.689 251.665 105.189 251.506 104.564 251.506H102.352V254.95H104.606ZM116.468 248.328V256H115.194V254.866C114.951 255.258 114.611 255.566 114.172 255.79C113.743 256.005 113.267 256.112 112.744 256.112C112.147 256.112 111.61 255.991 111.134 255.748C110.658 255.496 110.28 255.123 110 254.628C109.729 254.133 109.594 253.531 109.594 252.822V248.328H110.854V252.654C110.854 253.41 111.045 253.993 111.428 254.404C111.811 254.805 112.333 255.006 112.996 255.006C113.677 255.006 114.214 254.796 114.606 254.376C114.998 253.956 115.194 253.345 115.194 252.542V248.328H116.468ZM121.783 248.202C122.446 248.202 123.024 248.347 123.519 248.636C124.023 248.925 124.396 249.289 124.639 249.728V248.328H125.927V256.168C125.927 256.868 125.778 257.489 125.479 258.03C125.18 258.581 124.751 259.01 124.191 259.318C123.64 259.626 122.996 259.78 122.259 259.78C121.251 259.78 120.411 259.542 119.739 259.066C119.067 258.59 118.67 257.941 118.549 257.12H119.809C119.949 257.587 120.238 257.96 120.677 258.24C121.116 258.529 121.643 258.674 122.259 258.674C122.959 258.674 123.528 258.455 123.967 258.016C124.415 257.577 124.639 256.961 124.639 256.168V254.558C124.387 255.006 124.014 255.379 123.519 255.678C123.024 255.977 122.446 256.126 121.783 256.126C121.102 256.126 120.481 255.958 119.921 255.622C119.37 255.286 118.936 254.815 118.619 254.208C118.302 253.601 118.143 252.911 118.143 252.136C118.143 251.352 118.302 250.666 118.619 250.078C118.936 249.481 119.37 249.019 119.921 248.692C120.481 248.365 121.102 248.202 121.783 248.202ZM124.639 252.15C124.639 251.571 124.522 251.067 124.289 250.638C124.056 250.209 123.738 249.882 123.337 249.658C122.945 249.425 122.511 249.308 122.035 249.308C121.559 249.308 121.125 249.42 120.733 249.644C120.341 249.868 120.028 250.195 119.795 250.624C119.562 251.053 119.445 251.557 119.445 252.136C119.445 252.724 119.562 253.237 119.795 253.676C120.028 254.105 120.341 254.437 120.733 254.67C121.125 254.894 121.559 255.006 122.035 255.006C122.511 255.006 122.945 254.894 123.337 254.67C123.738 254.437 124.056 254.105 124.289 253.676C124.522 253.237 124.639 252.729 124.639 252.15Z" fill="white"/>
<rect x="53.5" y="235.5" width="83" height="32" rx="8.5" stroke="white" stroke-opacity="0.47" stroke-dasharray="2 2"/>
<rect x="54" y="320" width="86" height="31" rx="8" fill="#5C5365"/>
<g clip-path="url(#clip1_625_118)">
<path fill-rule="evenodd" clip-rule="evenodd" d="M71.4081 343.574C71.807 343.635 72.2156 343.667 72.6317 343.667C77.0615 343.667 80.6525 340.076 80.6525 335.646C80.6525 331.216 77.0615 327.625 72.6317 327.625C72.3345 327.625 72.041 327.641 71.7522 327.673C73.9496 329.337 75.4025 332.221 75.4025 335.5C75.4025 338.947 73.7967 341.958 71.4081 343.574ZM72.4858 346C78.2848 346 82.9858 341.299 82.9858 335.5C82.9858 329.701 78.2848 325 72.4858 325C66.6868 325 61.9858 329.701 61.9858 335.5C61.9858 341.299 66.6868 346 72.4858 346Z" fill="white"/>
</g>
<path d="M104.116 330.242C105.18 330.242 106.099 330.443 106.874 330.844C107.658 331.236 108.255 331.801 108.666 332.538C109.086 333.275 109.296 334.143 109.296 335.142C109.296 336.141 109.086 337.009 108.666 337.746C108.255 338.474 107.658 339.034 106.874 339.426C106.099 339.809 105.18 340 104.116 340H101.078V330.242H104.116ZM104.116 338.95C105.376 338.95 106.337 338.619 107 337.956C107.663 337.284 107.994 336.346 107.994 335.142C107.994 333.929 107.658 332.981 106.986 332.3C106.323 331.619 105.367 331.278 104.116 331.278H102.352V338.95H104.116ZM110.5 336.136C110.5 335.352 110.659 334.666 110.976 334.078C111.294 333.481 111.728 333.019 112.278 332.692C112.838 332.365 113.459 332.202 114.14 332.202C114.812 332.202 115.396 332.347 115.89 332.636C116.385 332.925 116.754 333.289 116.996 333.728V332.328H118.284V340H116.996V338.572C116.744 339.02 116.366 339.393 115.862 339.692C115.368 339.981 114.789 340.126 114.126 340.126C113.445 340.126 112.829 339.958 112.278 339.622C111.728 339.286 111.294 338.815 110.976 338.208C110.659 337.601 110.5 336.911 110.5 336.136ZM116.996 336.15C116.996 335.571 116.88 335.067 116.646 334.638C116.413 334.209 116.096 333.882 115.694 333.658C115.302 333.425 114.868 333.308 114.392 333.308C113.916 333.308 113.482 333.42 113.09 333.644C112.698 333.868 112.386 334.195 112.152 334.624C111.919 335.053 111.802 335.557 111.802 336.136C111.802 336.724 111.919 337.237 112.152 337.676C112.386 338.105 112.698 338.437 113.09 338.67C113.482 338.894 113.916 339.006 114.392 339.006C114.868 339.006 115.302 338.894 115.694 338.67C116.096 338.437 116.413 338.105 116.646 337.676C116.88 337.237 116.996 336.729 116.996 336.15ZM121.711 333.574C121.935 333.135 122.253 332.795 122.663 332.552C123.083 332.309 123.592 332.188 124.189 332.188V333.504H123.853C122.425 333.504 121.711 334.279 121.711 335.828V340H120.437V332.328H121.711V333.574ZM129.944 340L126.934 336.612V340H125.66V329.64H126.934V335.73L129.888 332.328H131.666L128.054 336.15L131.68 340H129.944Z" fill="white"/>
<rect x="53.5" y="319.5" width="87" height="32" rx="8.5" stroke="white" stroke-opacity="0.47" stroke-dasharray="2 2"/>
<rect x="54" y="362" width="106" height="31" rx="8" fill="#0A6CBF"/>
<path fill-rule="evenodd" clip-rule="evenodd" d="M73.5132 377.454C73.6555 377.367 73.7762 377.185 73.8736 376.983C75.1551 377.507 76.0557 378.745 76.0557 380.188C76.0557 382.106 74.4664 383.66 72.5058 383.66C71.701 383.66 70.9588 383.398 70.3633 382.957C70.168 382.864 70.0073 382.775 69.8758 382.703C69.6719 382.59 69.5381 382.516 69.4543 382.527C69.2095 382.561 69.2806 382.787 69.3452 382.991C69.389 383.13 69.4299 383.26 69.3667 383.313C69.3005 383.369 69.086 383.165 68.8355 382.926C68.4944 382.6 68.0863 382.211 67.8939 382.328C67.7418 382.421 67.8895 382.671 68.0703 382.978L68.0837 383.001C68.1601 383.131 68.2486 383.263 68.3294 383.383C68.4936 383.628 68.6258 383.825 68.5596 383.859C68.4796 383.899 67.9224 383.523 67.4528 383.001C67.2716 382.799 67.096 382.581 66.9329 382.378V382.378C66.5757 381.934 66.2782 381.563 66.1112 381.607C65.9103 381.66 66.0623 382.074 66.2856 382.473C66.39 382.66 66.5129 382.85 66.6192 383.014V383.014C66.7846 383.27 66.9102 383.464 66.8647 383.488C66.8032 383.52 66.2626 382.993 65.8954 382.328C65.6773 381.934 65.4942 381.498 65.3459 381.145C65.1851 380.762 65.0653 380.476 64.9865 380.448C64.7125 380.348 64.7125 380.907 64.8224 381.713C64.8367 381.818 64.858 381.929 64.8843 382.041C65.9501 385.489 69.224 388 73.0975 388C77.8355 388 81.6763 384.243 81.6763 379.61C81.6763 375.199 78.197 371.583 73.7764 371.245C73.782 371.037 73.8904 370.625 73.8904 370.625C73.8904 370.625 74.6708 368.737 74.7121 368.333C74.7148 368.307 74.718 368.278 74.7215 368.247C74.7701 367.811 74.8606 367 74.1632 367C73.7908 367 73.6176 367.277 73.4196 367.594V367.594C73.3435 367.716 73.2638 367.843 73.1677 367.963C72.4759 368.827 71.3125 369.906 70.6529 370.481C69.2586 371.696 67.8906 372.694 67.0928 373.276L67.0927 373.276C66.7299 373.541 66.485 373.72 66.4092 373.794C65.838 374.351 63.79 378.045 63.79 378.045C63.79 378.045 63.1277 379.23 63.3631 379.471C63.5985 379.711 64.1662 379.656 64.1662 379.656C64.1662 379.656 71.7927 377.906 72.4755 377.768C72.6593 377.731 72.7891 377.71 72.8887 377.693C73.1592 377.648 73.2078 377.64 73.5132 377.454ZM68.121 375.206C67.7116 375.595 67.0327 376.524 67.0327 376.524C67.0327 376.524 68.2945 376.601 68.9894 375.941C69.6844 375.28 69.5251 374.154 69.5251 374.154C69.5251 374.154 68.5303 374.817 68.121 375.206Z" fill="white"/>
<path d="M104.116 372.242C105.18 372.242 106.099 372.443 106.874 372.844C107.658 373.236 108.255 373.801 108.666 374.538C109.086 375.275 109.296 376.143 109.296 377.142C109.296 378.141 109.086 379.009 108.666 379.746C108.255 380.474 107.658 381.034 106.874 381.426C106.099 381.809 105.18 382 104.116 382H101.078V372.242H104.116ZM104.116 380.95C105.376 380.95 106.337 380.619 107 379.956C107.663 379.284 107.994 378.346 107.994 377.142C107.994 375.929 107.658 374.981 106.986 374.3C106.323 373.619 105.367 373.278 104.116 373.278H102.352V380.95H104.116ZM112.25 375.574C112.474 375.135 112.792 374.795 113.202 374.552C113.622 374.309 114.131 374.188 114.728 374.188V375.504H114.392C112.964 375.504 112.25 376.279 112.25 377.828V382H110.976V374.328H112.25V375.574ZM115.723 378.136C115.723 377.352 115.882 376.666 116.199 376.078C116.516 375.481 116.95 375.019 117.501 374.692C118.061 374.365 118.682 374.202 119.363 374.202C120.035 374.202 120.618 374.347 121.113 374.636C121.608 374.925 121.976 375.289 122.219 375.728V374.328H123.507V382H122.219V380.572C121.967 381.02 121.589 381.393 121.085 381.692C120.59 381.981 120.012 382.126 119.349 382.126C118.668 382.126 118.052 381.958 117.501 381.622C116.95 381.286 116.516 380.815 116.199 380.208C115.882 379.601 115.723 378.911 115.723 378.136ZM122.219 378.15C122.219 377.571 122.102 377.067 121.869 376.638C121.636 376.209 121.318 375.882 120.917 375.658C120.525 375.425 120.091 375.308 119.615 375.308C119.139 375.308 118.705 375.42 118.313 375.644C117.921 375.868 117.608 376.195 117.375 376.624C117.142 377.053 117.025 377.557 117.025 378.136C117.025 378.724 117.142 379.237 117.375 379.676C117.608 380.105 117.921 380.437 118.313 380.67C118.705 380.894 119.139 381.006 119.615 381.006C120.091 381.006 120.525 380.894 120.917 380.67C121.318 380.437 121.636 380.105 121.869 379.676C122.102 379.237 122.219 378.729 122.219 378.15ZM128.824 374.202C129.487 374.202 130.065 374.347 130.56 374.636C131.064 374.925 131.437 375.289 131.68 375.728V374.328H132.968V382.168C132.968 382.868 132.819 383.489 132.52 384.03C132.221 384.581 131.792 385.01 131.232 385.318C130.681 385.626 130.037 385.78 129.3 385.78C128.292 385.78 127.452 385.542 126.78 385.066C126.108 384.59 125.711 383.941 125.59 383.12H126.85C126.99 383.587 127.279 383.96 127.718 384.24C128.157 384.529 128.684 384.674 129.3 384.674C130 384.674 130.569 384.455 131.008 384.016C131.456 383.577 131.68 382.961 131.68 382.168V380.558C131.428 381.006 131.055 381.379 130.56 381.678C130.065 381.977 129.487 382.126 128.824 382.126C128.143 382.126 127.522 381.958 126.962 381.622C126.411 381.286 125.977 380.815 125.66 380.208C125.343 379.601 125.184 378.911 125.184 378.136C125.184 377.352 125.343 376.666 125.66 376.078C125.977 375.481 126.411 375.019 126.962 374.692C127.522 374.365 128.143 374.202 128.824 374.202ZM131.68 378.15C131.68 377.571 131.563 377.067 131.33 376.638C131.097 376.209 130.779 375.882 130.378 375.658C129.986 375.425 129.552 375.308 129.076 375.308C128.6 375.308 128.166 375.42 127.774 375.644C127.382 375.868 127.069 376.195 126.836 376.624C126.603 377.053 126.486 377.557 126.486 378.136C126.486 378.724 126.603 379.237 126.836 379.676C127.069 380.105 127.382 380.437 127.774 380.67C128.166 380.894 128.6 381.006 129.076 381.006C129.552 381.006 129.986 380.894 130.378 380.67C130.779 380.437 131.097 380.105 131.33 379.676C131.563 379.237 131.68 378.729 131.68 378.15ZM138.467 382.126C137.748 382.126 137.095 381.963 136.507 381.636C135.928 381.309 135.471 380.847 135.135 380.25C134.808 379.643 134.645 378.943 134.645 378.15C134.645 377.366 134.813 376.675 135.149 376.078C135.494 375.471 135.961 375.009 136.549 374.692C137.137 374.365 137.795 374.202 138.523 374.202C139.251 374.202 139.909 374.365 140.497 374.692C141.085 375.009 141.547 375.467 141.883 376.064C142.228 376.661 142.401 377.357 142.401 378.15C142.401 378.943 142.224 379.643 141.869 380.25C141.524 380.847 141.052 381.309 140.455 381.636C139.858 381.963 139.195 382.126 138.467 382.126ZM138.467 381.006C138.924 381.006 139.354 380.899 139.755 380.684C140.156 380.469 140.478 380.147 140.721 379.718C140.973 379.289 141.099 378.766 141.099 378.15C141.099 377.534 140.978 377.011 140.735 376.582C140.492 376.153 140.175 375.835 139.783 375.63C139.391 375.415 138.966 375.308 138.509 375.308C138.042 375.308 137.613 375.415 137.221 375.63C136.838 375.835 136.53 376.153 136.297 376.582C136.064 377.011 135.947 377.534 135.947 378.15C135.947 378.775 136.059 379.303 136.283 379.732C136.516 380.161 136.824 380.483 137.207 380.698C137.59 380.903 138.01 381.006 138.467 381.006ZM147.814 374.188C148.747 374.188 149.503 374.473 150.082 375.042C150.661 375.602 150.95 376.414 150.95 377.478V382H149.69V377.66C149.69 376.895 149.499 376.311 149.116 375.91C148.733 375.499 148.211 375.294 147.548 375.294C146.876 375.294 146.339 375.504 145.938 375.924C145.546 376.344 145.35 376.955 145.35 377.758V382H144.076V374.328H145.35V375.42C145.602 375.028 145.943 374.725 146.372 374.51C146.811 374.295 147.291 374.188 147.814 374.188Z" fill="white"/>
<rect x="53.5" y="361.5" width="107" height="32" rx="8.5" stroke="white" stroke-opacity="0.47" stroke-dasharray="2 2"/>
<rect x="54" y="404" width="105" height="31" rx="8" fill="#F4D23B"/>
<path fill-rule="evenodd" clip-rule="evenodd" d="M68.2573 409.024C68.2533 409.012 68.262 409 68.2744 409H75.6502C75.6581 409 75.6651 409.005 75.6675 409.013L79.0553 419.958C79.0589 419.97 79.0502 419.982 79.038 419.982H74.1277C74.1217 419.982 74.1174 419.987 74.119 419.993L76.9352 429.907C76.9407 429.926 76.9155 429.939 76.9035 429.923L65.9592 415.368C65.9503 415.356 65.9588 415.339 65.9736 415.339H70.4302C70.4364 415.339 70.4407 415.333 70.4387 415.328L68.2573 409.024Z" fill="white"/>
<path d="M102.352 415.278V418.54H105.908V419.59H102.352V422.95H106.328V424H101.078V414.228H106.328V415.278H102.352ZM109.53 413.64V424H108.256V413.64H109.53ZM118.701 419.87C118.701 420.113 118.687 420.369 118.659 420.64H112.527C112.574 421.396 112.83 421.989 113.297 422.418C113.773 422.838 114.347 423.048 115.019 423.048C115.57 423.048 116.027 422.922 116.391 422.67C116.764 422.409 117.026 422.063 117.175 421.634H118.547C118.342 422.371 117.931 422.973 117.315 423.44C116.699 423.897 115.934 424.126 115.019 424.126C114.291 424.126 113.638 423.963 113.059 423.636C112.49 423.309 112.042 422.847 111.715 422.25C111.388 421.643 111.225 420.943 111.225 420.15C111.225 419.357 111.384 418.661 111.701 418.064C112.018 417.467 112.462 417.009 113.031 416.692C113.61 416.365 114.272 416.202 115.019 416.202C115.747 416.202 116.391 416.361 116.951 416.678C117.511 416.995 117.94 417.434 118.239 417.994C118.547 418.545 118.701 419.17 118.701 419.87ZM117.385 419.604C117.385 419.119 117.278 418.703 117.063 418.358C116.848 418.003 116.554 417.737 116.181 417.56C115.817 417.373 115.411 417.28 114.963 417.28C114.319 417.28 113.768 417.485 113.311 417.896C112.863 418.307 112.606 418.876 112.541 419.604H117.385ZM119.907 420.15C119.907 419.357 120.065 418.666 120.383 418.078C120.7 417.481 121.139 417.019 121.699 416.692C122.268 416.365 122.917 416.202 123.645 416.202C124.587 416.202 125.362 416.431 125.969 416.888C126.585 417.345 126.991 417.98 127.187 418.792H125.815C125.684 418.325 125.427 417.957 125.045 417.686C124.671 417.415 124.205 417.28 123.645 417.28C122.917 417.28 122.329 417.532 121.881 418.036C121.433 418.531 121.209 419.235 121.209 420.15C121.209 421.074 121.433 421.788 121.881 422.292C122.329 422.796 122.917 423.048 123.645 423.048C124.205 423.048 124.671 422.917 125.045 422.656C125.418 422.395 125.675 422.021 125.815 421.536H127.187C126.981 422.32 126.571 422.95 125.955 423.426C125.339 423.893 124.569 424.126 123.645 424.126C122.917 424.126 122.268 423.963 121.699 423.636C121.139 423.309 120.7 422.847 120.383 422.25C120.065 421.653 119.907 420.953 119.907 420.15ZM130.441 417.378V421.9C130.441 422.273 130.52 422.539 130.679 422.698C130.837 422.847 131.113 422.922 131.505 422.922H132.443V424H131.295C130.585 424 130.053 423.837 129.699 423.51C129.344 423.183 129.167 422.647 129.167 421.9V417.378H128.173V416.328H129.167V414.396H130.441V416.328H132.443V417.378H130.441ZM135.26 417.574C135.484 417.135 135.802 416.795 136.212 416.552C136.632 416.309 137.141 416.188 137.738 416.188V417.504H137.402C135.974 417.504 135.26 418.279 135.26 419.828V424H133.986V416.328H135.26V417.574ZM139.867 415.082C139.624 415.082 139.419 414.998 139.251 414.83C139.083 414.662 138.999 414.457 138.999 414.214C138.999 413.971 139.083 413.766 139.251 413.598C139.419 413.43 139.624 413.346 139.867 413.346C140.1 413.346 140.296 413.43 140.455 413.598C140.623 413.766 140.707 413.971 140.707 414.214C140.707 414.457 140.623 414.662 140.455 414.83C140.296 414.998 140.1 415.082 139.867 415.082ZM140.483 416.328V424H139.209V416.328H140.483ZM142.178 420.15C142.178 419.357 142.337 418.666 142.654 418.078C142.972 417.481 143.41 417.019 143.97 416.692C144.54 416.365 145.188 416.202 145.916 416.202C146.859 416.202 147.634 416.431 148.24 416.888C148.856 417.345 149.262 417.98 149.458 418.792H148.086C147.956 418.325 147.699 417.957 147.316 417.686C146.943 417.415 146.476 417.28 145.916 417.28C145.188 417.28 144.6 417.532 144.152 418.036C143.704 418.531 143.48 419.235 143.48 420.15C143.48 421.074 143.704 421.788 144.152 422.292C144.6 422.796 145.188 423.048 145.916 423.048C146.476 423.048 146.943 422.917 147.316 422.656C147.69 422.395 147.946 422.021 148.086 421.536H149.458C149.253 422.32 148.842 422.95 148.226 423.426C147.61 423.893 146.84 424.126 145.916 424.126C145.188 424.126 144.54 423.963 143.97 423.636C143.41 423.309 142.972 422.847 142.654 422.25C142.337 421.653 142.178 420.953 142.178 420.15Z" fill="white"/>
<rect x="53.5" y="403.5" width="106" height="32" rx="8.5" stroke="white" stroke-opacity="0.47" stroke-dasharray="2 2"/>
<rect x="54" y="446" width="88" height="31" rx="8" fill="#EC8FE6"/>
<g clip-path="url(#clip2_625_118)">
<path fill-rule="evenodd" clip-rule="evenodd" d="M66.2134 467.651L69.5817 466.675L72.4909 471.994C72.4947 472.001 72.5046 472.001 72.5084 471.994L75.4176 466.675L78.7859 467.651C78.7935 467.654 78.8005 467.647 78.7982 467.639L77.8214 464.337L82.9941 461.508C83.001 461.505 83.001 461.495 82.9941 461.491L77.7788 458.639L78.7982 455.193C78.8005 455.185 78.7935 455.178 78.7859 455.18L75.3386 456.18L72.5084 451.005C72.5046 450.998 72.4947 450.998 72.4909 451.005L69.6607 456.18L66.2134 455.18C66.2058 455.178 66.1988 455.185 66.2011 455.193L67.2205 458.639L62.0052 461.491C61.9983 461.495 61.9983 461.505 62.0052 461.508L67.1779 464.337L66.2011 467.639C66.1988 467.647 66.2058 467.654 66.2134 467.651ZM68.8271 461.536L71.2134 462.841L72.5185 465.227C72.5222 465.234 72.5322 465.234 72.5359 465.227L73.841 462.841L76.2272 461.536C76.2341 461.532 76.2341 461.522 76.2272 461.518L73.841 460.213L72.5359 457.827C72.5322 457.82 72.5222 457.82 72.5185 457.827L71.2134 460.213L68.8271 461.518C68.8202 461.522 68.8202 461.532 68.8271 461.536Z" fill="white"/>
</g>
<path d="M106.594 456.242V457.278H102.352V460.568H105.796V461.604H102.352V466H101.078V456.242H106.594ZM107.657 462.136C107.657 461.352 107.815 460.666 108.133 460.078C108.45 459.481 108.884 459.019 109.435 458.692C109.995 458.365 110.615 458.202 111.297 458.202C111.969 458.202 112.552 458.347 113.047 458.636C113.541 458.925 113.91 459.289 114.153 459.728V458.328H115.441V466H114.153V464.572C113.901 465.02 113.523 465.393 113.019 465.692C112.524 465.981 111.945 466.126 111.283 466.126C110.601 466.126 109.985 465.958 109.435 465.622C108.884 465.286 108.45 464.815 108.133 464.208C107.815 463.601 107.657 462.911 107.657 462.136ZM114.153 462.15C114.153 461.571 114.036 461.067 113.803 460.638C113.569 460.209 113.252 459.882 112.851 459.658C112.459 459.425 112.025 459.308 111.549 459.308C111.073 459.308 110.639 459.42 110.247 459.644C109.855 459.868 109.542 460.195 109.309 460.624C109.075 461.053 108.959 461.557 108.959 462.136C108.959 462.724 109.075 463.237 109.309 463.676C109.542 464.105 109.855 464.437 110.247 464.67C110.639 464.894 111.073 465.006 111.549 465.006C112.025 465.006 112.459 464.894 112.851 464.67C113.252 464.437 113.569 464.105 113.803 463.676C114.036 463.237 114.153 462.729 114.153 462.15ZM118.252 457.082C118.009 457.082 117.804 456.998 117.636 456.83C117.468 456.662 117.384 456.457 117.384 456.214C117.384 455.971 117.468 455.766 117.636 455.598C117.804 455.43 118.009 455.346 118.252 455.346C118.485 455.346 118.681 455.43 118.84 455.598C119.008 455.766 119.092 455.971 119.092 456.214C119.092 456.457 119.008 456.662 118.84 456.83C118.681 456.998 118.485 457.082 118.252 457.082ZM118.868 458.328V466H117.594V458.328H118.868ZM122.313 459.574C122.537 459.135 122.854 458.795 123.265 458.552C123.685 458.309 124.194 458.188 124.791 458.188V459.504H124.455C123.027 459.504 122.313 460.279 122.313 461.828V466H121.039V458.328H122.313V459.574ZM132.87 458.328L128.25 469.612H126.934L128.446 465.916L125.352 458.328H126.766L129.174 464.544L131.554 458.328H132.87Z" fill="white"/>
<rect x="53.5" y="445.5" width="89" height="32" rx="8.5" stroke="white" stroke-opacity="0.47" stroke-dasharray="2 2"/>
<rect x="54" y="488" width="110" height="31" rx="8" fill="#CE4069"/>
<g clip-path="url(#clip3_625_118)">
<path fill-rule="evenodd" clip-rule="evenodd" d="M65.619 494.746C65.8731 493.742 66.7821 493 67.8645 493C68.6764 493 69.3908 493.418 69.8044 494.05H70.4817C70.9025 493.618 71.4904 493.35 72.1409 493.35C73.0947 493.35 73.9138 493.926 74.269 494.75H74.836C75.1913 494.528 75.6112 494.4 76.0609 494.4C77.0147 494.4 77.8338 494.976 78.1889 495.8H79.7309C79.7441 495.8 79.7564 495.804 79.7671 495.81C79.8375 495.803 79.9088 495.8 79.9809 495.8C81.2602 495.8 82.2972 496.837 82.2972 498.116V505.062L82.2973 505.075L82.2972 505.088V505.188C82.2972 505.23 82.2961 505.272 82.2938 505.314C82.1544 510.133 77.8217 514 72.4973 514C67.0849 514 62.6973 510.004 62.6973 505.075C62.6973 502.696 63.7196 500.534 65.386 498.934C65.3818 501.253 65.421 503.652 65.6016 503.61C66.0852 503.5 65.7074 496.316 65.619 494.746Z" fill="white"/>
</g>
<path d="M106.594 498.242V499.278H102.352V502.568H105.796V503.604H102.352V508H101.078V498.242H106.594ZM108.791 499.082C108.548 499.082 108.343 498.998 108.175 498.83C108.007 498.662 107.923 498.457 107.923 498.214C107.923 497.971 108.007 497.766 108.175 497.598C108.343 497.43 108.548 497.346 108.791 497.346C109.024 497.346 109.22 497.43 109.379 497.598C109.547 497.766 109.631 497.971 109.631 498.214C109.631 498.457 109.547 498.662 109.379 498.83C109.22 498.998 109.024 499.082 108.791 499.082ZM109.407 500.328V508H108.133V500.328H109.407ZM114.742 500.202C115.405 500.202 115.983 500.347 116.478 500.636C116.982 500.925 117.355 501.289 117.598 501.728V500.328H118.886V508.168C118.886 508.868 118.737 509.489 118.438 510.03C118.139 510.581 117.71 511.01 117.15 511.318C116.599 511.626 115.955 511.78 115.218 511.78C114.21 511.78 113.37 511.542 112.698 511.066C112.026 510.59 111.629 509.941 111.508 509.12H112.768C112.908 509.587 113.197 509.96 113.636 510.24C114.075 510.529 114.602 510.674 115.218 510.674C115.918 510.674 116.487 510.455 116.926 510.016C117.374 509.577 117.598 508.961 117.598 508.168V506.558C117.346 507.006 116.973 507.379 116.478 507.678C115.983 507.977 115.405 508.126 114.742 508.126C114.061 508.126 113.44 507.958 112.88 507.622C112.329 507.286 111.895 506.815 111.578 506.208C111.261 505.601 111.102 504.911 111.102 504.136C111.102 503.352 111.261 502.666 111.578 502.078C111.895 501.481 112.329 501.019 112.88 500.692C113.44 500.365 114.061 500.202 114.742 500.202ZM117.598 504.15C117.598 503.571 117.481 503.067 117.248 502.638C117.015 502.209 116.697 501.882 116.296 501.658C115.904 501.425 115.47 501.308 114.994 501.308C114.518 501.308 114.084 501.42 113.692 501.644C113.3 501.868 112.987 502.195 112.754 502.624C112.521 503.053 112.404 503.557 112.404 504.136C112.404 504.724 112.521 505.237 112.754 505.676C112.987 506.105 113.3 506.437 113.692 506.67C114.084 506.894 114.518 507.006 114.994 507.006C115.47 507.006 115.904 506.894 116.296 506.67C116.697 506.437 117.015 506.105 117.248 505.676C117.481 505.237 117.598 504.729 117.598 504.15ZM124.847 500.188C125.426 500.188 125.948 500.314 126.415 500.566C126.882 500.809 127.246 501.177 127.507 501.672C127.778 502.167 127.913 502.769 127.913 503.478V508H126.653V503.66C126.653 502.895 126.462 502.311 126.079 501.91C125.696 501.499 125.174 501.294 124.511 501.294C123.839 501.294 123.302 501.504 122.901 501.924C122.509 502.344 122.313 502.955 122.313 503.758V508H121.039V497.64H122.313V501.42C122.565 501.028 122.91 500.725 123.349 500.51C123.797 500.295 124.296 500.188 124.847 500.188ZM131.548 501.378V505.9C131.548 506.273 131.627 506.539 131.786 506.698C131.945 506.847 132.22 506.922 132.612 506.922H133.55V508H132.402C131.693 508 131.161 507.837 130.806 507.51C130.451 507.183 130.274 506.647 130.274 505.9V501.378H129.28V500.328H130.274V498.396H131.548V500.328H133.55V501.378H131.548ZM135.752 499.082C135.509 499.082 135.304 498.998 135.136 498.83C134.968 498.662 134.884 498.457 134.884 498.214C134.884 497.971 134.968 497.766 135.136 497.598C135.304 497.43 135.509 497.346 135.752 497.346C135.985 497.346 136.181 497.43 136.34 497.598C136.508 497.766 136.592 497.971 136.592 498.214C136.592 498.457 136.508 498.662 136.34 498.83C136.181 498.998 135.985 499.082 135.752 499.082ZM136.368 500.328V508H135.094V500.328H136.368ZM142.277 500.188C143.21 500.188 143.966 500.473 144.545 501.042C145.124 501.602 145.413 502.414 145.413 503.478V508H144.153V503.66C144.153 502.895 143.962 502.311 143.579 501.91C143.196 501.499 142.674 501.294 142.011 501.294C141.339 501.294 140.802 501.504 140.401 501.924C140.009 502.344 139.813 502.955 139.813 503.758V508H138.539V500.328H139.813V501.42C140.065 501.028 140.406 500.725 140.835 500.51C141.274 500.295 141.754 500.188 142.277 500.188ZM150.658 500.202C151.321 500.202 151.899 500.347 152.394 500.636C152.898 500.925 153.271 501.289 153.514 501.728V500.328H154.802V508.168C154.802 508.868 154.653 509.489 154.354 510.03C154.055 510.581 153.626 511.01 153.066 511.318C152.515 511.626 151.871 511.78 151.134 511.78C150.126 511.78 149.286 511.542 148.614 511.066C147.942 510.59 147.545 509.941 147.424 509.12H148.684C148.824 509.587 149.113 509.96 149.552 510.24C149.991 510.529 150.518 510.674 151.134 510.674C151.834 510.674 152.403 510.455 152.842 510.016C153.29 509.577 153.514 508.961 153.514 508.168V506.558C153.262 507.006 152.889 507.379 152.394 507.678C151.899 507.977 151.321 508.126 150.658 508.126C149.977 508.126 149.356 507.958 148.796 507.622C148.245 507.286 147.811 506.815 147.494 506.208C147.177 505.601 147.018 504.911 147.018 504.136C147.018 503.352 147.177 502.666 147.494 502.078C147.811 501.481 148.245 501.019 148.796 500.692C149.356 500.365 149.977 500.202 150.658 500.202ZM153.514 504.15C153.514 503.571 153.397 503.067 153.164 502.638C152.931 502.209 152.613 501.882 152.212 501.658C151.82 501.425 151.386 501.308 150.91 501.308C150.434 501.308 150 501.42 149.608 501.644C149.216 501.868 148.903 502.195 148.67 502.624C148.437 503.053 148.32 503.557 148.32 504.136C148.32 504.724 148.437 505.237 148.67 505.676C148.903 506.105 149.216 506.437 149.608 506.67C150 506.894 150.434 507.006 150.91 507.006C151.386 507.006 151.82 506.894 152.212 506.67C152.613 506.437 152.931 506.105 153.164 505.676C153.397 505.237 153.514 504.729 153.514 504.15Z" fill="white"/>
<rect x="53.5" y="487.5" width="111" height="32" rx="8.5" stroke="white" stroke-opacity="0.47" stroke-dasharray="2 2"/>
<rect x="54" y="530" width="96" height="31" rx="8" fill="#5269AC"/>
<g clip-path="url(#clip4_625_118)">
<path fill-rule="evenodd" clip-rule="evenodd" d="M77.1328 555.927C75.2386 556.024 73.07 556.024 72.333 555.927C66.5843 555.171 62 550.968 62 545.287C62 539.606 66.701 535 72.5 535C78.299 535 83 539.606 83 545.287C83 547.929 81.9831 550.339 80.3118 552.16C79.858 552.655 80.4807 553.002 81.1134 553.355C81.7338 553.7 82.3639 554.052 81.9977 554.553C81.5942 555.105 79.4067 555.811 77.1328 555.927ZM71.0234 544.001C71.0234 544.889 70.2889 545.608 69.3828 545.608C68.4767 545.608 67.7422 544.889 67.7422 544.001C67.7422 543.406 68.0726 542.886 68.5635 542.608C68.5917 543.382 69.2281 544.001 70.0091 544.001H71.0234V544.001ZM76.1084 542.608C76.0801 543.382 75.4437 544.001 74.6628 544.001H73.6484V544.001C73.6484 544.889 74.383 545.608 75.2891 545.608C76.1951 545.608 76.9297 544.889 76.9297 544.001C76.9297 543.406 76.5993 542.886 76.1084 542.608Z" fill="white"/>
</g>
<path d="M108.47 543.07C108.199 542.501 107.807 542.062 107.294 541.754C106.781 541.437 106.183 541.278 105.502 541.278C104.821 541.278 104.205 541.437 103.654 541.754C103.113 542.062 102.683 542.51 102.366 543.098C102.058 543.677 101.904 544.349 101.904 545.114C101.904 545.879 102.058 546.551 102.366 547.13C102.683 547.709 103.113 548.157 103.654 548.474C104.205 548.782 104.821 548.936 105.502 548.936C106.454 548.936 107.238 548.651 107.854 548.082C108.47 547.513 108.829 546.743 108.932 545.772H105.04V544.736H110.29V545.716C110.215 546.519 109.963 547.256 109.534 547.928C109.105 548.591 108.54 549.118 107.84 549.51C107.14 549.893 106.361 550.084 105.502 550.084C104.597 550.084 103.771 549.874 103.024 549.454C102.277 549.025 101.685 548.432 101.246 547.676C100.817 546.92 100.602 546.066 100.602 545.114C100.602 544.162 100.817 543.308 101.246 542.552C101.685 541.787 102.277 541.194 103.024 540.774C103.771 540.345 104.597 540.13 105.502 540.13C106.538 540.13 107.453 540.387 108.246 540.9C109.049 541.413 109.632 542.137 109.996 543.07H108.47ZM115.782 542.188C116.361 542.188 116.884 542.314 117.35 542.566C117.817 542.809 118.181 543.177 118.442 543.672C118.713 544.167 118.848 544.769 118.848 545.478V550H117.588V545.66C117.588 544.895 117.397 544.311 117.014 543.91C116.632 543.499 116.109 543.294 115.446 543.294C114.774 543.294 114.238 543.504 113.836 543.924C113.444 544.344 113.248 544.955 113.248 545.758V550H111.974V539.64H113.248V543.42C113.5 543.028 113.846 542.725 114.284 542.51C114.732 542.295 115.232 542.188 115.782 542.188ZM124.276 550.126C123.557 550.126 122.904 549.963 122.316 549.636C121.737 549.309 121.28 548.847 120.944 548.25C120.617 547.643 120.454 546.943 120.454 546.15C120.454 545.366 120.622 544.675 120.958 544.078C121.303 543.471 121.77 543.009 122.358 542.692C122.946 542.365 123.604 542.202 124.332 542.202C125.06 542.202 125.718 542.365 126.306 542.692C126.894 543.009 127.356 543.467 127.692 544.064C128.037 544.661 128.21 545.357 128.21 546.15C128.21 546.943 128.032 547.643 127.678 548.25C127.332 548.847 126.861 549.309 126.264 549.636C125.666 549.963 125.004 550.126 124.276 550.126ZM124.276 549.006C124.733 549.006 125.162 548.899 125.564 548.684C125.965 548.469 126.287 548.147 126.53 547.718C126.782 547.289 126.908 546.766 126.908 546.15C126.908 545.534 126.786 545.011 126.544 544.582C126.301 544.153 125.984 543.835 125.592 543.63C125.2 543.415 124.775 543.308 124.318 543.308C123.851 543.308 123.422 543.415 123.03 543.63C122.647 543.835 122.339 544.153 122.106 544.582C121.872 545.011 121.756 545.534 121.756 546.15C121.756 546.775 121.868 547.303 122.092 547.732C122.325 548.161 122.633 548.483 123.016 548.698C123.398 548.903 123.818 549.006 124.276 549.006ZM132.601 550.126C132.013 550.126 131.485 550.028 131.019 549.832C130.552 549.627 130.183 549.347 129.913 548.992C129.642 548.628 129.493 548.213 129.465 547.746H130.781C130.818 548.129 130.995 548.441 131.313 548.684C131.639 548.927 132.064 549.048 132.587 549.048C133.072 549.048 133.455 548.941 133.735 548.726C134.015 548.511 134.155 548.241 134.155 547.914C134.155 547.578 134.005 547.331 133.707 547.172C133.408 547.004 132.946 546.841 132.321 546.682C131.751 546.533 131.285 546.383 130.921 546.234C130.566 546.075 130.258 545.847 129.997 545.548C129.745 545.24 129.619 544.839 129.619 544.344C129.619 543.952 129.735 543.593 129.969 543.266C130.202 542.939 130.533 542.683 130.963 542.496C131.392 542.3 131.882 542.202 132.433 542.202C133.282 542.202 133.968 542.417 134.491 542.846C135.013 543.275 135.293 543.863 135.331 544.61H134.057C134.029 544.209 133.865 543.887 133.567 543.644C133.277 543.401 132.885 543.28 132.391 543.28C131.933 543.28 131.569 543.378 131.299 543.574C131.028 543.77 130.893 544.027 130.893 544.344C130.893 544.596 130.972 544.806 131.131 544.974C131.299 545.133 131.504 545.263 131.747 545.366C131.999 545.459 132.344 545.567 132.783 545.688C133.333 545.837 133.781 545.987 134.127 546.136C134.472 546.276 134.766 546.491 135.009 546.78C135.261 547.069 135.391 547.447 135.401 547.914C135.401 548.334 135.284 548.712 135.051 549.048C134.817 549.384 134.486 549.65 134.057 549.846C133.637 550.033 133.151 550.126 132.601 550.126ZM138.753 543.378V547.9C138.753 548.273 138.832 548.539 138.991 548.698C139.15 548.847 139.425 548.922 139.817 548.922H140.755V550H139.607C138.898 550 138.366 549.837 138.011 549.51C137.656 549.183 137.479 548.647 137.479 547.9V543.378H136.485V542.328H137.479V540.396H138.753V542.328H140.755V543.378H138.753Z" fill="white"/>
<rect x="53.5" y="529.5" width="97" height="32" rx="8.5" stroke="white" stroke-opacity="0.47" stroke-dasharray="2 2"/>
<rect x="54" y="572" width="107" height="31" rx="8" fill="#D97745"/>
<g clip-path="url(#clip5_625_118)">
<path fill-rule="evenodd" clip-rule="evenodd" d="M66.6251 595.037C66.6194 595.037 66.6154 595.031 66.6173 595.026L71.9787 579.877C71.9798 579.873 71.983 579.871 71.9864 579.871H77.7098C77.7133 579.871 77.7165 579.873 77.7176 579.877L82.9995 595.026C83.0013 595.031 82.9973 595.037 82.9917 595.037H66.7862H66.6251ZM62.0083 595.096C62.0025 595.096 61.9985 595.09 62.0005 595.085L65.993 584.426C65.9942 584.423 65.9973 584.421 66.0007 584.421H69.4697C69.4754 584.421 69.4794 584.426 69.4774 584.432L65.6169 595.091C65.6157 595.094 65.6126 595.096 65.6091 595.096H62.0083Z" fill="white"/>
</g>
<path d="M108.47 585.07C108.199 584.501 107.807 584.062 107.294 583.754C106.781 583.437 106.183 583.278 105.502 583.278C104.821 583.278 104.205 583.437 103.654 583.754C103.113 584.062 102.683 584.51 102.366 585.098C102.058 585.677 101.904 586.349 101.904 587.114C101.904 587.879 102.058 588.551 102.366 589.13C102.683 589.709 103.113 590.157 103.654 590.474C104.205 590.782 104.821 590.936 105.502 590.936C106.454 590.936 107.238 590.651 107.854 590.082C108.47 589.513 108.829 588.743 108.932 587.772H105.04V586.736H110.29V587.716C110.215 588.519 109.963 589.256 109.534 589.928C109.105 590.591 108.54 591.118 107.84 591.51C107.14 591.893 106.361 592.084 105.502 592.084C104.597 592.084 103.771 591.874 103.024 591.454C102.277 591.025 101.685 590.432 101.246 589.676C100.817 588.92 100.602 588.066 100.602 587.114C100.602 586.162 100.817 585.308 101.246 584.552C101.685 583.787 102.277 583.194 103.024 582.774C103.771 582.345 104.597 582.13 105.502 582.13C106.538 582.13 107.453 582.387 108.246 582.9C109.049 583.413 109.632 584.137 109.996 585.07H108.47ZM113.248 585.574C113.472 585.135 113.79 584.795 114.2 584.552C114.62 584.309 115.129 584.188 115.726 584.188V585.504H115.39C113.962 585.504 113.248 586.279 113.248 587.828V592H111.974V584.328H113.248V585.574ZM120.543 592.126C119.824 592.126 119.171 591.963 118.583 591.636C118.004 591.309 117.547 590.847 117.211 590.25C116.884 589.643 116.721 588.943 116.721 588.15C116.721 587.366 116.889 586.675 117.225 586.078C117.57 585.471 118.037 585.009 118.625 584.692C119.213 584.365 119.871 584.202 120.599 584.202C121.327 584.202 121.985 584.365 122.573 584.692C123.161 585.009 123.623 585.467 123.959 586.064C124.304 586.661 124.477 587.357 124.477 588.15C124.477 588.943 124.3 589.643 123.945 590.25C123.6 590.847 123.128 591.309 122.531 591.636C121.934 591.963 121.271 592.126 120.543 592.126ZM120.543 591.006C121 591.006 121.43 590.899 121.831 590.684C122.232 590.469 122.554 590.147 122.797 589.718C123.049 589.289 123.175 588.766 123.175 588.15C123.175 587.534 123.054 587.011 122.811 586.582C122.568 586.153 122.251 585.835 121.859 585.63C121.467 585.415 121.042 585.308 120.585 585.308C120.118 585.308 119.689 585.415 119.297 585.63C118.914 585.835 118.606 586.153 118.373 586.582C118.14 587.011 118.023 587.534 118.023 588.15C118.023 588.775 118.135 589.303 118.359 589.732C118.592 590.161 118.9 590.483 119.283 590.698C119.666 590.903 120.086 591.006 120.543 591.006ZM132.956 584.328V592H131.682V590.866C131.44 591.258 131.099 591.566 130.66 591.79C130.231 592.005 129.755 592.112 129.232 592.112C128.635 592.112 128.098 591.991 127.622 591.748C127.146 591.496 126.768 591.123 126.488 590.628C126.218 590.133 126.082 589.531 126.082 588.822V584.328H127.342V588.654C127.342 589.41 127.534 589.993 127.916 590.404C128.299 590.805 128.822 591.006 129.484 591.006C130.166 591.006 130.702 590.796 131.094 590.376C131.486 589.956 131.682 589.345 131.682 588.542V584.328H132.956ZM138.845 584.188C139.779 584.188 140.535 584.473 141.113 585.042C141.692 585.602 141.981 586.414 141.981 587.478V592H140.721V587.66C140.721 586.895 140.53 586.311 140.147 585.91C139.765 585.499 139.242 585.294 138.579 585.294C137.907 585.294 137.371 585.504 136.969 585.924C136.577 586.344 136.381 586.955 136.381 587.758V592H135.107V584.328H136.381V585.42C136.633 585.028 136.974 584.725 137.403 584.51C137.842 584.295 138.323 584.188 138.845 584.188ZM143.586 588.136C143.586 587.352 143.745 586.666 144.062 586.078C144.38 585.481 144.814 585.019 145.364 584.692C145.924 584.365 146.55 584.202 147.24 584.202C147.838 584.202 148.393 584.342 148.906 584.622C149.42 584.893 149.812 585.252 150.082 585.7V581.64H151.37V592H150.082V590.558C149.83 591.015 149.457 591.393 148.962 591.692C148.468 591.981 147.889 592.126 147.226 592.126C146.545 592.126 145.924 591.958 145.364 591.622C144.814 591.286 144.38 590.815 144.062 590.208C143.745 589.601 143.586 588.911 143.586 588.136ZM150.082 588.15C150.082 587.571 149.966 587.067 149.732 586.638C149.499 586.209 149.182 585.882 148.78 585.658C148.388 585.425 147.954 585.308 147.478 585.308C147.002 585.308 146.568 585.42 146.176 585.644C145.784 585.868 145.472 586.195 145.238 586.624C145.005 587.053 144.888 587.557 144.888 588.136C144.888 588.724 145.005 589.237 145.238 589.676C145.472 590.105 145.784 590.437 146.176 590.67C146.568 590.894 147.002 591.006 147.478 591.006C147.954 591.006 148.388 590.894 148.78 590.67C149.182 590.437 149.499 590.105 149.732 589.676C149.966 589.237 150.082 588.729 150.082 588.15Z" fill="white"/>
<rect x="53.5" y="571.5" width="108" height="32" rx="8.5" stroke="white" stroke-opacity="0.47" stroke-dasharray="2 2"/>
<rect x="54" y="614" width="75" height="31" rx="8" fill="#74CEC0"/>
<path fill-rule="evenodd" clip-rule="evenodd" d="M77.7624 620.601L77.827 626.276L72.8777 628.652L72.8167 623.294L77.7624 620.601Z" fill="white"/>
<path fill-rule="evenodd" clip-rule="evenodd" d="M82.724 629.543L77.8244 632.345L72.922 629.539L77.8219 626.965L82.724 629.543Z" fill="white"/>
<path fill-rule="evenodd" clip-rule="evenodd" d="M72.0505 629.543L67.151 632.345L62.2485 629.539L67.1484 626.965L72.0505 629.543Z" fill="white"/>
<path fill-rule="evenodd" clip-rule="evenodd" d="M67.0959 620.578L72.1813 623.097L72.0513 628.585L67.2498 626.207L67.0959 620.578Z" fill="white"/>
<path fill-rule="evenodd" clip-rule="evenodd" d="M77.9009 638.422L72.8156 635.903L72.9456 630.415L77.7471 632.793L77.9009 638.422Z" fill="white"/>
<path fill-rule="evenodd" clip-rule="evenodd" d="M67.2715 638.473L67.2069 632.798L72.1563 630.423L72.2173 635.78L67.2715 638.473Z" fill="white"/>
<path d="M102.352 624.242V634H101.078V624.242H102.352ZM104.047 630.15C104.047 629.357 104.206 628.666 104.523 628.078C104.841 627.481 105.279 627.019 105.839 626.692C106.409 626.365 107.057 626.202 107.785 626.202C108.728 626.202 109.503 626.431 110.109 626.888C110.725 627.345 111.131 627.98 111.327 628.792H109.955C109.825 628.325 109.568 627.957 109.185 627.686C108.812 627.415 108.345 627.28 107.785 627.28C107.057 627.28 106.469 627.532 106.021 628.036C105.573 628.531 105.349 629.235 105.349 630.15C105.349 631.074 105.573 631.788 106.021 632.292C106.469 632.796 107.057 633.048 107.785 633.048C108.345 633.048 108.812 632.917 109.185 632.656C109.559 632.395 109.815 632.021 109.955 631.536H111.327C111.122 632.32 110.711 632.95 110.095 633.426C109.479 633.893 108.709 634.126 107.785 634.126C107.057 634.126 106.409 633.963 105.839 633.636C105.279 633.309 104.841 632.847 104.523 632.25C104.206 631.653 104.047 630.953 104.047 630.15ZM120.027 629.87C120.027 630.113 120.013 630.369 119.985 630.64H113.853C113.9 631.396 114.157 631.989 114.623 632.418C115.099 632.838 115.673 633.048 116.345 633.048C116.896 633.048 117.353 632.922 117.717 632.67C118.091 632.409 118.352 632.063 118.501 631.634H119.873C119.668 632.371 119.257 632.973 118.641 633.44C118.025 633.897 117.26 634.126 116.345 634.126C115.617 634.126 114.964 633.963 114.385 633.636C113.816 633.309 113.368 632.847 113.041 632.25C112.715 631.643 112.551 630.943 112.551 630.15C112.551 629.357 112.71 628.661 113.027 628.064C113.345 627.467 113.788 627.009 114.357 626.692C114.936 626.365 115.599 626.202 116.345 626.202C117.073 626.202 117.717 626.361 118.277 626.678C118.837 626.995 119.267 627.434 119.565 627.994C119.873 628.545 120.027 629.17 120.027 629.87ZM118.711 629.604C118.711 629.119 118.604 628.703 118.389 628.358C118.175 628.003 117.881 627.737 117.507 627.56C117.143 627.373 116.737 627.28 116.289 627.28C115.645 627.28 115.095 627.485 114.637 627.896C114.189 628.307 113.933 628.876 113.867 629.604H118.711Z" fill="white"/>
<rect x="53.5" y="613.5" width="76" height="32" rx="8.5" stroke="white" stroke-opacity="0.47" stroke-dasharray="2 2"/>
<rect x="54" y="656" width="107" height="31" rx="8" fill="#F67176"/>
<g clip-path="url(#clip6_625_118)">
<path fill-rule="evenodd" clip-rule="evenodd" d="M80.7 678.439C80.7 678.439 78.0521 680.563 72.7827 679.684C68.7849 679.017 66.6527 674.61 66.6527 672.242C66.6527 666.625 70.8095 665.347 73.6197 665.347C76.43 665.347 78.2632 668.087 78.2632 670.208C78.2632 672.33 76.7629 674.185 74.428 674.185C72.0931 674.185 71.4016 672.546 71.4016 671.039C71.4016 669.532 72.6209 669.001 73.7328 669.001C74.8448 669.001 75.2256 669.95 75.2256 670.766C75.2256 671.582 74.5925 671.874 74.0645 671.874C73.5364 671.874 73.4842 671.608 73.2821 671.328C73.08 671.048 73.5399 669.988 72.7827 669.988C72.0256 669.988 71.8844 671.207 71.8844 671.207C71.8844 671.207 72.1605 673.558 74.428 673.518C76.6955 673.477 77.7712 671.724 77.4586 669.988C77.146 668.253 75.4616 666.409 72.5055 666.781C69.5493 667.154 68.3423 670.141 68.8743 673.333C69.4064 676.525 73.2304 678.374 76.237 677.709C79.2437 677.044 82.2383 674.867 82.2383 669.348C82.2383 663.829 77.4586 660.512 71.7593 661.059C66.06 661.605 62.5221 666.588 62.7485 672.575C62.975 678.562 68.6558 681.822 73.4595 681.99C78.2632 682.158 81.2081 679.378 81.2081 679.378C81.2081 679.378 81.8704 678.787 81.6107 678.326C81.3511 677.865 80.7 678.439 80.7 678.439Z" fill="white"/>
</g>
<path d="M107.602 669.098C107.602 669.91 107.322 670.587 106.762 671.128C106.211 671.66 105.367 671.926 104.228 671.926H102.352V676H101.078V666.242H104.228C105.329 666.242 106.165 666.508 106.734 667.04C107.313 667.572 107.602 668.258 107.602 669.098ZM104.228 670.876C104.937 670.876 105.46 670.722 105.796 670.414C106.132 670.106 106.3 669.667 106.3 669.098C106.3 667.894 105.609 667.292 104.228 667.292H102.352V670.876H104.228ZM111.901 676.126C111.313 676.126 110.786 676.028 110.319 675.832C109.853 675.627 109.484 675.347 109.213 674.992C108.943 674.628 108.793 674.213 108.765 673.746H110.081C110.119 674.129 110.296 674.441 110.613 674.684C110.94 674.927 111.365 675.048 111.887 675.048C112.373 675.048 112.755 674.941 113.035 674.726C113.315 674.511 113.455 674.241 113.455 673.914C113.455 673.578 113.306 673.331 113.007 673.172C112.709 673.004 112.247 672.841 111.621 672.682C111.052 672.533 110.585 672.383 110.221 672.234C109.867 672.075 109.559 671.847 109.297 671.548C109.045 671.24 108.919 670.839 108.919 670.344C108.919 669.952 109.036 669.593 109.269 669.266C109.503 668.939 109.834 668.683 110.263 668.496C110.693 668.3 111.183 668.202 111.733 668.202C112.583 668.202 113.269 668.417 113.791 668.846C114.314 669.275 114.594 669.863 114.631 670.61H113.357C113.329 670.209 113.166 669.887 112.867 669.644C112.578 669.401 112.186 669.28 111.691 669.28C111.234 669.28 110.87 669.378 110.599 669.574C110.329 669.77 110.193 670.027 110.193 670.344C110.193 670.596 110.273 670.806 110.431 670.974C110.599 671.133 110.805 671.263 111.047 671.366C111.299 671.459 111.645 671.567 112.083 671.688C112.634 671.837 113.082 671.987 113.427 672.136C113.773 672.276 114.067 672.491 114.309 672.78C114.561 673.069 114.692 673.447 114.701 673.914C114.701 674.334 114.585 674.712 114.351 675.048C114.118 675.384 113.787 675.65 113.357 675.846C112.937 676.033 112.452 676.126 111.901 676.126ZM123.108 668.328L118.488 679.612H117.172L118.684 675.916L115.59 668.328H117.004L119.412 674.544L121.792 668.328H123.108ZM123.913 672.15C123.913 671.357 124.071 670.666 124.389 670.078C124.706 669.481 125.145 669.019 125.705 668.692C126.274 668.365 126.923 668.202 127.651 668.202C128.593 668.202 129.368 668.431 129.975 668.888C130.591 669.345 130.997 669.98 131.193 670.792H129.821C129.69 670.325 129.433 669.957 129.051 669.686C128.677 669.415 128.211 669.28 127.651 669.28C126.923 669.28 126.335 669.532 125.887 670.036C125.439 670.531 125.215 671.235 125.215 672.15C125.215 673.074 125.439 673.788 125.887 674.292C126.335 674.796 126.923 675.048 127.651 675.048C128.211 675.048 128.677 674.917 129.051 674.656C129.424 674.395 129.681 674.021 129.821 673.536H131.193C130.987 674.32 130.577 674.95 129.961 675.426C129.345 675.893 128.575 676.126 127.651 676.126C126.923 676.126 126.274 675.963 125.705 675.636C125.145 675.309 124.706 674.847 124.389 674.25C124.071 673.653 123.913 672.953 123.913 672.15ZM136.7 668.188C137.279 668.188 137.802 668.314 138.268 668.566C138.735 668.809 139.099 669.177 139.36 669.672C139.631 670.167 139.766 670.769 139.766 671.478V676H138.506V671.66C138.506 670.895 138.315 670.311 137.932 669.91C137.55 669.499 137.027 669.294 136.364 669.294C135.692 669.294 135.156 669.504 134.754 669.924C134.362 670.344 134.166 670.955 134.166 671.758V676H132.892V665.64H134.166V669.42C134.418 669.028 134.764 668.725 135.202 668.51C135.65 668.295 136.15 668.188 136.7 668.188ZM142.506 667.082C142.263 667.082 142.058 666.998 141.89 666.83C141.722 666.662 141.638 666.457 141.638 666.214C141.638 665.971 141.722 665.766 141.89 665.598C142.058 665.43 142.263 665.346 142.506 665.346C142.739 665.346 142.935 665.43 143.094 665.598C143.262 665.766 143.346 665.971 143.346 666.214C143.346 666.457 143.262 666.662 143.094 666.83C142.935 666.998 142.739 667.082 142.506 667.082ZM143.122 668.328V676H141.848V668.328H143.122ZM144.817 672.15C144.817 671.357 144.976 670.666 145.293 670.078C145.61 669.481 146.049 669.019 146.609 668.692C147.178 668.365 147.827 668.202 148.555 668.202C149.498 668.202 150.272 668.431 150.879 668.888C151.495 669.345 151.901 669.98 152.097 670.792H150.725C150.594 670.325 150.338 669.957 149.955 669.686C149.582 669.415 149.115 669.28 148.555 669.28C147.827 669.28 147.239 669.532 146.791 670.036C146.343 670.531 146.119 671.235 146.119 672.15C146.119 673.074 146.343 673.788 146.791 674.292C147.239 674.796 147.827 675.048 148.555 675.048C149.115 675.048 149.582 674.917 149.955 674.656C150.328 674.395 150.585 674.021 150.725 673.536H152.097C151.892 674.32 151.481 674.95 150.865 675.426C150.249 675.893 149.479 676.126 148.555 676.126C147.827 676.126 147.178 675.963 146.609 675.636C146.049 675.309 145.61 674.847 145.293 674.25C144.976 673.653 144.817 672.953 144.817 672.15Z" fill="white"/>
<rect x="53.5" y="655.5" width="108" height="32" rx="8.5" stroke="white" stroke-opacity="0.47" stroke-dasharray="2 2"/>
<rect x="54" y="698" width="88" height="31" rx="8" fill="#C7B78B"/>
<g clip-path="url(#clip7_625_118)">
<path fill-rule="evenodd" clip-rule="evenodd" d="M78.2068 713.039C78.2056 713.037 78.2052 713.035 78.2055 713.033L79.5452 705.221C79.5458 705.217 79.549 705.215 79.5526 705.215H79.9766C79.9799 705.215 79.9828 705.217 79.9838 705.22L83.0021 714.777C83.003 714.78 83.002 714.783 82.9995 714.785L80.7741 716.523C80.7708 716.525 80.766 716.524 80.7635 716.521L78.2068 713.039ZM61.959 718.218C61.959 718.221 61.9611 718.224 61.9641 718.225L66.5517 719.725C66.5539 719.726 66.5564 719.725 66.5583 719.724L76.8126 712.645C76.8143 712.643 76.8155 712.642 76.8157 712.639L77.9154 705.261C77.9161 705.257 77.9125 705.253 77.908 705.253H68.8252C68.823 705.253 68.8209 705.254 68.8195 705.255L61.9607 713.529C61.9596 713.531 61.959 713.532 61.959 713.534V718.218ZM68.4634 720.107L73.4752 721.749C73.4774 721.749 73.4799 721.749 73.4819 721.748L79.4488 717.468C79.4521 717.465 79.4529 717.461 79.4507 717.457L77.2138 714.129C77.2115 714.125 77.2068 714.124 77.2034 714.127L68.4634 720.107Z" fill="white"/>
</g>
<path d="M106.216 718L103.892 714.01H102.352V718H101.078V708.242H104.228C104.965 708.242 105.586 708.368 106.09 708.62C106.603 708.872 106.986 709.213 107.238 709.642C107.49 710.071 107.616 710.561 107.616 711.112C107.616 711.784 107.42 712.377 107.028 712.89C106.645 713.403 106.067 713.744 105.292 713.912L107.742 718H106.216ZM102.352 712.988H104.228C104.919 712.988 105.437 712.82 105.782 712.484C106.127 712.139 106.3 711.681 106.3 711.112C106.3 710.533 106.127 710.085 105.782 709.768C105.446 709.451 104.928 709.292 104.228 709.292H102.352V712.988ZM112.942 718.126C112.223 718.126 111.57 717.963 110.982 717.636C110.403 717.309 109.946 716.847 109.61 716.25C109.283 715.643 109.12 714.943 109.12 714.15C109.12 713.366 109.288 712.675 109.624 712.078C109.969 711.471 110.436 711.009 111.024 710.692C111.612 710.365 112.27 710.202 112.998 710.202C113.726 710.202 114.384 710.365 114.972 710.692C115.56 711.009 116.022 711.467 116.358 712.064C116.703 712.661 116.876 713.357 116.876 714.15C116.876 714.943 116.698 715.643 116.344 716.25C115.998 716.847 115.527 717.309 114.93 717.636C114.332 717.963 113.67 718.126 112.942 718.126ZM112.942 717.006C113.399 717.006 113.828 716.899 114.23 716.684C114.631 716.469 114.953 716.147 115.196 715.718C115.448 715.289 115.574 714.766 115.574 714.15C115.574 713.534 115.452 713.011 115.21 712.582C114.967 712.153 114.65 711.835 114.258 711.63C113.866 711.415 113.441 711.308 112.984 711.308C112.517 711.308 112.088 711.415 111.696 711.63C111.313 711.835 111.005 712.153 110.772 712.582C110.538 713.011 110.422 713.534 110.422 714.15C110.422 714.775 110.534 715.303 110.758 715.732C110.991 716.161 111.299 716.483 111.682 716.698C112.064 716.903 112.484 717.006 112.942 717.006ZM118.075 714.15C118.075 713.357 118.233 712.666 118.551 712.078C118.868 711.481 119.307 711.019 119.867 710.692C120.436 710.365 121.085 710.202 121.813 710.202C122.755 710.202 123.53 710.431 124.137 710.888C124.753 711.345 125.159 711.98 125.355 712.792H123.983C123.852 712.325 123.595 711.957 123.213 711.686C122.839 711.415 122.373 711.28 121.813 711.28C121.085 711.28 120.497 711.532 120.049 712.036C119.601 712.531 119.377 713.235 119.377 714.15C119.377 715.074 119.601 715.788 120.049 716.292C120.497 716.796 121.085 717.048 121.813 717.048C122.373 717.048 122.839 716.917 123.213 716.656C123.586 716.395 123.843 716.021 123.983 715.536H125.355C125.149 716.32 124.739 716.95 124.123 717.426C123.507 717.893 122.737 718.126 121.813 718.126C121.085 718.126 120.436 717.963 119.867 717.636C119.307 717.309 118.868 716.847 118.551 716.25C118.233 715.653 118.075 714.953 118.075 714.15ZM131.339 718L128.329 714.612V718H127.055V707.64H128.329V713.73L131.283 710.328H133.061L129.449 714.15L133.075 718H131.339Z" fill="white"/>
<rect x="53.5" y="697.5" width="89" height="32" rx="8.5" stroke="white" stroke-opacity="0.47" stroke-dasharray="2 2"/>
<rect x="54" y="740" width="89" height="31" rx="8" fill="#BBBBBB"/>
<path fill-rule="evenodd" clip-rule="evenodd" d="M62.0021 755.44C61.9993 755.435 61.9993 755.429 62.0021 755.424L67.2826 746.402C67.2854 746.397 67.2904 746.395 67.2958 746.395H77.7621C77.7675 746.395 77.7726 746.397 77.7753 746.402L82.9979 755.424C83.0007 755.429 83.0007 755.435 82.9979 755.44L77.7753 764.451C77.7726 764.456 77.7675 764.459 77.7621 764.459H67.2958C67.2904 764.459 67.2854 764.456 67.2826 764.451L62.0021 755.44ZM77.3652 755.427C77.3652 758.113 75.1877 760.29 72.5016 760.29C69.8156 760.29 67.6381 758.113 67.6381 755.427C67.6381 752.741 69.8156 750.563 72.5016 750.563C75.1877 750.563 77.3652 752.741 77.3652 755.427Z" fill="white"/>
<path d="M104.172 760.098C103.528 760.098 102.949 759.986 102.436 759.762C101.932 759.529 101.535 759.211 101.246 758.81C100.957 758.399 100.807 757.928 100.798 757.396H102.156C102.203 757.853 102.389 758.241 102.716 758.558C103.052 758.866 103.537 759.02 104.172 759.02C104.779 759.02 105.255 758.871 105.6 758.572C105.955 758.264 106.132 757.872 106.132 757.396C106.132 757.023 106.029 756.719 105.824 756.486C105.619 756.253 105.362 756.075 105.054 755.954C104.746 755.833 104.331 755.702 103.808 755.562C103.164 755.394 102.646 755.226 102.254 755.058C101.871 754.89 101.54 754.629 101.26 754.274C100.989 753.91 100.854 753.425 100.854 752.818C100.854 752.286 100.989 751.815 101.26 751.404C101.531 750.993 101.909 750.676 102.394 750.452C102.889 750.228 103.453 750.116 104.088 750.116C105.003 750.116 105.749 750.345 106.328 750.802C106.916 751.259 107.247 751.866 107.322 752.622H105.922C105.875 752.249 105.679 751.922 105.334 751.642C104.989 751.353 104.531 751.208 103.962 751.208C103.43 751.208 102.996 751.348 102.66 751.628C102.324 751.899 102.156 752.281 102.156 752.776C102.156 753.131 102.254 753.42 102.45 753.644C102.655 753.868 102.903 754.041 103.192 754.162C103.491 754.274 103.906 754.405 104.438 754.554C105.082 754.731 105.6 754.909 105.992 755.086C106.384 755.254 106.72 755.52 107 755.884C107.28 756.239 107.42 756.724 107.42 757.34C107.42 757.816 107.294 758.264 107.042 758.684C106.79 759.104 106.417 759.445 105.922 759.706C105.427 759.967 104.844 760.098 104.172 760.098ZM110.849 753.378V757.9C110.849 758.273 110.928 758.539 111.087 758.698C111.245 758.847 111.521 758.922 111.913 758.922H112.851V760H111.703C110.993 760 110.461 759.837 110.107 759.51C109.752 759.183 109.575 758.647 109.575 757.9V753.378H108.581V752.328H109.575V750.396H110.849V752.328H112.851V753.378H110.849ZM121.394 755.87C121.394 756.113 121.38 756.369 121.352 756.64H115.22C115.267 757.396 115.524 757.989 115.99 758.418C116.466 758.838 117.04 759.048 117.712 759.048C118.263 759.048 118.72 758.922 119.084 758.67C119.458 758.409 119.719 758.063 119.868 757.634H121.24C121.035 758.371 120.624 758.973 120.008 759.44C119.392 759.897 118.627 760.126 117.712 760.126C116.984 760.126 116.331 759.963 115.752 759.636C115.183 759.309 114.735 758.847 114.408 758.25C114.082 757.643 113.918 756.943 113.918 756.15C113.918 755.357 114.077 754.661 114.394 754.064C114.712 753.467 115.155 753.009 115.724 752.692C116.303 752.365 116.966 752.202 117.712 752.202C118.44 752.202 119.084 752.361 119.644 752.678C120.204 752.995 120.634 753.434 120.932 753.994C121.24 754.545 121.394 755.17 121.394 755.87ZM120.078 755.604C120.078 755.119 119.971 754.703 119.756 754.358C119.542 754.003 119.248 753.737 118.874 753.56C118.51 753.373 118.104 753.28 117.656 753.28C117.012 753.28 116.462 753.485 116.004 753.896C115.556 754.307 115.3 754.876 115.234 755.604H120.078ZM130.076 755.87C130.076 756.113 130.062 756.369 130.034 756.64H123.902C123.949 757.396 124.205 757.989 124.672 758.418C125.148 758.838 125.722 759.048 126.394 759.048C126.945 759.048 127.402 758.922 127.766 758.67C128.139 758.409 128.401 758.063 128.55 757.634H129.922C129.717 758.371 129.306 758.973 128.69 759.44C128.074 759.897 127.309 760.126 126.394 760.126C125.666 760.126 125.013 759.963 124.434 759.636C123.865 759.309 123.417 758.847 123.09 758.25C122.763 757.643 122.6 756.943 122.6 756.15C122.6 755.357 122.759 754.661 123.076 754.064C123.393 753.467 123.837 753.009 124.406 752.692C124.985 752.365 125.647 752.202 126.394 752.202C127.122 752.202 127.766 752.361 128.326 752.678C128.886 752.995 129.315 753.434 129.614 753.994C129.922 754.545 130.076 755.17 130.076 755.87ZM128.76 755.604C128.76 755.119 128.653 754.703 128.438 754.358C128.223 754.003 127.929 753.737 127.556 753.56C127.192 753.373 126.786 753.28 126.338 753.28C125.694 753.28 125.143 753.485 124.686 753.896C124.238 754.307 123.981 754.876 123.916 755.604H128.76ZM133.032 749.64V760H131.758V749.64H133.032Z" fill="white"/>
<rect x="53.5" y="739.5" width="90" height="32" rx="8.5" stroke="white" stroke-opacity="0.47" stroke-dasharray="2 2"/>
<rect x="54" y="68" width="91" height="31" rx="8" fill="#70B873"/>
<path fill-rule="evenodd" clip-rule="evenodd" d="M64.7288 89.5744C64.6633 89.5107 64.5985 89.4458 64.5345 89.3796C61.1552 85.8859 61.1552 80.2213 64.5345 76.7275C67.9139 73.2337 78.6819 73 78.6819 73C78.6819 73 80.1517 85.8859 76.7724 89.3796C73.771 92.4826 69.1135 92.8297 65.7417 90.4211L68.4586 86.974L72.8019 86.0046L69.2565 85.6381L71.5096 83.2664L74.0744 82.6855L72.0463 82.0645L74.0744 78.2821L71.1897 81.6273L70.0757 80.0022L70.4678 82.6855L68.4586 85.0272L67.5272 82.0645V86.0046L64.7288 89.5744Z" fill="white"/>
<path d="M104.47 81.07C104.199 80.5007 103.807 80.062 103.294 79.754C102.781 79.4367 102.183 79.278 101.502 79.278C100.821 79.278 100.205 79.4367 99.654 79.754C99.1127 80.062 98.6833 80.51 98.366 81.098C98.058 81.6767 97.904 82.3487 97.904 83.114C97.904 83.8793 98.058 84.5513 98.366 85.13C98.6833 85.7087 99.1127 86.1567 99.654 86.474C100.205 86.782 100.821 86.936 101.502 86.936C102.454 86.936 103.238 86.6513 103.854 86.082C104.47 85.5127 104.829 84.7427 104.932 83.772H101.04V82.736H106.29V83.716C106.215 84.5187 105.963 85.256 105.534 85.928C105.105 86.5907 104.54 87.118 103.84 87.51C103.14 87.8927 102.361 88.084 101.502 88.084C100.597 88.084 99.7707 87.874 99.024 87.454C98.2773 87.0247 97.6847 86.432 97.246 85.676C96.8167 84.92 96.602 84.066 96.602 83.114C96.602 82.162 96.8167 81.308 97.246 80.552C97.6847 79.7867 98.2773 79.194 99.024 78.774C99.7707 78.3447 100.597 78.13 101.502 78.13C102.538 78.13 103.453 78.3867 104.246 78.9C105.049 79.4133 105.632 80.1367 105.996 81.07H104.47ZM109.248 81.574C109.472 81.1353 109.79 80.7947 110.2 80.552C110.62 80.3093 111.129 80.188 111.726 80.188V81.504H111.39C109.962 81.504 109.248 82.2787 109.248 83.828V88H107.974V80.328H109.248V81.574ZM112.721 84.136C112.721 83.352 112.88 82.666 113.197 82.078C113.514 81.4807 113.948 81.0187 114.499 80.692C115.059 80.3653 115.68 80.202 116.361 80.202C117.033 80.202 117.616 80.3467 118.111 80.636C118.606 80.9253 118.974 81.2893 119.217 81.728V80.328H120.505V88H119.217V86.572C118.965 87.02 118.587 87.3933 118.083 87.692C117.588 87.9813 117.01 88.126 116.347 88.126C115.666 88.126 115.05 87.958 114.499 87.622C113.948 87.286 113.514 86.8147 113.197 86.208C112.88 85.6013 112.721 84.9107 112.721 84.136ZM119.217 84.15C119.217 83.5713 119.1 83.0673 118.867 82.638C118.634 82.2087 118.316 81.882 117.915 81.658C117.523 81.4247 117.089 81.308 116.613 81.308C116.137 81.308 115.703 81.42 115.311 81.644C114.919 81.868 114.606 82.1947 114.373 82.624C114.14 83.0533 114.023 83.5573 114.023 84.136C114.023 84.724 114.14 85.2373 114.373 85.676C114.606 86.1053 114.919 86.4367 115.311 86.67C115.703 86.894 116.137 87.006 116.613 87.006C117.089 87.006 117.523 86.894 117.915 86.67C118.316 86.4367 118.634 86.1053 118.867 85.676C119.1 85.2373 119.217 84.7287 119.217 84.15ZM125.374 88.126C124.786 88.126 124.259 88.028 123.792 87.832C123.325 87.6267 122.957 87.3467 122.686 86.992C122.415 86.628 122.266 86.2127 122.238 85.746H123.554C123.591 86.1287 123.769 86.4413 124.086 86.684C124.413 86.9267 124.837 87.048 125.36 87.048C125.845 87.048 126.228 86.9407 126.508 86.726C126.788 86.5113 126.928 86.2407 126.928 85.914C126.928 85.578 126.779 85.3307 126.48 85.172C126.181 85.004 125.719 84.8407 125.094 84.682C124.525 84.5327 124.058 84.3833 123.694 84.234C123.339 84.0753 123.031 83.8467 122.77 83.548C122.518 83.24 122.392 82.8387 122.392 82.344C122.392 81.952 122.509 81.5927 122.742 81.266C122.975 80.9393 123.307 80.6827 123.736 80.496C124.165 80.3 124.655 80.202 125.206 80.202C126.055 80.202 126.741 80.4167 127.264 80.846C127.787 81.2753 128.067 81.8633 128.104 82.61H126.83C126.802 82.2087 126.639 81.8867 126.34 81.644C126.051 81.4013 125.659 81.28 125.164 81.28C124.707 81.28 124.343 81.378 124.072 81.574C123.801 81.77 123.666 82.0267 123.666 82.344C123.666 82.596 123.745 82.806 123.904 82.974C124.072 83.1327 124.277 83.2633 124.52 83.366C124.772 83.4593 125.117 83.5667 125.556 83.688C126.107 83.8373 126.555 83.9867 126.9 84.136C127.245 84.276 127.539 84.4907 127.782 84.78C128.034 85.0693 128.165 85.4473 128.174 85.914C128.174 86.334 128.057 86.712 127.824 87.048C127.591 87.384 127.259 87.65 126.83 87.846C126.41 88.0327 125.925 88.126 125.374 88.126ZM132.689 88.126C132.101 88.126 131.573 88.028 131.107 87.832C130.64 87.6267 130.271 87.3467 130.001 86.992C129.73 86.628 129.581 86.2127 129.553 85.746H130.869C130.906 86.1287 131.083 86.4413 131.401 86.684C131.727 86.9267 132.152 87.048 132.675 87.048C133.16 87.048 133.543 86.9407 133.823 86.726C134.103 86.5113 134.243 86.2407 134.243 85.914C134.243 85.578 134.093 85.3307 133.795 85.172C133.496 85.004 133.034 84.8407 132.409 84.682C131.839 84.5327 131.373 84.3833 131.009 84.234C130.654 84.0753 130.346 83.8467 130.085 83.548C129.833 83.24 129.707 82.8387 129.707 82.344C129.707 81.952 129.823 81.5927 130.057 81.266C130.29 80.9393 130.621 80.6827 131.051 80.496C131.48 80.3 131.97 80.202 132.521 80.202C133.37 80.202 134.056 80.4167 134.579 80.846C135.101 81.2753 135.381 81.8633 135.419 82.61H134.145C134.117 82.2087 133.953 81.8867 133.655 81.644C133.365 81.4013 132.973 81.28 132.479 81.28C132.021 81.28 131.657 81.378 131.387 81.574C131.116 81.77 130.981 82.0267 130.981 82.344C130.981 82.596 131.06 82.806 131.219 82.974C131.387 83.1327 131.592 83.2633 131.835 83.366C132.087 83.4593 132.432 83.5667 132.871 83.688C133.421 83.8373 133.869 83.9867 134.215 84.136C134.56 84.276 134.854 84.4907 135.097 84.78C135.349 85.0693 135.479 85.4473 135.489 85.914C135.489 86.334 135.372 86.712 135.139 87.048C134.905 87.384 134.574 87.65 134.145 87.846C133.725 88.0327 133.239 88.126 132.689 88.126Z" fill="white"/>
<rect x="53.5" y="67.5" width="92" height="32" rx="8.5" stroke="white" stroke-opacity="0.47" stroke-dasharray="2 2"/>
<defs>
<clipPath id="clip0_625_118">
<rect width="20" height="20" fill="white" transform="translate(62 31)"/>
</clipPath>
<clipPath id="clip1_625_118">
<rect width="21" height="21" fill="white" transform="translate(62 325)"/>
</clipPath>
<clipPath id="clip2_625_118">
<rect width="21" height="21" fill="white" transform="translate(62 451)"/>
</clipPath>
<clipPath id="clip3_625_118">
<rect width="21" height="21" fill="white" transform="translate(62 493)"/>
</clipPath>
<clipPath id="clip4_625_118">
<rect width="21" height="21" fill="white" transform="translate(62 535)"/>
</clipPath>
<clipPath id="clip5_625_118">
<rect width="21" height="21" fill="white" transform="translate(62 577)"/>
</clipPath>
<clipPath id="clip6_625_118">
<rect width="21" height="21" fill="white" transform="translate(62 661)"/>
</clipPath>
<clipPath id="clip7_625_118">
<rect width="21" height="21" fill="white" transform="translate(62 703)"/>
</clipPath>
</defs>
</svg>
