<svg width="112" height="33" viewBox="0 0 112 33" fill="none" xmlns="http://www.w3.org/2000/svg">
<rect x="1" y="1" width="110" height="31" rx="8" fill="#CE4069"/>
<g clip-path="url(#clip0_625_50)">
<path fill-rule="evenodd" clip-rule="evenodd" d="M12.619 7.74585C12.8731 6.74244 13.7821 6 14.8645 6C15.6764 6 16.3908 6.41773 16.8044 7.05H17.4817C17.9025 6.61817 18.4904 6.35 19.1409 6.35C20.0947 6.35 20.9138 6.92647 21.269 7.75H21.836C22.1913 7.52818 22.6112 7.4 23.0609 7.4C24.0147 7.4 24.8338 7.97647 25.1889 8.8H26.7309C26.7441 8.8 26.7564 8.80355 26.7671 8.80974C26.8375 8.80329 26.9088 8.8 26.9809 8.8C28.2602 8.8 29.2972 9.83707 29.2972 11.1164V18.0621L29.2973 18.075L29.2972 18.0879V18.1879C29.2972 18.2303 29.2961 18.2725 29.2938 18.3145C29.1544 23.1329 24.8217 27 19.4973 27C14.0849 27 9.69727 23.0041 9.69727 18.075C9.69727 15.6957 10.7196 13.5339 12.386 11.9339C12.3818 14.2535 12.421 16.6515 12.6016 16.6104C13.0852 16.5001 12.7074 9.31568 12.619 7.74585Z" fill="white"/>
</g>
<path d="M53.594 11.242V12.278H49.352V15.568H52.796V16.604H49.352V21H48.078V11.242H53.594ZM55.7907 12.082C55.548 12.082 55.3427 11.998 55.1747 11.83C55.0067 11.662 54.9227 11.4567 54.9227 11.214C54.9227 10.9713 55.0067 10.766 55.1747 10.598C55.3427 10.43 55.548 10.346 55.7907 10.346C56.024 10.346 56.22 10.43 56.3787 10.598C56.5467 10.766 56.6307 10.9713 56.6307 11.214C56.6307 11.4567 56.5467 11.662 56.3787 11.83C56.22 11.998 56.024 12.082 55.7907 12.082ZM56.4067 13.328V21H55.1327V13.328H56.4067ZM61.742 13.202C62.4047 13.202 62.9833 13.3467 63.478 13.636C63.982 13.9253 64.3553 14.2893 64.598 14.728V13.328H65.886V21.168C65.886 21.868 65.7367 22.4887 65.438 23.03C65.1393 23.5807 64.71 24.01 64.15 24.318C63.5993 24.626 62.9553 24.78 62.218 24.78C61.21 24.78 60.37 24.542 59.698 24.066C59.026 23.59 58.6293 22.9413 58.508 22.12H59.768C59.908 22.5867 60.1973 22.96 60.636 23.24C61.0747 23.5293 61.602 23.674 62.218 23.674C62.918 23.674 63.4873 23.4547 63.926 23.016C64.374 22.5773 64.598 21.9613 64.598 21.168V19.558C64.346 20.006 63.9727 20.3793 63.478 20.678C62.9833 20.9767 62.4047 21.126 61.742 21.126C61.0607 21.126 60.44 20.958 59.88 20.622C59.3293 20.286 58.8953 19.8147 58.578 19.208C58.2607 18.6013 58.102 17.9107 58.102 17.136C58.102 16.352 58.2607 15.666 58.578 15.078C58.8953 14.4807 59.3293 14.0187 59.88 13.692C60.44 13.3653 61.0607 13.202 61.742 13.202ZM64.598 17.15C64.598 16.5713 64.4813 16.0673 64.248 15.638C64.0147 15.2087 63.6973 14.882 63.296 14.658C62.904 14.4247 62.47 14.308 61.994 14.308C61.518 14.308 61.084 14.42 60.692 14.644C60.3 14.868 59.9873 15.1947 59.754 15.624C59.5207 16.0533 59.404 16.5573 59.404 17.136C59.404 17.724 59.5207 18.2373 59.754 18.676C59.9873 19.1053 60.3 19.4367 60.692 19.67C61.084 19.894 61.518 20.006 61.994 20.006C62.47 20.006 62.904 19.894 63.296 19.67C63.6973 19.4367 64.0147 19.1053 64.248 18.676C64.4813 18.2373 64.598 17.7287 64.598 17.15ZM71.8469 13.188C72.4256 13.188 72.9483 13.314 73.4149 13.566C73.8816 13.8087 74.2456 14.1773 74.5069 14.672C74.7776 15.1667 74.9129 15.7687 74.9129 16.478V21H73.6529V16.66C73.6529 15.8947 73.4616 15.3113 73.0789 14.91C72.6963 14.4993 72.1736 14.294 71.5109 14.294C70.8389 14.294 70.3023 14.504 69.9009 14.924C69.5089 15.344 69.3129 15.9553 69.3129 16.758V21H68.0389V10.64H69.3129V14.42C69.5649 14.028 69.9103 13.7247 70.3489 13.51C70.7969 13.2953 71.2963 13.188 71.8469 13.188ZM78.548 14.378V18.9C78.548 19.2733 78.6273 19.5393 78.786 19.698C78.9447 19.8473 79.22 19.922 79.612 19.922H80.55V21H79.402C78.6927 21 78.1607 20.8367 77.806 20.51C77.4513 20.1833 77.274 19.6467 77.274 18.9V14.378H76.28V13.328H77.274V11.396H78.548V13.328H80.55V14.378H78.548ZM82.7516 12.082C82.509 12.082 82.3036 11.998 82.1356 11.83C81.9676 11.662 81.8836 11.4567 81.8836 11.214C81.8836 10.9713 81.9676 10.766 82.1356 10.598C82.3036 10.43 82.509 10.346 82.7516 10.346C82.985 10.346 83.181 10.43 83.3396 10.598C83.5076 10.766 83.5916 10.9713 83.5916 11.214C83.5916 11.4567 83.5076 11.662 83.3396 11.83C83.181 11.998 82.985 12.082 82.7516 12.082ZM83.3676 13.328V21H82.0936V13.328H83.3676ZM89.2769 13.188C90.2103 13.188 90.9663 13.4727 91.5449 14.042C92.1236 14.602 92.4129 15.414 92.4129 16.478V21H91.1529V16.66C91.1529 15.8947 90.9616 15.3113 90.5789 14.91C90.1963 14.4993 89.6736 14.294 89.0109 14.294C88.3389 14.294 87.8023 14.504 87.4009 14.924C87.0089 15.344 86.8129 15.9553 86.8129 16.758V21H85.5389V13.328H86.8129V14.42C87.0649 14.028 87.4056 13.7247 87.8349 13.51C88.2736 13.2953 88.7543 13.188 89.2769 13.188ZM97.658 13.202C98.3207 13.202 98.8993 13.3467 99.394 13.636C99.898 13.9253 100.271 14.2893 100.514 14.728V13.328H101.802V21.168C101.802 21.868 101.653 22.4887 101.354 23.03C101.055 23.5807 100.626 24.01 100.066 24.318C99.5153 24.626 98.8713 24.78 98.134 24.78C97.126 24.78 96.286 24.542 95.614 24.066C94.942 23.59 94.5453 22.9413 94.424 22.12H95.684C95.824 22.5867 96.1133 22.96 96.552 23.24C96.9907 23.5293 97.518 23.674 98.134 23.674C98.834 23.674 99.4033 23.4547 99.842 23.016C100.29 22.5773 100.514 21.9613 100.514 21.168V19.558C100.262 20.006 99.8887 20.3793 99.394 20.678C98.8993 20.9767 98.3207 21.126 97.658 21.126C96.9767 21.126 96.356 20.958 95.796 20.622C95.2453 20.286 94.8113 19.8147 94.494 19.208C94.1767 18.6013 94.018 17.9107 94.018 17.136C94.018 16.352 94.1767 15.666 94.494 15.078C94.8113 14.4807 95.2453 14.0187 95.796 13.692C96.356 13.3653 96.9767 13.202 97.658 13.202ZM100.514 17.15C100.514 16.5713 100.397 16.0673 100.164 15.638C99.9307 15.2087 99.6133 14.882 99.212 14.658C98.82 14.4247 98.386 14.308 97.91 14.308C97.434 14.308 97 14.42 96.608 14.644C96.216 14.868 95.9033 15.1947 95.67 15.624C95.4367 16.0533 95.32 16.5573 95.32 17.136C95.32 17.724 95.4367 18.2373 95.67 18.676C95.9033 19.1053 96.216 19.4367 96.608 19.67C97 19.894 97.434 20.006 97.91 20.006C98.386 20.006 98.82 19.894 99.212 19.67C99.6133 19.4367 99.9307 19.1053 100.164 18.676C100.397 18.2373 100.514 17.7287 100.514 17.15Z" fill="white"/>
<rect x="0.5" y="0.5" width="111" height="32" rx="8.5" stroke="white" stroke-opacity="0.47" stroke-dasharray="2 2"/>
<defs>
<clipPath id="clip0_625_50">
<rect width="21" height="21" fill="white" transform="translate(9 6)"/>
</clipPath>
</defs>
</svg>
