<svg width="19" height="21" viewBox="0 0 19 21" fill="none" xmlns="http://www.w3.org/2000/svg">
<path fill-rule="evenodd" clip-rule="evenodd" d="M13.0355 0.0205603C13.0508 -0.00124839 13.0808 -0.00654848 13.1026 0.00872213L14.5937 1.0528C14.6155 1.06807 14.6208 1.09812 14.6055 1.11993L12.5302 4.08381C13.5391 4.40614 14.2265 4.75383 14.2265 4.75383C14.2265 4.75383 12.5464 7.64388 9.69663 7.64388C6.8469 7.64388 4.82192 4.9503 4.82192 4.9503C4.82192 4.9503 5.53994 4.49207 6.6043 4.09906L4.32793 1.38623C4.31083 1.36583 4.31349 1.33543 4.33388 1.31832L5.72829 0.148257C5.74871 0.131144 5.7791 0.133804 5.79621 0.154199L8.67846 3.58913C8.92525 3.56121 9.17667 3.54561 9.4304 3.54561C9.79507 3.54561 10.1593 3.57333 10.5149 3.62038L13.0355 0.0205603ZM13.5993 7.78075C14.3597 7.23762 15.5105 5.82003 15.5105 5.82003C15.5105 5.82003 18.4498 8.14931 18.4498 13.0883C18.4498 18.0271 13.3681 20.9997 13.3681 20.9997C13.3681 20.9997 10.9402 18.5477 10.3442 15.4395C9.74819 12.3313 11.2259 8.88001 11.2259 8.88001C11.2259 8.88001 12.8388 8.32387 13.5993 7.78075V7.78075ZM5.40914 7.78075C4.64867 7.23762 3.49794 5.82003 3.49794 5.82003C3.49794 5.82003 0.558594 8.14931 0.558594 13.0883C0.558594 18.0271 5.64027 20.9997 5.64027 20.9997C5.64027 20.9997 8.06819 18.5477 8.66422 15.4395C9.26022 12.3313 7.78255 8.88001 7.78255 8.88001C7.78255 8.88001 6.16965 8.32387 5.40914 7.78075V7.78075Z" fill="white"/>
</svg>
