<svg width="88" height="33" viewBox="0 0 88 33" fill="none" xmlns="http://www.w3.org/2000/svg">
<rect x="1" y="1" width="86" height="31" rx="8" fill="#5C5365"/>
<g clip-path="url(#clip0_625_2)">
<path fill-rule="evenodd" clip-rule="evenodd" d="M18.4081 24.5739C18.807 24.635 19.2156 24.6667 19.6317 24.6667C24.0615 24.6667 27.6525 21.0756 27.6525 16.6459C27.6525 12.216 24.0615 8.625 19.6317 8.625C19.3345 8.625 19.041 8.64116 18.7522 8.67266C20.9496 10.3374 22.4025 13.2213 22.4025 16.5C22.4025 19.947 20.7967 22.9575 18.4081 24.5739ZM19.4858 27C25.2848 27 29.9858 22.299 29.9858 16.5C29.9858 10.701 25.2848 6 19.4858 6C13.6868 6 8.98584 10.701 8.98584 16.5C8.98584 22.299 13.6868 27 19.4858 27Z" fill="white"/>
</g>
<path d="M51.116 11.242C52.18 11.242 53.0993 11.4427 53.874 11.844C54.658 12.236 55.2553 12.8007 55.666 13.538C56.086 14.2753 56.296 15.1433 56.296 16.142C56.296 17.1407 56.086 18.0087 55.666 18.746C55.2553 19.474 54.658 20.034 53.874 20.426C53.0993 20.8087 52.18 21 51.116 21H48.078V11.242H51.116ZM51.116 19.95C52.376 19.95 53.3373 19.6187 54 18.956C54.6627 18.284 54.994 17.346 54.994 16.142C54.994 14.9287 54.658 13.9813 53.986 13.3C53.3233 12.6187 52.3667 12.278 51.116 12.278H49.352V19.95H51.116ZM57.5004 17.136C57.5004 16.352 57.6591 15.666 57.9764 15.078C58.2938 14.4807 58.7278 14.0187 59.2784 13.692C59.8384 13.3653 60.4591 13.202 61.1404 13.202C61.8124 13.202 62.3958 13.3467 62.8904 13.636C63.3851 13.9253 63.7538 14.2893 63.9964 14.728V13.328H65.2844V21H63.9964V19.572C63.7444 20.02 63.3664 20.3933 62.8624 20.692C62.3678 20.9813 61.7891 21.126 61.1264 21.126C60.4451 21.126 59.8291 20.958 59.2784 20.622C58.7278 20.286 58.2938 19.8147 57.9764 19.208C57.6591 18.6013 57.5004 17.9107 57.5004 17.136ZM63.9964 17.15C63.9964 16.5713 63.8798 16.0673 63.6464 15.638C63.4131 15.2087 63.0958 14.882 62.6944 14.658C62.3024 14.4247 61.8684 14.308 61.3924 14.308C60.9164 14.308 60.4824 14.42 60.0904 14.644C59.6984 14.868 59.3858 15.1947 59.1524 15.624C58.9191 16.0533 58.8024 16.5573 58.8024 17.136C58.8024 17.724 58.9191 18.2373 59.1524 18.676C59.3858 19.1053 59.6984 19.4367 60.0904 19.67C60.4824 19.894 60.9164 20.006 61.3924 20.006C61.8684 20.006 62.3024 19.894 62.6944 19.67C63.0958 19.4367 63.4131 19.1053 63.6464 18.676C63.8798 18.2373 63.9964 17.7287 63.9964 17.15ZM68.7114 14.574C68.9354 14.1353 69.2527 13.7947 69.6634 13.552C70.0834 13.3093 70.592 13.188 71.1894 13.188V14.504H70.8534C69.4254 14.504 68.7114 15.2787 68.7114 16.828V21H67.4374V13.328H68.7114V14.574ZM76.944 21L73.934 17.612V21H72.66V10.64H73.934V16.73L76.888 13.328H78.666L75.054 17.15L78.68 21H76.944Z" fill="white"/>
<rect x="0.5" y="0.5" width="87" height="32" rx="8.5" stroke="white" stroke-opacity="0.47" stroke-dasharray="2 2"/>
<defs>
<clipPath id="clip0_625_2">
<rect width="21" height="21" fill="white" transform="translate(9 6)"/>
</clipPath>
</defs>
</svg>
