<svg width="21" height="21" viewBox="0 0 21 21" fill="none" xmlns="http://www.w3.org/2000/svg">
<path fill-rule="evenodd" clip-rule="evenodd" d="M9.40806 18.5739C9.80702 18.635 10.2156 18.6667 10.6317 18.6667C15.0615 18.6667 18.6525 15.0756 18.6525 10.6459C18.6525 6.21604 15.0615 2.625 10.6317 2.625C10.3345 2.625 10.041 2.64116 9.75222 2.67266C11.9496 4.33744 13.4025 7.22129 13.4025 10.5C13.4025 13.947 11.7967 16.9575 9.40806 18.5739ZM10.4858 21C16.2848 21 20.9858 16.299 20.9858 10.5C20.9858 4.70101 16.2848 0 10.4858 0C4.68684 0 -0.0141602 4.70101 -0.0141602 10.5C-0.0141602 16.299 4.68684 21 10.4858 21Z" fill="white"/>
</svg>
