<svg width="19" height="21" viewBox="0 0 19 21" fill="none" xmlns="http://www.w3.org/2000/svg">
<path fill-rule="evenodd" clip-rule="evenodd" d="M10.5132 10.4541C10.6555 10.3673 10.7762 10.1855 10.8736 9.98333C12.1551 10.5071 13.0557 11.7448 13.0557 13.1882C13.0557 15.1056 11.4664 16.6601 9.50583 16.6601C8.70102 16.6601 7.95876 16.3981 7.36333 15.9567C7.16802 15.8642 7.00732 15.7753 6.87582 15.7026C6.67185 15.5899 6.5381 15.5159 6.45434 15.5275C6.20952 15.5612 6.2806 15.7865 6.3452 15.9911C6.38905 16.1301 6.42994 16.2596 6.36665 16.313C6.30045 16.369 6.08602 16.1645 5.83546 15.9256C5.49437 15.6004 5.08635 15.2114 4.89395 15.3282C4.74182 15.4206 4.88952 15.6713 5.07031 15.9781L5.08372 16.0009C5.1601 16.1305 5.24861 16.2626 5.32937 16.3831C5.49355 16.628 5.62579 16.8254 5.55963 16.8588C5.47965 16.8991 4.92241 16.523 4.45282 16.0009C4.27157 15.7993 4.09603 15.5809 3.93287 15.3779V15.3779C3.57574 14.9335 3.27822 14.5633 3.1112 14.6072C2.91029 14.6599 3.06227 15.0743 3.2856 15.4731C3.39003 15.6596 3.51287 15.8495 3.61922 16.014V16.014C3.78464 16.2697 3.91019 16.4638 3.86466 16.4876C3.80322 16.5197 3.26259 15.9926 2.89539 15.3282C2.67729 14.9336 2.49416 14.4975 2.3459 14.1445C2.18511 13.7616 2.06534 13.4765 1.98648 13.4478C1.71247 13.348 1.71247 13.9067 1.82236 14.713C1.8367 14.8182 1.85805 14.9286 1.88433 15.0409C2.95009 18.4892 6.224 21 10.0975 21C14.8355 21 18.6763 17.2435 18.6763 12.6095C18.6763 8.19902 15.197 4.58337 10.7764 4.24487C10.782 4.0371 10.8904 3.62508 10.8904 3.62508C10.8904 3.62508 11.6708 1.7369 11.7121 1.33341C11.7148 1.30663 11.718 1.27753 11.7215 1.24654C11.7701 0.810588 11.8606 0 11.1632 0C10.7908 0 10.6176 0.277046 10.4196 0.593902V0.593906C10.3435 0.715546 10.2638 0.843056 10.1677 0.963006C9.47588 1.82698 8.31252 2.90591 7.65286 3.48071C6.25858 4.69563 4.89062 5.69412 4.09279 6.27646L4.09275 6.2765C3.72988 6.54134 3.48498 6.72012 3.40918 6.79399C2.838 7.35082 0.789996 11.0449 0.789996 11.0449C0.789996 11.0449 0.127696 12.2301 0.363105 12.4705C0.598515 12.7109 1.1662 12.6558 1.1662 12.6558C1.1662 12.6558 8.79269 10.9062 9.47547 10.7682C9.6593 10.731 9.78908 10.7096 9.88871 10.6931C10.1592 10.6485 10.2078 10.6404 10.5132 10.4541ZM5.12097 8.20575C4.71159 8.59486 4.03266 9.52366 4.03266 9.52366C4.03266 9.52366 5.29446 9.60139 5.98939 8.94083C6.68436 8.28023 6.52514 7.15448 6.52514 7.15448C6.52514 7.15448 5.5303 7.81663 5.12097 8.20575Z" fill="white"/>
</svg>
