<svg width="21" height="21" viewBox="0 0 21 21" fill="none" xmlns="http://www.w3.org/2000/svg">
<path fill-rule="evenodd" clip-rule="evenodd" d="M4.21337 16.6514L7.58166 15.6748L10.4909 20.9941C10.4947 21.001 10.5046 21.001 10.5084 20.9941L13.4176 15.6748L16.7859 16.6514C16.7935 16.6536 16.8005 16.6466 16.7982 16.6391L15.8214 13.3374L20.9941 10.5084C21.001 10.5046 21.001 10.4947 20.9941 10.4909L15.7788 7.63855L16.7982 4.19282C16.8005 4.18528 16.7935 4.17826 16.7859 4.18044L13.3386 5.18003L10.5084 0.00517568C10.5046 -0.0017251 10.4947 -0.0017253 10.4909 0.00517552L7.66069 5.18003L4.21337 4.18044C4.20582 4.17826 4.19881 4.18528 4.20107 4.19282L5.22051 7.63855L0.00517568 10.4909C-0.0017251 10.4947 -0.0017253 10.5046 0.00517552 10.5084L5.17785 13.3374L4.20107 16.6391C4.19881 16.6466 4.20582 16.6536 4.21337 16.6514ZM6.82713 10.5359L9.21338 11.841L10.5185 14.2272C10.5222 14.2341 10.5322 14.2341 10.5359 14.2272L11.841 11.841L14.2272 10.5359C14.2341 10.5322 14.2341 10.5222 14.2272 10.5185L11.841 9.21338L10.5359 6.82717C10.5322 6.82024 10.5222 6.82024 10.5185 6.82717L9.21338 9.21338L6.82713 10.5185C6.82024 10.5222 6.82024 10.5322 6.82713 10.5359Z" fill="white"/>
</svg>
