<svg width="21" height="21" viewBox="0 0 21 21" fill="none" xmlns="http://www.w3.org/2000/svg">
<path fill-rule="evenodd" clip-rule="evenodd" d="M3.61896 1.74585C3.8731 0.74244 4.78214 0 5.86454 0C6.67644 0 7.39081 0.417732 7.80441 1.05H8.4817C8.90248 0.618171 9.49036 0.35 10.1409 0.35C11.0947 0.35 11.9138 0.926469 12.269 1.75H12.836C13.1913 1.52818 13.6112 1.4 14.0609 1.4C15.0147 1.4 15.8338 1.97647 16.1889 2.8H17.7309C17.7441 2.8 17.7564 2.80355 17.7671 2.80974C17.8375 2.80329 17.9088 2.8 17.9809 2.8C19.2602 2.8 20.2972 3.83707 20.2972 5.11637V12.0621L20.2973 12.075L20.2972 12.0879V12.1879C20.2972 12.2303 20.2961 12.2725 20.2938 12.3145C20.1544 17.1329 15.8217 21 10.4973 21C5.08487 21 0.697266 17.0041 0.697266 12.075C0.697266 9.69572 1.71958 7.53387 3.38598 5.93394C3.38183 8.25349 3.42101 10.6515 3.60161 10.6104C4.0852 10.5001 3.70737 3.31568 3.61896 1.74585Z" fill="white"/>
</svg>
