<svg width="16" height="21" viewBox="0 0 16 21" fill="none" xmlns="http://www.w3.org/2000/svg">
<path fill-rule="evenodd" clip-rule="evenodd" d="M12.0215 16.2173C12.2853 15.2686 11.7732 13.3182 11.7732 13.3182C11.7732 13.3182 11.4018 14.9071 10.8214 15.4944C10.3263 15.9953 9.71974 16.3427 8.8498 16.434C9.56105 16.0942 10.0502 15.3858 10.0502 14.5669C10.0502 13.4174 9.08634 12.4855 7.89737 12.4855C6.70839 12.4855 5.74449 13.4174 5.74449 14.5669C5.74449 14.8808 5.81643 15.1786 5.94517 15.4455C5.20151 14.8628 5.08457 13.9287 5.08457 13.9287C5.08457 13.9287 4.25417 17.3194 6.54229 18.9144C8.83036 20.5095 13.3126 19.1385 13.3126 19.1385C13.3126 19.1385 6.89823 23.5773 2.14508 18.7462C-1.94936 14.5845 1.07643 9.10559 1.07643 9.10559C1.07643 9.10559 0.945751 9.61386 0.945751 10.2039C0.945751 10.7939 1.27101 11.2428 1.27101 11.2428C1.27101 11.2428 2.24125 9.23143 2.99634 8.41346C3.71097 7.63933 4.60681 7.01146 5.38058 6.46915C5.9762 6.05169 6.4995 5.68493 6.81203 5.34118C8.53343 3.44813 7.47795 0 7.47795 0C7.47795 0 9.41843 1.68246 9.96016 3.85538C10.1667 4.68366 10.0338 5.62607 9.91504 6.46882C9.7222 7.83694 9.56635 8.94244 10.9595 8.8707C13.2107 8.75475 11.2544 5.34118 11.2544 5.34118C11.2544 5.34118 16.3611 7.98095 15.9796 12.5977C15.5981 17.2146 10.3978 18.2641 10.3978 18.2641C10.3978 18.2641 11.7576 17.1661 12.0215 16.2173Z" fill="white"/>
</svg>
