<svg width="21" height="19" viewBox="0 0 21 19" fill="none" xmlns="http://www.w3.org/2000/svg">
<path fill-rule="evenodd" clip-rule="evenodd" d="M7.32998 18.5945C10.4063 18.5945 13.04 16.8848 14.1273 14.4611C14.1405 14.4315 9.76201 15.599 9.90162 15.1863C9.96397 15.002 12.648 14.0215 14.6035 12.8778C15.7275 12.2204 16.2451 10.8289 16.2451 10.8289C16.2451 10.8289 14.3515 11.7483 13.3942 11.9815C11.4652 12.4515 9.76709 12.4009 9.76709 12.3519C9.76709 12.246 12.5867 11.7103 16.5057 9.32216C18.349 8.19886 18.8497 6.26399 18.8497 6.26399C18.8497 6.26399 16.8231 7.47116 15.598 7.86971C12.6926 8.81483 10.0412 9.09965 10.0412 8.97176C10.0412 8.69794 12.3745 8.05633 14.8483 6.85765C16.1346 6.23442 17.2485 5.42018 18.5394 4.51467C20.6516 3.03315 21 0.394531 21 0.394531C21 0.394531 18.9167 1.73821 17.9 2.18443C13.705 4.02569 10.0008 4.99152 7.32998 5.20062C3.29831 5.51627 0 8.32925 0 11.9815C0 15.6338 3.28174 18.5945 7.32998 18.5945Z" fill="white"/>
</svg>
