<svg width="98" height="33" viewBox="0 0 98 33" fill="none" xmlns="http://www.w3.org/2000/svg">
<rect x="1" y="1" width="96" height="31" rx="8" fill="#5269AC"/>
<g clip-path="url(#clip0_625_58)">
<path fill-rule="evenodd" clip-rule="evenodd" d="M24.1328 26.9273C22.2386 27.0242 20.07 27.0242 19.333 26.9273C13.5843 26.171 9 21.9679 9 16.2867C9 10.6055 13.701 6 19.5 6C25.299 6 30 10.6055 30 16.2867C30 18.929 28.9831 21.3386 27.3118 23.1604C26.858 23.6551 27.4807 24.0021 28.1134 24.3547C28.7338 24.7005 29.3639 25.0516 28.9977 25.5526C28.5942 26.1048 26.4067 26.8109 24.1328 26.9273ZM18.0234 15.0009C18.0234 15.8885 17.2889 16.6082 16.3828 16.6082C15.4767 16.6082 14.7422 15.8885 14.7422 15.0009C14.7422 14.4055 15.0726 13.8858 15.5635 13.608C15.5917 14.382 16.2281 15.0008 17.0091 15.0008H18.0234V15.0009ZM23.1084 13.608C23.0801 14.382 22.4437 15.0008 21.6628 15.0008H20.6484V15.0009C20.6484 15.8885 21.383 16.6082 22.2891 16.6082C23.1951 16.6082 23.9297 15.8885 23.9297 15.0009C23.9297 14.4055 23.5993 13.8858 23.1084 13.608Z" fill="white"/>
</g>
<path d="M55.47 14.07C55.1993 13.5007 54.8073 13.062 54.294 12.754C53.7807 12.4367 53.1833 12.278 52.502 12.278C51.8207 12.278 51.2047 12.4367 50.654 12.754C50.1127 13.062 49.6833 13.51 49.366 14.098C49.058 14.6767 48.904 15.3487 48.904 16.114C48.904 16.8793 49.058 17.5513 49.366 18.13C49.6833 18.7087 50.1127 19.1567 50.654 19.474C51.2047 19.782 51.8207 19.936 52.502 19.936C53.454 19.936 54.238 19.6513 54.854 19.082C55.47 18.5127 55.8293 17.7427 55.932 16.772H52.04V15.736H57.29V16.716C57.2153 17.5187 56.9633 18.256 56.534 18.928C56.1047 19.5907 55.54 20.118 54.84 20.51C54.14 20.8927 53.3607 21.084 52.502 21.084C51.5967 21.084 50.7707 20.874 50.024 20.454C49.2773 20.0247 48.6847 19.432 48.246 18.676C47.8167 17.92 47.602 17.066 47.602 16.114C47.602 15.162 47.8167 14.308 48.246 13.552C48.6847 12.7867 49.2773 12.194 50.024 11.774C50.7707 11.3447 51.5967 11.13 52.502 11.13C53.538 11.13 54.4527 11.3867 55.246 11.9C56.0487 12.4133 56.632 13.1367 56.996 14.07H55.47ZM62.7825 13.188C63.3612 13.188 63.8838 13.314 64.3505 13.566C64.8172 13.8087 65.1812 14.1773 65.4425 14.672C65.7132 15.1667 65.8485 15.7687 65.8485 16.478V21H64.5885V16.66C64.5885 15.8947 64.3972 15.3113 64.0145 14.91C63.6318 14.4993 63.1092 14.294 62.4465 14.294C61.7745 14.294 61.2378 14.504 60.8365 14.924C60.4445 15.344 60.2485 15.9553 60.2485 16.758V21H58.9745V10.64H60.2485V14.42C60.5005 14.028 60.8458 13.7247 61.2845 13.51C61.7325 13.2953 62.2318 13.188 62.7825 13.188ZM71.2756 21.126C70.5569 21.126 69.9036 20.9627 69.3156 20.636C68.7369 20.3093 68.2796 19.8473 67.9436 19.25C67.6169 18.6433 67.4536 17.9433 67.4536 17.15C67.4536 16.366 67.6216 15.6753 67.9576 15.078C68.3029 14.4713 68.7696 14.0093 69.3576 13.692C69.9456 13.3653 70.6036 13.202 71.3316 13.202C72.0596 13.202 72.7176 13.3653 73.3056 13.692C73.8936 14.0093 74.3556 14.4667 74.6916 15.064C75.0369 15.6613 75.2096 16.3567 75.2096 17.15C75.2096 17.9433 75.0322 18.6433 74.6776 19.25C74.3322 19.8473 73.8609 20.3093 73.2636 20.636C72.6662 20.9627 72.0036 21.126 71.2756 21.126ZM71.2756 20.006C71.7329 20.006 72.1622 19.8987 72.5636 19.684C72.9649 19.4693 73.2869 19.1473 73.5296 18.718C73.7816 18.2887 73.9076 17.766 73.9076 17.15C73.9076 16.534 73.7862 16.0113 73.5436 15.582C73.3009 15.1527 72.9836 14.8353 72.5916 14.63C72.1996 14.4153 71.7749 14.308 71.3176 14.308C70.8509 14.308 70.4216 14.4153 70.0296 14.63C69.6469 14.8353 69.3389 15.1527 69.1056 15.582C68.8722 16.0113 68.7556 16.534 68.7556 17.15C68.7556 17.7753 68.8676 18.3027 69.0916 18.732C69.3249 19.1613 69.6329 19.4833 70.0156 19.698C70.3982 19.9033 70.8182 20.006 71.2756 20.006ZM79.6006 21.126C79.0126 21.126 78.4853 21.028 78.0186 20.832C77.552 20.6267 77.1833 20.3467 76.9126 19.992C76.642 19.628 76.4926 19.2127 76.4646 18.746H77.7806C77.818 19.1287 77.9953 19.4413 78.3126 19.684C78.6393 19.9267 79.064 20.048 79.5866 20.048C80.072 20.048 80.4546 19.9407 80.7346 19.726C81.0146 19.5113 81.1546 19.2407 81.1546 18.914C81.1546 18.578 81.0053 18.3307 80.7066 18.172C80.408 18.004 79.946 17.8407 79.3206 17.682C78.7513 17.5327 78.2846 17.3833 77.9206 17.234C77.566 17.0753 77.258 16.8467 76.9966 16.548C76.7446 16.24 76.6186 15.8387 76.6186 15.344C76.6186 14.952 76.7353 14.5927 76.9686 14.266C77.202 13.9393 77.5333 13.6827 77.9626 13.496C78.392 13.3 78.882 13.202 79.4326 13.202C80.282 13.202 80.968 13.4167 81.4906 13.846C82.0133 14.2753 82.2933 14.8633 82.3306 15.61H81.0566C81.0286 15.2087 80.8653 14.8867 80.5666 14.644C80.2773 14.4013 79.8853 14.28 79.3906 14.28C78.9333 14.28 78.5693 14.378 78.2986 14.574C78.028 14.77 77.8926 15.0267 77.8926 15.344C77.8926 15.596 77.972 15.806 78.1306 15.974C78.2986 16.1327 78.504 16.2633 78.7466 16.366C78.9986 16.4593 79.344 16.5667 79.7826 16.688C80.3333 16.8373 80.7813 16.9867 81.1266 17.136C81.472 17.276 81.766 17.4907 82.0086 17.78C82.2606 18.0693 82.3913 18.4473 82.4006 18.914C82.4006 19.334 82.284 19.712 82.0506 20.048C81.8173 20.384 81.486 20.65 81.0566 20.846C80.6366 21.0327 80.1513 21.126 79.6006 21.126ZM85.7531 14.378V18.9C85.7531 19.2733 85.8324 19.5393 85.9911 19.698C86.1498 19.8473 86.4251 19.922 86.8171 19.922H87.7551V21H86.6071C85.8978 21 85.3658 20.8367 85.0111 20.51C84.6564 20.1833 84.4791 19.6467 84.4791 18.9V14.378H83.4851V13.328H84.4791V11.396H85.7531V13.328H87.7551V14.378H85.7531Z" fill="white"/>
<rect x="0.5" y="0.5" width="97" height="32" rx="8.5" stroke="white" stroke-opacity="0.47" stroke-dasharray="2 2"/>
<defs>
<clipPath id="clip0_625_58">
<rect width="21" height="21" fill="white" transform="translate(9 6)"/>
</clipPath>
</defs>
</svg>
