<svg width="21" height="21" viewBox="0 0 21 21" fill="none" xmlns="http://www.w3.org/2000/svg">
<path fill-rule="evenodd" clip-rule="evenodd" d="M15.1328 20.9273C13.2386 21.0242 11.07 21.0242 10.333 20.9273C4.58432 20.171 0 15.9679 0 10.2867C0 4.60552 4.70101 0 10.5 0C16.299 0 21 4.60552 21 10.2867C21 12.929 19.9831 15.3386 18.3118 17.1604C17.858 17.6551 18.4807 18.0021 19.1134 18.3547C19.7338 18.7005 20.3639 19.0516 19.9977 19.5526C19.5942 20.1048 17.4067 20.8109 15.1328 20.9273ZM9.02344 9.00088C9.02344 9.88854 8.28889 10.6082 7.38281 10.6082C6.47674 10.6082 5.74219 9.88854 5.74219 9.00088C5.74219 8.40554 6.07257 7.88583 6.56348 7.60803C6.59174 8.38204 7.22814 9.00084 8.00908 9.00084H9.02344V9.00088ZM14.1084 7.60803C14.0801 8.38204 13.4437 9.00084 12.6628 9.00084H11.6484V9.00088C11.6484 9.88854 12.383 10.6082 13.2891 10.6082C14.1951 10.6082 14.9297 9.88854 14.9297 9.00088C14.9297 8.40554 14.5993 7.88583 14.1084 7.60803Z" fill="white"/>
</svg>
