<svg width="17" height="19" viewBox="0 0 17 19" fill="none" xmlns="http://www.w3.org/2000/svg">
<path fill-rule="evenodd" clip-rule="evenodd" d="M2.72881 16.5744C2.66332 16.5107 2.59855 16.4458 2.53453 16.3796C-0.844845 12.8859 -0.844845 7.2213 2.53453 3.72754C5.9139 0.233731 16.6819 0 16.6819 0C16.6819 0 18.1517 12.8859 14.7724 16.3796C11.771 19.4826 7.11354 19.8297 3.74167 17.4211L6.4586 13.974L10.8019 13.0046L7.25649 12.6381L9.50962 10.2664L12.0744 9.68548L10.0463 9.06455L12.0744 5.28213L9.18966 8.62734L8.07569 7.00216L8.46783 9.68548L6.4586 12.0272L5.52723 9.06451V13.0046L2.72881 16.5744Z" fill="white"/>
</svg>
