<svg width="21" height="17" viewBox="0 0 21 17" fill="none" xmlns="http://www.w3.org/2000/svg">
<path fill-rule="evenodd" clip-rule="evenodd" d="M4.62509 16.0368C4.61938 16.0368 4.61541 16.0312 4.61729 16.0258L9.97865 0.87659C9.97984 0.873296 9.98296 0.871094 9.98644 0.871094H15.7098C15.7133 0.871094 15.7165 0.873313 15.7176 0.876627L20.9995 16.0258C21.0013 16.0312 20.9973 16.0368 20.9917 16.0368H4.7862H4.62509ZM0.00825669 16.0961C0.00249835 16.0961 -0.00148826 16.0903 0.000531592 16.0849L3.99298 5.42613C3.99419 5.42288 3.99726 5.42075 4.00071 5.42075H7.46968C7.47543 5.42075 7.4794 5.42645 7.47744 5.43183L3.61685 16.0906C3.61567 16.0939 3.61257 16.0961 3.6091 16.0961H0.00825669Z" fill="white"/>
</svg>
