<svg width="21" height="21" viewBox="0 0 21 21" fill="none" xmlns="http://www.w3.org/2000/svg">
<path fill-rule="evenodd" clip-rule="evenodd" d="M15.7624 1.60132L15.827 7.27584L10.8777 9.65175L10.8167 4.29392L15.7624 1.60132Z" fill="white"/>
<path fill-rule="evenodd" clip-rule="evenodd" d="M20.724 10.543L15.8244 13.3454L10.922 10.5385L15.8219 7.96472L20.724 10.543Z" fill="white"/>
<path fill-rule="evenodd" clip-rule="evenodd" d="M10.0505 10.543L5.15098 13.3454L0.248535 10.5385L5.14844 7.96472L10.0505 10.543Z" fill="white"/>
<path fill-rule="evenodd" clip-rule="evenodd" d="M5.09595 1.57806L10.1813 4.09666L10.0513 9.5852L5.24976 7.2072L5.09595 1.57806Z" fill="white"/>
<path fill-rule="evenodd" clip-rule="evenodd" d="M15.9009 19.4219L10.8156 16.9033L10.9456 11.4147L15.7471 13.7928L15.9009 19.4219Z" fill="white"/>
<path fill-rule="evenodd" clip-rule="evenodd" d="M5.27155 19.473L5.20691 13.7985L10.1563 11.4225L10.2173 16.7803L5.27155 19.473Z" fill="white"/>
</svg>
