<svg width="20" height="20" viewBox="0 0 20 20" fill="none" xmlns="http://www.w3.org/2000/svg">
<path fill-rule="evenodd" clip-rule="evenodd" d="M16.7118 15.3691C18.7314 13.7542 20 11.4209 20 8.82617C20 3.9516 15.5229 0 10 0C4.47715 0 0 3.9516 0 8.82617C0 11.3273 1.17866 13.5854 3.07247 15.1914C2.9577 15.5877 2.89473 16.0188 2.89473 16.4695C2.89473 18.4193 4.07293 20 5.52633 20C6.4707 20 7.29891 19.3326 7.76316 18.3302C8.22742 19.3326 9.05562 20 10 20C10.8609 20 11.6252 19.4455 12.1053 18.5882C12.5854 19.4455 13.3497 20 14.2105 20C15.6639 20 16.8421 18.4193 16.8421 16.4695C16.8421 16.0853 16.7963 15.7154 16.7118 15.3691ZM15.7895 9.00121C15.7895 11.476 13.1385 13.4822 9.86844 13.4822C6.59832 13.4822 3.94738 11.476 3.94738 9.00121C3.94738 6.52645 6.59832 4.52023 9.86844 4.52023C13.1385 4.52023 15.7895 6.52645 15.7895 9.00121Z" fill="white"/>
</svg>
