<svg width="101" height="33" viewBox="0 0 101 33" fill="none" xmlns="http://www.w3.org/2000/svg">
<rect x="1" y="1" width="99" height="31" rx="8" fill="#AD61AE"/>
<g clip-path="url(#clip0_2_60)">
<path fill-rule="evenodd" clip-rule="evenodd" d="M25.7118 21.3691C27.7314 19.7542 29 17.4209 29 14.8262C29 9.9516 24.5229 6 19 6C13.4771 6 9 9.9516 9 14.8262C9 17.3273 10.1787 19.5854 12.0725 21.1914C11.9577 21.5877 11.8947 22.0188 11.8947 22.4695C11.8947 24.4193 13.0729 26 14.5263 26C15.4707 26 16.2989 25.3326 16.7632 24.3302C17.2274 25.3326 18.0556 26 19 26C19.8609 26 20.6252 25.4455 21.1053 24.5882C21.5854 25.4455 22.3497 26 23.2105 26C24.6639 26 25.8421 24.4193 25.8421 22.4695C25.8421 22.0853 25.7963 21.7154 25.7118 21.3691ZM24.7895 15.0012C24.7895 17.476 22.1385 19.4822 18.8684 19.4822C15.5983 19.4822 12.9474 17.476 12.9474 15.0012C12.9474 12.5264 15.5983 10.5202 18.8684 10.5202C22.1385 10.5202 24.7895 12.5264 24.7895 15.0012Z" fill="white"/>
</g>
<path d="M53.602 14.098C53.602 14.91 53.322 15.5867 52.762 16.128C52.2113 16.66 51.3667 16.926 50.228 16.926H48.352V21H47.078V11.242H50.228C51.3293 11.242 52.1647 11.508 52.734 12.04C53.3127 12.572 53.602 13.258 53.602 14.098ZM50.228 15.876C50.9373 15.876 51.46 15.722 51.796 15.414C52.132 15.106 52.3 14.6673 52.3 14.098C52.3 12.894 51.6093 12.292 50.228 12.292H48.352V15.876H50.228ZM58.5314 21.126C57.8128 21.126 57.1594 20.9627 56.5714 20.636C55.9928 20.3093 55.5354 19.8473 55.1994 19.25C54.8728 18.6433 54.7094 17.9433 54.7094 17.15C54.7094 16.366 54.8774 15.6753 55.2134 15.078C55.5588 14.4713 56.0254 14.0093 56.6134 13.692C57.2014 13.3653 57.8594 13.202 58.5874 13.202C59.3154 13.202 59.9734 13.3653 60.5614 13.692C61.1494 14.0093 61.6114 14.4667 61.9474 15.064C62.2928 15.6613 62.4654 16.3567 62.4654 17.15C62.4654 17.9433 62.2881 18.6433 61.9334 19.25C61.5881 19.8473 61.1168 20.3093 60.5194 20.636C59.9221 20.9627 59.2594 21.126 58.5314 21.126ZM58.5314 20.006C58.9888 20.006 59.4181 19.8987 59.8194 19.684C60.2208 19.4693 60.5428 19.1473 60.7854 18.718C61.0374 18.2887 61.1634 17.766 61.1634 17.15C61.1634 16.534 61.0421 16.0113 60.7994 15.582C60.5568 15.1527 60.2394 14.8353 59.8474 14.63C59.4554 14.4153 59.0308 14.308 58.5734 14.308C58.1068 14.308 57.6774 14.4153 57.2854 14.63C56.9028 14.8353 56.5948 15.1527 56.3614 15.582C56.1281 16.0113 56.0114 16.534 56.0114 17.15C56.0114 17.7753 56.1234 18.3027 56.3474 18.732C56.5808 19.1613 56.8888 19.4833 57.2714 19.698C57.6541 19.9033 58.0741 20.006 58.5314 20.006ZM64.7985 12.082C64.5558 12.082 64.3505 11.998 64.1825 11.83C64.0145 11.662 63.9305 11.4567 63.9305 11.214C63.9305 10.9713 64.0145 10.766 64.1825 10.598C64.3505 10.43 64.5558 10.346 64.7985 10.346C65.0318 10.346 65.2278 10.43 65.3865 10.598C65.5545 10.766 65.6385 10.9713 65.6385 11.214C65.6385 11.4567 65.5545 11.662 65.3865 11.83C65.2278 11.998 65.0318 12.082 64.7985 12.082ZM65.4145 13.328V21H64.1405V13.328H65.4145ZM70.3018 21.126C69.7138 21.126 69.1865 21.028 68.7198 20.832C68.2531 20.6267 67.8845 20.3467 67.6138 19.992C67.3431 19.628 67.1938 19.2127 67.1658 18.746H68.4818C68.5191 19.1287 68.6965 19.4413 69.0138 19.684C69.3405 19.9267 69.7651 20.048 70.2878 20.048C70.7731 20.048 71.1558 19.9407 71.4358 19.726C71.7158 19.5113 71.8558 19.2407 71.8558 18.914C71.8558 18.578 71.7065 18.3307 71.4078 18.172C71.1091 18.004 70.6471 17.8407 70.0218 17.682C69.4525 17.5327 68.9858 17.3833 68.6218 17.234C68.2671 17.0753 67.9591 16.8467 67.6978 16.548C67.4458 16.24 67.3198 15.8387 67.3198 15.344C67.3198 14.952 67.4365 14.5927 67.6698 14.266C67.9031 13.9393 68.2345 13.6827 68.6638 13.496C69.0931 13.3 69.5831 13.202 70.1338 13.202C70.9831 13.202 71.6691 13.4167 72.1918 13.846C72.7145 14.2753 72.9945 14.8633 73.0318 15.61H71.7578C71.7298 15.2087 71.5665 14.8867 71.2678 14.644C70.9785 14.4013 70.5865 14.28 70.0918 14.28C69.6345 14.28 69.2705 14.378 68.9998 14.574C68.7291 14.77 68.5938 15.0267 68.5938 15.344C68.5938 15.596 68.6731 15.806 68.8318 15.974C68.9998 16.1327 69.2051 16.2633 69.4478 16.366C69.6998 16.4593 70.0451 16.5667 70.4838 16.688C71.0345 16.8373 71.4825 16.9867 71.8278 17.136C72.1731 17.276 72.4671 17.4907 72.7098 17.78C72.9618 18.0693 73.0925 18.4473 73.1018 18.914C73.1018 19.334 72.9851 19.712 72.7518 20.048C72.5185 20.384 72.1871 20.65 71.7578 20.846C71.3378 21.0327 70.8525 21.126 70.3018 21.126ZM78.2463 21.126C77.5276 21.126 76.8743 20.9627 76.2863 20.636C75.7076 20.3093 75.2503 19.8473 74.9143 19.25C74.5876 18.6433 74.4243 17.9433 74.4243 17.15C74.4243 16.366 74.5923 15.6753 74.9283 15.078C75.2736 14.4713 75.7403 14.0093 76.3283 13.692C76.9163 13.3653 77.5743 13.202 78.3023 13.202C79.0303 13.202 79.6883 13.3653 80.2763 13.692C80.8643 14.0093 81.3263 14.4667 81.6623 15.064C82.0076 15.6613 82.1803 16.3567 82.1803 17.15C82.1803 17.9433 82.0029 18.6433 81.6483 19.25C81.3029 19.8473 80.8316 20.3093 80.2343 20.636C79.6369 20.9627 78.9743 21.126 78.2463 21.126ZM78.2463 20.006C78.7036 20.006 79.1329 19.8987 79.5343 19.684C79.9356 19.4693 80.2576 19.1473 80.5003 18.718C80.7523 18.2887 80.8783 17.766 80.8783 17.15C80.8783 16.534 80.7569 16.0113 80.5143 15.582C80.2716 15.1527 79.9543 14.8353 79.5623 14.63C79.1703 14.4153 78.7456 14.308 78.2883 14.308C77.8216 14.308 77.3923 14.4153 77.0003 14.63C76.6176 14.8353 76.3096 15.1527 76.0763 15.582C75.8429 16.0113 75.7263 16.534 75.7263 17.15C75.7263 17.7753 75.8383 18.3027 76.0623 18.732C76.2956 19.1613 76.6036 19.4833 76.9863 19.698C77.3689 19.9033 77.7889 20.006 78.2463 20.006ZM87.5933 13.188C88.5267 13.188 89.2827 13.4727 89.8613 14.042C90.44 14.602 90.7293 15.414 90.7293 16.478V21H89.4693V16.66C89.4693 15.8947 89.278 15.3113 88.8953 14.91C88.5127 14.4993 87.99 14.294 87.3273 14.294C86.6553 14.294 86.1187 14.504 85.7173 14.924C85.3253 15.344 85.1293 15.9553 85.1293 16.758V21H83.8553V13.328H85.1293V14.42C85.3813 14.028 85.722 13.7247 86.1513 13.51C86.59 13.2953 87.0707 13.188 87.5933 13.188Z" fill="white"/>
<rect x="0.5" y="0.5" width="100" height="32" rx="8.5" stroke="white" stroke-opacity="0.47" stroke-dasharray="2 2"/>
<defs>
<clipPath id="clip0_2_60">
<rect width="20" height="20" fill="white" transform="translate(9 6)"/>
</clipPath>
</defs>
</svg>
