<svg width="21" height="21" viewBox="0 0 21 21" fill="none" xmlns="http://www.w3.org/2000/svg">
<path fill-rule="evenodd" clip-rule="evenodd" d="M18.7 17.4392C18.7 17.4392 16.0521 19.5629 10.7827 18.6841C6.78493 18.0173 4.65269 13.6103 4.65269 11.2415C4.65269 5.62525 8.80946 4.34716 11.6197 4.34716C14.43 4.34716 16.2632 7.08701 16.2632 9.20834C16.2632 11.3297 14.7629 13.1851 12.428 13.1851C10.0931 13.1851 9.4016 11.5459 9.4016 10.0389C9.4016 8.53191 10.6209 8.00096 11.7328 8.00096C12.8448 8.00096 13.2256 8.95031 13.2256 9.76623C13.2256 10.5822 12.5925 10.8744 12.0645 10.8744C11.5364 10.8744 11.4842 10.608 11.2821 10.328C11.08 10.0481 11.5399 8.98841 10.7827 8.98841C10.0256 8.98841 9.88444 10.2066 9.88444 10.2066C9.88444 10.2066 10.1605 12.5582 12.428 12.5176C14.6955 12.477 15.7712 10.724 15.4586 8.98841C15.146 7.25279 13.4616 5.40853 10.5055 5.78119C7.54929 6.15386 6.34233 9.14078 6.87434 12.3328C7.40635 15.5248 11.2304 17.3743 14.237 16.7089C17.2437 16.0435 20.2383 13.8668 20.2383 8.34803C20.2383 2.82921 15.4586 -0.488094 9.7593 0.0586171C4.05997 0.605325 0.522087 5.58805 0.748543 11.5749C0.974998 17.5617 6.65581 20.8224 11.4595 20.9904C16.2632 21.1585 19.2081 18.3777 19.2081 18.3777C19.2081 18.3777 19.8704 17.7872 19.6107 17.326C19.3511 16.8648 18.7 17.4392 18.7 17.4392Z" fill="white"/>
</svg>
