<svg width="21" height="17" viewBox="0 0 21 17" fill="none" xmlns="http://www.w3.org/2000/svg">
<path fill-rule="evenodd" clip-rule="evenodd" d="M16.2068 8.03886C16.2056 8.03722 16.2052 8.03517 16.2055 8.03316L17.5452 0.22107C17.5458 0.217473 17.549 0.214844 17.5526 0.214844H17.9766C17.9799 0.214844 17.9828 0.216964 17.9838 0.220081L21.0021 9.77686C21.003 9.77981 21.002 9.78309 20.9995 9.78502L18.7741 11.5226C18.7708 11.5251 18.766 11.5245 18.7635 11.5211L16.2068 8.03886ZM-0.0410156 13.2177C-0.0410156 13.2209 -0.0389322 13.2238 -0.0358521 13.2248L4.55171 14.7248C4.55392 14.7256 4.55639 14.7252 4.55831 14.7239L14.8126 7.64458C14.8143 7.64339 14.8155 7.64154 14.8157 7.63949L15.9154 0.261126C15.9161 0.256598 15.9125 0.252529 15.908 0.252529H6.82525C6.82299 0.252529 6.8209 0.253522 6.81946 0.25524L-0.0392919 8.52928C-0.0404061 8.53064 -0.0410156 8.53232 -0.0410156 8.53408V13.2177ZM6.46337 15.107L11.4752 16.7487C11.4774 16.7495 11.4799 16.7491 11.4819 16.7477L17.4488 12.4676C17.4521 12.4653 17.4529 12.4607 17.4507 12.4574L15.2138 9.12873C15.2115 9.12524 15.2068 9.12434 15.2034 9.12672L6.46337 15.107Z" fill="white"/>
</svg>
