<svg width="21" height="21" viewBox="0 0 21 21" fill="none" xmlns="http://www.w3.org/2000/svg">
<path fill-rule="evenodd" clip-rule="evenodd" d="M0.00209634 10.4396C-0.000697454 10.4348 -0.000698857 10.4289 0.0020926 10.4241L5.28261 1.40209C5.28536 1.39741 5.2904 1.39453 5.29581 1.39453H15.7621C15.7675 1.39453 15.7726 1.39744 15.7753 1.40216L20.9979 10.4242C21.0007 10.4289 21.0007 10.4348 20.9979 10.4395L15.7753 19.4514C15.7726 19.4561 15.7675 19.459 15.7621 19.459H5.29581C5.2904 19.459 5.28536 19.4562 5.28261 19.4515L0.00209634 10.4396ZM15.3652 10.4268C15.3652 13.1128 13.1877 15.2903 10.5016 15.2903C7.81561 15.2903 5.63813 13.1128 5.63813 10.4268C5.63813 7.74072 7.81561 5.56328 10.5016 5.56328C13.1877 5.56328 15.3652 7.74072 15.3652 10.4268Z" fill="white"/>
</svg>
