<svg width="15" height="21" viewBox="0 0 15 21" fill="none" xmlns="http://www.w3.org/2000/svg">
<path fill-rule="evenodd" clip-rule="evenodd" d="M14.3156 14.2125C14.3156 17.9606 11.2658 20.9991 7.50353 20.9991C3.74129 20.9991 0.691406 17.9606 0.691406 14.2125C0.691406 10.5672 7.13504 0.555676 7.48843 0.00934377C7.49651 -0.00311466 7.51058 -0.00311456 7.51862 0.00934389C7.87201 0.555676 14.3156 10.5672 14.3156 14.2125ZM6.36797 18.8233C2.91117 18.067 3.5027 14.2378 3.5027 14.2378C3.5027 14.2378 4.44663 16.5493 6.73731 17.2981C9.02796 18.0468 11.7962 16.9487 11.7962 16.9487C11.7962 16.9487 9.82477 19.5797 6.36797 18.8233Z" fill="white"/>
</svg>
