<svg width="99" height="33" viewBox="0 0 99 33" fill="none" xmlns="http://www.w3.org/2000/svg">
<rect x="1" y="1" width="97" height="31" rx="8" fill="#33A4F5"/>
<path fill-rule="evenodd" clip-rule="evenodd" d="M26.3156 20.2125C26.3156 23.9606 23.2658 26.9991 19.5035 26.9991C15.7413 26.9991 12.6914 23.9606 12.6914 20.2125C12.6914 16.5672 19.135 6.55568 19.4884 6.00934C19.4965 5.99689 19.5106 5.99689 19.5186 6.00934C19.872 6.55568 26.3156 16.5672 26.3156 20.2125ZM18.368 24.8233C14.9112 24.067 15.5027 20.2378 15.5027 20.2378C15.5027 20.2378 16.4466 22.5493 18.7373 23.2981C21.028 24.0468 23.7962 22.9487 23.7962 22.9487C23.7962 22.9487 21.8248 25.5797 18.368 24.8233Z" fill="white"/>
<path d="M60.342 11.242L57.514 21H56.086L53.818 13.146L51.466 21L50.052 21.014L47.322 11.242H48.68L50.808 19.516L53.16 11.242H54.588L56.828 19.488L58.97 11.242H60.342ZM61.2602 17.136C61.2602 16.352 61.4189 15.666 61.7362 15.078C62.0535 14.4807 62.4875 14.0187 63.0382 13.692C63.5982 13.3653 64.2189 13.202 64.9002 13.202C65.5722 13.202 66.1555 13.3467 66.6502 13.636C67.1449 13.9253 67.5135 14.2893 67.7562 14.728V13.328H69.0442V21H67.7562V19.572C67.5042 20.02 67.1262 20.3933 66.6222 20.692C66.1275 20.9813 65.5489 21.126 64.8862 21.126C64.2049 21.126 63.5889 20.958 63.0382 20.622C62.4875 20.286 62.0535 19.8147 61.7362 19.208C61.4189 18.6013 61.2602 17.9107 61.2602 17.136ZM67.7562 17.15C67.7562 16.5713 67.6395 16.0673 67.4062 15.638C67.1729 15.2087 66.8555 14.882 66.4542 14.658C66.0622 14.4247 65.6282 14.308 65.1522 14.308C64.6762 14.308 64.2422 14.42 63.8502 14.644C63.4582 14.868 63.1455 15.1947 62.9122 15.624C62.6789 16.0533 62.5622 16.5573 62.5622 17.136C62.5622 17.724 62.6789 18.2373 62.9122 18.676C63.1455 19.1053 63.4582 19.4367 63.8502 19.67C64.2422 19.894 64.6762 20.006 65.1522 20.006C65.6282 20.006 66.0622 19.894 66.4542 19.67C66.8555 19.4367 67.1729 19.1053 67.4062 18.676C67.6395 18.2373 67.7562 17.7287 67.7562 17.15ZM72.7511 14.378V18.9C72.7511 19.2733 72.8305 19.5393 72.9891 19.698C73.1478 19.8473 73.4231 19.922 73.8151 19.922H74.7531V21H73.6051C72.8958 21 72.3638 20.8367 72.0091 20.51C71.6545 20.1833 71.4771 19.6467 71.4771 18.9V14.378H70.4831V13.328H71.4771V11.396H72.7511V13.328H74.7531V14.378H72.7511ZM83.2968 16.87C83.2968 17.1127 83.2828 17.3693 83.2548 17.64H77.1228C77.1694 18.396 77.4261 18.9887 77.8928 19.418C78.3688 19.838 78.9428 20.048 79.6148 20.048C80.1654 20.048 80.6228 19.922 80.9868 19.67C81.3601 19.4087 81.6214 19.0633 81.7708 18.634H83.1428C82.9374 19.3713 82.5268 19.9733 81.9108 20.44C81.2948 20.8973 80.5294 21.126 79.6148 21.126C78.8868 21.126 78.2334 20.9627 77.6548 20.636C77.0854 20.3093 76.6374 19.8473 76.3108 19.25C75.9841 18.6433 75.8208 17.9433 75.8208 17.15C75.8208 16.3567 75.9794 15.6613 76.2968 15.064C76.6141 14.4667 77.0574 14.0093 77.6268 13.692C78.2054 13.3653 78.8681 13.202 79.6148 13.202C80.3428 13.202 80.9868 13.3607 81.5468 13.678C82.1068 13.9953 82.5361 14.434 82.8348 14.994C83.1428 15.5447 83.2968 16.17 83.2968 16.87ZM81.9808 16.604C81.9808 16.1187 81.8734 15.7033 81.6588 15.358C81.4441 15.0033 81.1501 14.7373 80.7768 14.56C80.4128 14.3733 80.0068 14.28 79.5588 14.28C78.9148 14.28 78.3641 14.4853 77.9068 14.896C77.4588 15.3067 77.2021 15.876 77.1368 16.604H81.9808ZM86.2524 14.574C86.4764 14.1353 86.7937 13.7947 87.2044 13.552C87.6244 13.3093 88.1331 13.188 88.7304 13.188V14.504H88.3944C86.9664 14.504 86.2524 15.2787 86.2524 16.828V21H84.9784V13.328H86.2524V14.574Z" fill="white"/>
<rect x="0.5" y="0.5" width="98" height="32" rx="8.5" stroke="white" stroke-opacity="0.47" stroke-dasharray="2 2"/>
</svg>
