<svg width="107" height="33" viewBox="0 0 107 33" fill="none" xmlns="http://www.w3.org/2000/svg">
<rect x="1" y="1" width="105" height="31" rx="8" fill="#F4D23B"/>
<path fill-rule="evenodd" clip-rule="evenodd" d="M15.2573 6.02394C15.2533 6.01222 15.262 6 15.2744 6H22.6502C22.6581 6 22.6651 6.00515 22.6675 6.01271L26.0553 16.9582C26.0589 16.9698 26.0502 16.9816 26.038 16.9816H21.1277C21.1217 16.9816 21.1174 16.9873 21.119 16.993L23.9352 26.9067C23.9407 26.926 23.9155 26.9385 23.9035 26.9225L12.9592 12.3684C12.9503 12.3565 12.9588 12.3395 12.9736 12.3395H17.4302C17.4364 12.3395 17.4407 12.3334 17.4387 12.3275L15.2573 6.02394Z" fill="white"/>
<path d="M49.352 12.278V15.54H52.908V16.59H49.352V19.95H53.328V21H48.078V11.228H53.328V12.278H49.352ZM56.5297 10.64V21H55.2557V10.64H56.5297ZM65.701 16.87C65.701 17.1127 65.687 17.3693 65.659 17.64H59.527C59.5737 18.396 59.8304 18.9887 60.297 19.418C60.773 19.838 61.347 20.048 62.019 20.048C62.5697 20.048 63.027 19.922 63.391 19.67C63.7644 19.4087 64.0257 19.0633 64.175 18.634H65.547C65.3417 19.3713 64.931 19.9733 64.315 20.44C63.699 20.8973 62.9337 21.126 62.019 21.126C61.291 21.126 60.6377 20.9627 60.059 20.636C59.4897 20.3093 59.0417 19.8473 58.715 19.25C58.3884 18.6433 58.225 17.9433 58.225 17.15C58.225 16.3567 58.3837 15.6613 58.701 15.064C59.0184 14.4667 59.4617 14.0093 60.031 13.692C60.6097 13.3653 61.2724 13.202 62.019 13.202C62.747 13.202 63.391 13.3607 63.951 13.678C64.511 13.9953 64.9404 14.434 65.239 14.994C65.547 15.5447 65.701 16.17 65.701 16.87ZM64.385 16.604C64.385 16.1187 64.2777 15.7033 64.063 15.358C63.8484 15.0033 63.5544 14.7373 63.181 14.56C62.817 14.3733 62.411 14.28 61.963 14.28C61.319 14.28 60.7684 14.4853 60.311 14.896C59.863 15.3067 59.6064 15.876 59.541 16.604H64.385ZM66.9067 17.15C66.9067 16.3567 67.0654 15.666 67.3827 15.078C67.7 14.4807 68.1387 14.0187 68.6987 13.692C69.268 13.3653 69.9167 13.202 70.6447 13.202C71.5874 13.202 72.362 13.4307 72.9687 13.888C73.5847 14.3453 73.9907 14.98 74.1867 15.792H72.8147C72.684 15.3253 72.4274 14.9567 72.0447 14.686C71.6714 14.4153 71.2047 14.28 70.6447 14.28C69.9167 14.28 69.3287 14.532 68.8807 15.036C68.4327 15.5307 68.2087 16.2353 68.2087 17.15C68.2087 18.074 68.4327 18.788 68.8807 19.292C69.3287 19.796 69.9167 20.048 70.6447 20.048C71.2047 20.048 71.6714 19.9173 72.0447 19.656C72.418 19.3947 72.6747 19.0213 72.8147 18.536H74.1867C73.9814 19.32 73.5707 19.95 72.9547 20.426C72.3387 20.8927 71.5687 21.126 70.6447 21.126C69.9167 21.126 69.268 20.9627 68.6987 20.636C68.1387 20.3093 67.7 19.8473 67.3827 19.25C67.0654 18.6527 66.9067 17.9527 66.9067 17.15ZM77.4406 14.378V18.9C77.4406 19.2733 77.5199 19.5393 77.6786 19.698C77.8373 19.8473 78.1126 19.922 78.5046 19.922H79.4426V21H78.2946C77.5853 21 77.0533 20.8367 76.6986 20.51C76.3439 20.1833 76.1666 19.6467 76.1666 18.9V14.378H75.1726V13.328H76.1666V11.396H77.4406V13.328H79.4426V14.378H77.4406ZM82.2602 14.574C82.4842 14.1353 82.8015 13.7947 83.2122 13.552C83.6322 13.3093 84.1409 13.188 84.7382 13.188V14.504H84.4022C82.9742 14.504 82.2602 15.2787 82.2602 16.828V21H80.9862V13.328H82.2602V14.574ZM86.8669 12.082C86.6242 12.082 86.4189 11.998 86.2509 11.83C86.0829 11.662 85.9989 11.4567 85.9989 11.214C85.9989 10.9713 86.0829 10.766 86.2509 10.598C86.4189 10.43 86.6242 10.346 86.8669 10.346C87.1002 10.346 87.2962 10.43 87.4549 10.598C87.6229 10.766 87.7069 10.9713 87.7069 11.214C87.7069 11.4567 87.6229 11.662 87.4549 11.83C87.2962 11.998 87.1002 12.082 86.8669 12.082ZM87.4829 13.328V21H86.2089V13.328H87.4829ZM89.1782 17.15C89.1782 16.3567 89.3368 15.666 89.6542 15.078C89.9715 14.4807 90.4102 14.0187 90.9702 13.692C91.5395 13.3653 92.1882 13.202 92.9162 13.202C93.8588 13.202 94.6335 13.4307 95.2402 13.888C95.8562 14.3453 96.2622 14.98 96.4582 15.792H95.0862C94.9555 15.3253 94.6988 14.9567 94.3162 14.686C93.9428 14.4153 93.4762 14.28 92.9162 14.28C92.1882 14.28 91.6002 14.532 91.1522 15.036C90.7042 15.5307 90.4802 16.2353 90.4802 17.15C90.4802 18.074 90.7042 18.788 91.1522 19.292C91.6002 19.796 92.1882 20.048 92.9162 20.048C93.4762 20.048 93.9428 19.9173 94.3162 19.656C94.6895 19.3947 94.9462 19.0213 95.0862 18.536H96.4582C96.2528 19.32 95.8422 19.95 95.2262 20.426C94.6102 20.8927 93.8402 21.126 92.9162 21.126C92.1882 21.126 91.5395 20.9627 90.9702 20.636C90.4102 20.3093 89.9715 19.8473 89.6542 19.25C89.3368 18.6527 89.1782 17.9527 89.1782 17.15Z" fill="white"/>
<rect x="0.5" y="0.5" width="106" height="32" rx="8.5" stroke="white" stroke-opacity="0.47" stroke-dasharray="2 2"/>
</svg>
