<svg width="90" height="33" viewBox="0 0 90 33" fill="none" xmlns="http://www.w3.org/2000/svg">
<rect x="1" y="1" width="88" height="31" rx="8" fill="#EC8FE6"/>
<g clip-path="url(#clip0_625_42)">
<path fill-rule="evenodd" clip-rule="evenodd" d="M13.2134 22.6514L16.5817 21.6748L19.4909 26.9941C19.4947 27.001 19.5046 27.001 19.5084 26.9941L22.4176 21.6748L25.7859 22.6514C25.7935 22.6536 25.8005 22.6466 25.7982 22.6391L24.8214 19.3374L29.9941 16.5084C30.001 16.5046 30.001 16.4947 29.9941 16.4909L24.7788 13.6385L25.7982 10.1928C25.8005 10.1853 25.7935 10.1783 25.7859 10.1804L22.3386 11.18L19.5084 6.00518C19.5046 5.99827 19.4947 5.99827 19.4909 6.00518L16.6607 11.18L13.2134 10.1804C13.2058 10.1783 13.1988 10.1853 13.2011 10.1928L14.2205 13.6385L9.00518 16.4909C8.99827 16.4947 8.99827 16.5046 9.00518 16.5084L14.1779 19.3374L13.2011 22.6391C13.1988 22.6466 13.2058 22.6536 13.2134 22.6514ZM15.8271 16.5359L18.2134 17.841L19.5185 20.2272C19.5222 20.2341 19.5322 20.2341 19.5359 20.2272L20.841 17.841L23.2272 16.5359C23.2341 16.5322 23.2341 16.5222 23.2272 16.5185L20.841 15.2134L19.5359 12.8272C19.5322 12.8202 19.5222 12.8202 19.5185 12.8272L18.2134 15.2134L15.8271 16.5185C15.8202 16.5222 15.8202 16.5322 15.8271 16.5359Z" fill="white"/>
</g>
<path d="M53.594 11.242V12.278H49.352V15.568H52.796V16.604H49.352V21H48.078V11.242H53.594ZM54.6567 17.136C54.6567 16.352 54.8154 15.666 55.1327 15.078C55.45 14.4807 55.884 14.0187 56.4347 13.692C56.9947 13.3653 57.6154 13.202 58.2967 13.202C58.9687 13.202 59.552 13.3467 60.0467 13.636C60.5414 13.9253 60.91 14.2893 61.1527 14.728V13.328H62.4407V21H61.1527V19.572C60.9007 20.02 60.5227 20.3933 60.0187 20.692C59.524 20.9813 58.9454 21.126 58.2827 21.126C57.6014 21.126 56.9854 20.958 56.4347 20.622C55.884 20.286 55.45 19.8147 55.1327 19.208C54.8154 18.6013 54.6567 17.9107 54.6567 17.136ZM61.1527 17.15C61.1527 16.5713 61.036 16.0673 60.8027 15.638C60.5694 15.2087 60.252 14.882 59.8507 14.658C59.4587 14.4247 59.0247 14.308 58.5487 14.308C58.0727 14.308 57.6387 14.42 57.2467 14.644C56.8547 14.868 56.542 15.1947 56.3087 15.624C56.0754 16.0533 55.9587 16.5573 55.9587 17.136C55.9587 17.724 56.0754 18.2373 56.3087 18.676C56.542 19.1053 56.8547 19.4367 57.2467 19.67C57.6387 19.894 58.0727 20.006 58.5487 20.006C59.0247 20.006 59.4587 19.894 59.8507 19.67C60.252 19.4367 60.5694 19.1053 60.8027 18.676C61.036 18.2373 61.1527 17.7287 61.1527 17.15ZM65.2516 12.082C65.009 12.082 64.8036 11.998 64.6356 11.83C64.4676 11.662 64.3836 11.4567 64.3836 11.214C64.3836 10.9713 64.4676 10.766 64.6356 10.598C64.8036 10.43 65.009 10.346 65.2516 10.346C65.485 10.346 65.681 10.43 65.8396 10.598C66.0076 10.766 66.0916 10.9713 66.0916 11.214C66.0916 11.4567 66.0076 11.662 65.8396 11.83C65.681 11.998 65.485 12.082 65.2516 12.082ZM65.8676 13.328V21H64.5936V13.328H65.8676ZM69.3129 14.574C69.5369 14.1353 69.8543 13.7947 70.2649 13.552C70.6849 13.3093 71.1936 13.188 71.7909 13.188V14.504H71.4549C70.0269 14.504 69.3129 15.2787 69.3129 16.828V21H68.0389V13.328H69.3129V14.574ZM79.8696 13.328L75.2496 24.612H73.9336L75.4456 20.916L72.3516 13.328H73.7656L76.1736 19.544L78.5536 13.328H79.8696Z" fill="white"/>
<rect x="0.5" y="0.5" width="89" height="32" rx="8.5" stroke="white" stroke-opacity="0.47" stroke-dasharray="2 2"/>
<defs>
<clipPath id="clip0_625_42">
<rect width="21" height="21" fill="white" transform="translate(9 6)"/>
</clipPath>
</defs>
</svg>
