<svg width="76" height="33" viewBox="0 0 76 33" fill="none" xmlns="http://www.w3.org/2000/svg">
<rect x="1" y="1" width="74" height="31" rx="8" fill="#F44900"/>
<path fill-rule="evenodd" clip-rule="evenodd" d="M21.0215 22.2173C21.2853 21.2686 20.7732 19.3182 20.7732 19.3182C20.7732 19.3182 20.4018 20.9071 19.8214 21.4944C19.3263 21.9953 18.7197 22.3427 17.8498 22.434C18.5611 22.0942 19.0502 21.3858 19.0502 20.5669C19.0502 19.4174 18.0863 18.4855 16.8974 18.4855C15.7084 18.4855 14.7445 19.4174 14.7445 20.5669C14.7445 20.8808 14.8164 21.1786 14.9452 21.4455C14.2015 20.8628 14.0846 19.9287 14.0846 19.9287C14.0846 19.9287 13.2542 23.3194 15.5423 24.9144C17.8304 26.5095 22.3126 25.1385 22.3126 25.1385C22.3126 25.1385 15.8982 29.5773 11.1451 24.7462C7.05064 20.5845 10.0764 15.1056 10.0764 15.1056C10.0764 15.1056 9.94575 15.6139 9.94575 16.2039C9.94575 16.7939 10.271 17.2428 10.271 17.2428C10.271 17.2428 11.2413 15.2314 11.9963 14.4135C12.711 13.6393 13.6068 13.0115 14.3806 12.4692C14.9762 12.0517 15.4995 11.6849 15.812 11.3412C17.5334 9.44813 16.478 6 16.478 6C16.478 6 18.4184 7.68246 18.9602 9.85538C19.1667 10.6837 19.0338 11.6261 18.915 12.4688C18.7222 13.8369 18.5664 14.9424 19.9595 14.8707C22.2107 14.7547 20.2544 11.3412 20.2544 11.3412C20.2544 11.3412 25.3611 13.9809 24.9796 18.5977C24.5981 23.2146 19.3978 24.2641 19.3978 24.2641C19.3978 24.2641 20.7576 23.1661 21.0215 22.2173Z" fill="white"/>
<path d="M48.594 11.242V12.278H44.352V15.568H47.796V16.604H44.352V21H43.078V11.242H48.594ZM50.7907 12.082C50.548 12.082 50.3427 11.998 50.1747 11.83C50.0067 11.662 49.9227 11.4567 49.9227 11.214C49.9227 10.9713 50.0067 10.766 50.1747 10.598C50.3427 10.43 50.548 10.346 50.7907 10.346C51.024 10.346 51.22 10.43 51.3787 10.598C51.5467 10.766 51.6307 10.9713 51.6307 11.214C51.6307 11.4567 51.5467 11.662 51.3787 11.83C51.22 11.998 51.024 12.082 50.7907 12.082ZM51.4067 13.328V21H50.1327V13.328H51.4067ZM54.852 14.574C55.076 14.1353 55.3933 13.7947 55.804 13.552C56.224 13.3093 56.7327 13.188 57.33 13.188V14.504H56.994C55.566 14.504 54.852 15.2787 54.852 16.828V21H53.578V13.328H54.852V14.574ZM65.8007 16.87C65.8007 17.1127 65.7867 17.3693 65.7587 17.64H59.6267C59.6733 18.396 59.93 18.9887 60.3967 19.418C60.8727 19.838 61.4467 20.048 62.1187 20.048C62.6693 20.048 63.1267 19.922 63.4907 19.67C63.864 19.4087 64.1253 19.0633 64.2747 18.634H65.6467C65.4413 19.3713 65.0307 19.9733 64.4147 20.44C63.7987 20.8973 63.0333 21.126 62.1187 21.126C61.3907 21.126 60.7373 20.9627 60.1587 20.636C59.5893 20.3093 59.1413 19.8473 58.8147 19.25C58.488 18.6433 58.3247 17.9433 58.3247 17.15C58.3247 16.3567 58.4833 15.6613 58.8007 15.064C59.118 14.4667 59.5613 14.0093 60.1307 13.692C60.7093 13.3653 61.372 13.202 62.1187 13.202C62.8467 13.202 63.4907 13.3607 64.0507 13.678C64.6107 13.9953 65.04 14.434 65.3387 14.994C65.6467 15.5447 65.8007 16.17 65.8007 16.87ZM64.4847 16.604C64.4847 16.1187 64.3773 15.7033 64.1627 15.358C63.948 15.0033 63.654 14.7373 63.2807 14.56C62.9167 14.3733 62.5107 14.28 62.0627 14.28C61.4187 14.28 60.868 14.4853 60.4107 14.896C59.9627 15.3067 59.706 15.876 59.6407 16.604H64.4847Z" fill="white"/>
<rect x="0.5" y="0.5" width="75" height="32" rx="8.5" stroke="white" stroke-opacity="0.47" stroke-dasharray="2 2"/>
</svg>
