<svg width="97" height="33" viewBox="0 0 97 33" fill="none" xmlns="http://www.w3.org/2000/svg">
<rect x="1" y="1" width="95" height="31" rx="8" fill="#6892B0"/>
<path fill-rule="evenodd" clip-rule="evenodd" d="M16.33 25.5945C19.4063 25.5945 22.04 23.8848 23.1273 21.4611C23.1405 21.4315 18.762 22.599 18.9016 22.1863C18.964 22.002 21.648 21.0215 23.6035 19.8778C24.7275 19.2204 25.2451 17.8289 25.2451 17.8289C25.2451 17.8289 23.3515 18.7483 22.3942 18.9815C20.4652 19.4515 18.7671 19.4009 18.7671 19.3519C18.7671 19.246 21.5867 18.7103 25.5057 16.3222C27.349 15.1989 27.8497 13.264 27.8497 13.264C27.8497 13.264 25.8231 14.4712 24.598 14.8697C21.6926 15.8148 19.0412 16.0996 19.0412 15.9718C19.0412 15.6979 21.3745 15.0563 23.8483 13.8576C25.1346 13.2344 26.2485 12.4202 27.5394 11.5147C29.6516 10.0331 30 7.39453 30 7.39453C30 7.39453 27.9167 8.73821 26.9 9.18443C22.705 11.0257 19.0008 11.9915 16.33 12.2006C12.2983 12.5163 9 15.3292 9 18.9815C9 22.6338 12.2817 25.5945 16.33 25.5945Z" fill="white"/>
<path d="M53.594 11.242V12.278H49.352V15.568H52.796V16.604H49.352V21H48.078V11.242H53.594ZM56.4067 10.64V21H55.1327V10.64H56.4067ZM65.186 13.328L60.566 24.612H59.25L60.762 20.916L57.668 13.328H59.082L61.49 19.544L63.87 13.328H65.186ZM67.1247 12.082C66.882 12.082 66.6767 11.998 66.5087 11.83C66.3407 11.662 66.2567 11.4567 66.2567 11.214C66.2567 10.9713 66.3407 10.766 66.5087 10.598C66.6767 10.43 66.882 10.346 67.1247 10.346C67.358 10.346 67.554 10.43 67.7127 10.598C67.8807 10.766 67.9647 10.9713 67.9647 11.214C67.9647 11.4567 67.8807 11.662 67.7127 11.83C67.554 11.998 67.358 12.082 67.1247 12.082ZM67.7407 13.328V21H66.4667V13.328H67.7407ZM73.65 13.188C74.5833 13.188 75.3393 13.4727 75.918 14.042C76.4967 14.602 76.786 15.414 76.786 16.478V21H75.526V16.66C75.526 15.8947 75.3347 15.3113 74.952 14.91C74.5693 14.4993 74.0467 14.294 73.384 14.294C72.712 14.294 72.1753 14.504 71.774 14.924C71.382 15.344 71.186 15.9553 71.186 16.758V21H69.912V13.328H71.186V14.42C71.438 14.028 71.7787 13.7247 72.208 13.51C72.6467 13.2953 73.1273 13.188 73.65 13.188ZM82.0311 13.202C82.6937 13.202 83.2724 13.3467 83.7671 13.636C84.2711 13.9253 84.6444 14.2893 84.8871 14.728V13.328H86.1751V21.168C86.1751 21.868 86.0257 22.4887 85.7271 23.03C85.4284 23.5807 84.9991 24.01 84.4391 24.318C83.8884 24.626 83.2444 24.78 82.5071 24.78C81.4991 24.78 80.6591 24.542 79.9871 24.066C79.3151 23.59 78.9184 22.9413 78.7971 22.12H80.0571C80.1971 22.5867 80.4864 22.96 80.9251 23.24C81.3637 23.5293 81.8911 23.674 82.5071 23.674C83.2071 23.674 83.7764 23.4547 84.2151 23.016C84.6631 22.5773 84.8871 21.9613 84.8871 21.168V19.558C84.6351 20.006 84.2617 20.3793 83.7671 20.678C83.2724 20.9767 82.6937 21.126 82.0311 21.126C81.3497 21.126 80.7291 20.958 80.1691 20.622C79.6184 20.286 79.1844 19.8147 78.8671 19.208C78.5497 18.6013 78.3911 17.9107 78.3911 17.136C78.3911 16.352 78.5497 15.666 78.8671 15.078C79.1844 14.4807 79.6184 14.0187 80.1691 13.692C80.7291 13.3653 81.3497 13.202 82.0311 13.202ZM84.8871 17.15C84.8871 16.5713 84.7704 16.0673 84.5371 15.638C84.3037 15.2087 83.9864 14.882 83.5851 14.658C83.1931 14.4247 82.7591 14.308 82.2831 14.308C81.8071 14.308 81.3731 14.42 80.9811 14.644C80.5891 14.868 80.2764 15.1947 80.0431 15.624C79.8097 16.0533 79.6931 16.5573 79.6931 17.136C79.6931 17.724 79.8097 18.2373 80.0431 18.676C80.2764 19.1053 80.5891 19.4367 80.9811 19.67C81.3731 19.894 81.8071 20.006 82.2831 20.006C82.7591 20.006 83.1931 19.894 83.5851 19.67C83.9864 19.4367 84.3037 19.1053 84.5371 18.676C84.7704 18.2373 84.8871 17.7287 84.8871 17.15Z" fill="white"/>
<rect x="0.5" y="0.5" width="96" height="32" rx="8.5" stroke="white" stroke-opacity="0.47" stroke-dasharray="2 2"/>
</svg>
