<svg width="109" height="33" viewBox="0 0 109 33" fill="none" xmlns="http://www.w3.org/2000/svg">
<rect x="1" y="1" width="107" height="31" rx="8" fill="#D97745"/>
<g clip-path="url(#clip0_625_70)">
<path fill-rule="evenodd" clip-rule="evenodd" d="M13.6251 24.0368C13.6194 24.0368 13.6154 24.0312 13.6173 24.0258L18.9787 8.87659C18.9798 8.8733 18.983 8.87109 18.9864 8.87109H24.7098C24.7133 8.87109 24.7165 8.87331 24.7176 8.87663L29.9995 24.0258C30.0013 24.0312 29.9973 24.0368 29.9917 24.0368H13.7862H13.6251ZM9.00826 24.0961C9.0025 24.0961 8.99851 24.0903 9.00053 24.0849L12.993 13.4261C12.9942 13.4229 12.9973 13.4208 13.0007 13.4208H16.4697C16.4754 13.4208 16.4794 13.4265 16.4774 13.4318L12.6169 24.0906C12.6157 24.0939 12.6126 24.0961 12.6091 24.0961H9.00826Z" fill="white"/>
</g>
<path d="M55.47 14.07C55.1993 13.5007 54.8073 13.062 54.294 12.754C53.7807 12.4367 53.1833 12.278 52.502 12.278C51.8207 12.278 51.2047 12.4367 50.654 12.754C50.1127 13.062 49.6833 13.51 49.366 14.098C49.058 14.6767 48.904 15.3487 48.904 16.114C48.904 16.8793 49.058 17.5513 49.366 18.13C49.6833 18.7087 50.1127 19.1567 50.654 19.474C51.2047 19.782 51.8207 19.936 52.502 19.936C53.454 19.936 54.238 19.6513 54.854 19.082C55.47 18.5127 55.8293 17.7427 55.932 16.772H52.04V15.736H57.29V16.716C57.2153 17.5187 56.9633 18.256 56.534 18.928C56.1047 19.5907 55.54 20.118 54.84 20.51C54.14 20.8927 53.3607 21.084 52.502 21.084C51.5967 21.084 50.7707 20.874 50.024 20.454C49.2773 20.0247 48.6847 19.432 48.246 18.676C47.8167 17.92 47.602 17.066 47.602 16.114C47.602 15.162 47.8167 14.308 48.246 13.552C48.6847 12.7867 49.2773 12.194 50.024 11.774C50.7707 11.3447 51.5967 11.13 52.502 11.13C53.538 11.13 54.4527 11.3867 55.246 11.9C56.0487 12.4133 56.632 13.1367 56.996 14.07H55.47ZM60.2485 14.574C60.4725 14.1353 60.7898 13.7947 61.2005 13.552C61.6205 13.3093 62.1292 13.188 62.7265 13.188V14.504H62.3905C60.9625 14.504 60.2485 15.2787 60.2485 16.828V21H58.9745V13.328H60.2485V14.574ZM67.5431 21.126C66.8245 21.126 66.1711 20.9627 65.5831 20.636C65.0045 20.3093 64.5471 19.8473 64.2111 19.25C63.8845 18.6433 63.7211 17.9433 63.7211 17.15C63.7211 16.366 63.8891 15.6753 64.2251 15.078C64.5705 14.4713 65.0371 14.0093 65.6251 13.692C66.2131 13.3653 66.8711 13.202 67.5991 13.202C68.3271 13.202 68.9851 13.3653 69.5731 13.692C70.1611 14.0093 70.6231 14.4667 70.9591 15.064C71.3045 15.6613 71.4771 16.3567 71.4771 17.15C71.4771 17.9433 71.2998 18.6433 70.9451 19.25C70.5998 19.8473 70.1285 20.3093 69.5311 20.636C68.9338 20.9627 68.2711 21.126 67.5431 21.126ZM67.5431 20.006C68.0005 20.006 68.4298 19.8987 68.8311 19.684C69.2325 19.4693 69.5545 19.1473 69.7971 18.718C70.0491 18.2887 70.1751 17.766 70.1751 17.15C70.1751 16.534 70.0538 16.0113 69.8111 15.582C69.5685 15.1527 69.2511 14.8353 68.8591 14.63C68.4671 14.4153 68.0425 14.308 67.5851 14.308C67.1185 14.308 66.6891 14.4153 66.2971 14.63C65.9145 14.8353 65.6065 15.1527 65.3731 15.582C65.1398 16.0113 65.0231 16.534 65.0231 17.15C65.0231 17.7753 65.1351 18.3027 65.3591 18.732C65.5925 19.1613 65.9005 19.4833 66.2831 19.698C66.6658 19.9033 67.0858 20.006 67.5431 20.006ZM79.9562 13.328V21H78.6822V19.866C78.4396 20.258 78.0989 20.566 77.6602 20.79C77.2309 21.0047 76.7549 21.112 76.2322 21.112C75.6349 21.112 75.0982 20.9907 74.6222 20.748C74.1462 20.496 73.7682 20.1227 73.4882 19.628C73.2176 19.1333 73.0822 18.5313 73.0822 17.822V13.328H74.3422V17.654C74.3422 18.41 74.5336 18.9933 74.9162 19.404C75.2989 19.8053 75.8216 20.006 76.4842 20.006C77.1656 20.006 77.7022 19.796 78.0942 19.376C78.4862 18.956 78.6822 18.3447 78.6822 17.542V13.328H79.9562ZM85.8453 13.188C86.7786 13.188 87.5346 13.4727 88.1133 14.042C88.692 14.602 88.9813 15.414 88.9813 16.478V21H87.7213V16.66C87.7213 15.8947 87.53 15.3113 87.1473 14.91C86.7646 14.4993 86.242 14.294 85.5793 14.294C84.9073 14.294 84.3706 14.504 83.9693 14.924C83.5773 15.344 83.3813 15.9553 83.3813 16.758V21H82.1073V13.328H83.3813V14.42C83.6333 14.028 83.974 13.7247 84.4033 13.51C84.842 13.2953 85.3226 13.188 85.8453 13.188ZM90.5864 17.136C90.5864 16.352 90.745 15.666 91.0624 15.078C91.3797 14.4807 91.8137 14.0187 92.3644 13.692C92.9244 13.3653 93.5497 13.202 94.2404 13.202C94.8377 13.202 95.393 13.342 95.9064 13.622C96.4197 13.8927 96.8117 14.252 97.0824 14.7V10.64H98.3704V21H97.0824V19.558C96.8304 20.0153 96.457 20.3933 95.9624 20.692C95.4677 20.9813 94.889 21.126 94.2264 21.126C93.545 21.126 92.9244 20.958 92.3644 20.622C91.8137 20.286 91.3797 19.8147 91.0624 19.208C90.745 18.6013 90.5864 17.9107 90.5864 17.136ZM97.0824 17.15C97.0824 16.5713 96.9657 16.0673 96.7324 15.638C96.499 15.2087 96.1817 14.882 95.7804 14.658C95.3884 14.4247 94.9544 14.308 94.4784 14.308C94.0024 14.308 93.5684 14.42 93.1764 14.644C92.7844 14.868 92.4717 15.1947 92.2384 15.624C92.005 16.0533 91.8884 16.5573 91.8884 17.136C91.8884 17.724 92.005 18.2373 92.2384 18.676C92.4717 19.1053 92.7844 19.4367 93.1764 19.67C93.5684 19.894 94.0024 20.006 94.4784 20.006C94.9544 20.006 95.3884 19.894 95.7804 19.67C96.1817 19.4367 96.499 19.1053 96.7324 18.676C96.9657 18.2373 97.0824 17.7287 97.0824 17.15Z" fill="white"/>
<rect x="0.5" y="0.5" width="108" height="32" rx="8.5" stroke="white" stroke-opacity="0.47" stroke-dasharray="2 2"/>
<defs>
<clipPath id="clip0_625_70">
<rect width="21" height="21" fill="white" transform="translate(9 6)"/>
</clipPath>
</defs>
</svg>
