<svg width="109" height="33" viewBox="0 0 109 33" fill="none" xmlns="http://www.w3.org/2000/svg">
<rect x="1" y="1" width="107" height="31" rx="8" fill="#F67176"/>
<g clip-path="url(#clip0_625_89)">
<path fill-rule="evenodd" clip-rule="evenodd" d="M27.7 23.4392C27.7 23.4392 25.0521 25.5629 19.7827 24.6841C15.7849 24.0173 13.6527 19.6103 13.6527 17.2415C13.6527 11.6253 17.8095 10.3472 20.6197 10.3472C23.43 10.3472 25.2632 13.087 25.2632 15.2083C25.2632 17.3297 23.7629 19.1851 21.428 19.1851C19.0931 19.1851 18.4016 17.5459 18.4016 16.0389C18.4016 14.5319 19.6209 14.001 20.7328 14.001C21.8448 14.001 22.2256 14.9503 22.2256 15.7662C22.2256 16.5822 21.5925 16.8744 21.0645 16.8744C20.5364 16.8744 20.4842 16.608 20.2821 16.328C20.08 16.0481 20.5399 14.9884 19.7827 14.9884C19.0256 14.9884 18.8844 16.2066 18.8844 16.2066C18.8844 16.2066 19.1605 18.5582 21.428 18.5176C23.6955 18.477 24.7712 16.724 24.4586 14.9884C24.146 13.2528 22.4616 11.4085 19.5055 11.7812C16.5493 12.1539 15.3423 15.1408 15.8743 18.3328C16.4064 21.5248 20.2304 23.3743 23.237 22.7089C26.2437 22.0435 29.2383 19.8668 29.2383 14.348C29.2383 8.82921 24.4586 5.51191 18.7593 6.05862C13.06 6.60533 9.52209 11.5881 9.74854 17.5749C9.975 23.5617 15.6558 26.8224 20.4595 26.9904C25.2632 27.1585 28.2081 24.3777 28.2081 24.3777C28.2081 24.3777 28.8704 23.7872 28.6107 23.326C28.3511 22.8648 27.7 23.4392 27.7 23.4392Z" fill="white"/>
</g>
<path d="M54.602 14.098C54.602 14.91 54.322 15.5867 53.762 16.128C53.2113 16.66 52.3667 16.926 51.228 16.926H49.352V21H48.078V11.242H51.228C52.3293 11.242 53.1647 11.508 53.734 12.04C54.3127 12.572 54.602 13.258 54.602 14.098ZM51.228 15.876C51.9373 15.876 52.46 15.722 52.796 15.414C53.132 15.106 53.3 14.6673 53.3 14.098C53.3 12.894 52.6093 12.292 51.228 12.292H49.352V15.876H51.228ZM58.9014 21.126C58.3134 21.126 57.7861 21.028 57.3194 20.832C56.8528 20.6267 56.4841 20.3467 56.2134 19.992C55.9428 19.628 55.7934 19.2127 55.7654 18.746H57.0814C57.1188 19.1287 57.2961 19.4413 57.6134 19.684C57.9401 19.9267 58.3648 20.048 58.8874 20.048C59.3728 20.048 59.7554 19.9407 60.0354 19.726C60.3154 19.5113 60.4554 19.2407 60.4554 18.914C60.4554 18.578 60.3061 18.3307 60.0074 18.172C59.7088 18.004 59.2468 17.8407 58.6214 17.682C58.0521 17.5327 57.5854 17.3833 57.2214 17.234C56.8668 17.0753 56.5588 16.8467 56.2974 16.548C56.0454 16.24 55.9194 15.8387 55.9194 15.344C55.9194 14.952 56.0361 14.5927 56.2694 14.266C56.5028 13.9393 56.8341 13.6827 57.2634 13.496C57.6928 13.3 58.1828 13.202 58.7334 13.202C59.5828 13.202 60.2688 13.4167 60.7914 13.846C61.3141 14.2753 61.5941 14.8633 61.6314 15.61H60.3574C60.3294 15.2087 60.1661 14.8867 59.8674 14.644C59.5781 14.4013 59.1861 14.28 58.6914 14.28C58.2341 14.28 57.8701 14.378 57.5994 14.574C57.3288 14.77 57.1934 15.0267 57.1934 15.344C57.1934 15.596 57.2728 15.806 57.4314 15.974C57.5994 16.1327 57.8048 16.2633 58.0474 16.366C58.2994 16.4593 58.6448 16.5667 59.0834 16.688C59.6341 16.8373 60.0821 16.9867 60.4274 17.136C60.7728 17.276 61.0668 17.4907 61.3094 17.78C61.5614 18.0693 61.6921 18.4473 61.7014 18.914C61.7014 19.334 61.5848 19.712 61.3514 20.048C61.1181 20.384 60.7868 20.65 60.3574 20.846C59.9374 21.0327 59.4521 21.126 58.9014 21.126ZM70.1079 13.328L65.4879 24.612H64.1719L65.6839 20.916L62.5899 13.328H64.0039L66.4119 19.544L68.7919 13.328H70.1079ZM70.9125 17.15C70.9125 16.3567 71.0712 15.666 71.3885 15.078C71.7059 14.4807 72.1445 14.0187 72.7045 13.692C73.2739 13.3653 73.9225 13.202 74.6505 13.202C75.5932 13.202 76.3679 13.4307 76.9745 13.888C77.5905 14.3453 77.9965 14.98 78.1925 15.792H76.8205C76.6899 15.3253 76.4332 14.9567 76.0505 14.686C75.6772 14.4153 75.2105 14.28 74.6505 14.28C73.9225 14.28 73.3345 14.532 72.8865 15.036C72.4385 15.5307 72.2145 16.2353 72.2145 17.15C72.2145 18.074 72.4385 18.788 72.8865 19.292C73.3345 19.796 73.9225 20.048 74.6505 20.048C75.2105 20.048 75.6772 19.9173 76.0505 19.656C76.4239 19.3947 76.6805 19.0213 76.8205 18.536H78.1925C77.9872 19.32 77.5765 19.95 76.9605 20.426C76.3445 20.8927 75.5745 21.126 74.6505 21.126C73.9225 21.126 73.2739 20.9627 72.7045 20.636C72.1445 20.3093 71.7059 19.8473 71.3885 19.25C71.0712 18.6527 70.9125 17.9527 70.9125 17.15ZM83.7005 13.188C84.2791 13.188 84.8018 13.314 85.2685 13.566C85.7351 13.8087 86.0991 14.1773 86.3605 14.672C86.6311 15.1667 86.7665 15.7687 86.7665 16.478V21H85.5065V16.66C85.5065 15.8947 85.3151 15.3113 84.9325 14.91C84.5498 14.4993 84.0271 14.294 83.3645 14.294C82.6925 14.294 82.1558 14.504 81.7545 14.924C81.3625 15.344 81.1665 15.9553 81.1665 16.758V21H79.8925V10.64H81.1665V14.42C81.4185 14.028 81.7638 13.7247 82.2025 13.51C82.6505 13.2953 83.1498 13.188 83.7005 13.188ZM89.5055 12.082C89.2629 12.082 89.0575 11.998 88.8895 11.83C88.7215 11.662 88.6375 11.4567 88.6375 11.214C88.6375 10.9713 88.7215 10.766 88.8895 10.598C89.0575 10.43 89.2629 10.346 89.5055 10.346C89.7389 10.346 89.9349 10.43 90.0935 10.598C90.2615 10.766 90.3455 10.9713 90.3455 11.214C90.3455 11.4567 90.2615 11.662 90.0935 11.83C89.9349 11.998 89.7389 12.082 89.5055 12.082ZM90.1215 13.328V21H88.8475V13.328H90.1215ZM91.8168 17.15C91.8168 16.3567 91.9755 15.666 92.2928 15.078C92.6102 14.4807 93.0488 14.0187 93.6088 13.692C94.1782 13.3653 94.8268 13.202 95.5548 13.202C96.4975 13.202 97.2722 13.4307 97.8788 13.888C98.4948 14.3453 98.9008 14.98 99.0968 15.792H97.7248C97.5942 15.3253 97.3375 14.9567 96.9548 14.686C96.5815 14.4153 96.1148 14.28 95.5548 14.28C94.8268 14.28 94.2388 14.532 93.7908 15.036C93.3428 15.5307 93.1188 16.2353 93.1188 17.15C93.1188 18.074 93.3428 18.788 93.7908 19.292C94.2388 19.796 94.8268 20.048 95.5548 20.048C96.1148 20.048 96.5815 19.9173 96.9548 19.656C97.3282 19.3947 97.5848 19.0213 97.7248 18.536H99.0968C98.8915 19.32 98.4808 19.95 97.8648 20.426C97.2488 20.8927 96.4788 21.126 95.5548 21.126C94.8268 21.126 94.1782 20.9627 93.6088 20.636C93.0488 20.3093 92.6102 19.8473 92.2928 19.25C91.9755 18.6527 91.8168 17.9527 91.8168 17.15Z" fill="white"/>
<rect x="0.5" y="0.5" width="108" height="32" rx="8.5" stroke="white" stroke-opacity="0.47" stroke-dasharray="2 2"/>
<defs>
<clipPath id="clip0_625_89">
<rect width="21" height="21" fill="white" transform="translate(9 6)"/>
</clipPath>
</defs>
</svg>
