<svg width="90" height="33" viewBox="0 0 90 33" fill="none" xmlns="http://www.w3.org/2000/svg">
<rect x="1" y="1" width="88" height="31" rx="8" fill="#C7B78B"/>
<g clip-path="url(#clip0_625_102)">
<path fill-rule="evenodd" clip-rule="evenodd" d="M25.2068 16.0389C25.2056 16.0372 25.2052 16.0352 25.2055 16.0332L26.5452 8.22107C26.5458 8.21747 26.549 8.21484 26.5526 8.21484H26.9766C26.9799 8.21484 26.9828 8.21696 26.9838 8.22008L30.0021 17.7769C30.003 17.7798 30.002 17.7831 29.9995 17.785L27.7741 19.5226C27.7708 19.5251 27.766 19.5245 27.7635 19.5211L25.2068 16.0389ZM8.95898 21.2177C8.95898 21.2209 8.96107 21.2238 8.96415 21.2248L13.5517 22.7248C13.5539 22.7256 13.5564 22.7252 13.5583 22.7239L23.8126 15.6446C23.8143 15.6434 23.8155 15.6415 23.8157 15.6395L24.9154 8.26113C24.9161 8.2566 24.9125 8.25253 24.908 8.25253H15.8252C15.823 8.25253 15.8209 8.25352 15.8195 8.25524L8.96071 16.5293C8.95959 16.5306 8.95898 16.5323 8.95898 16.5341V21.2177ZM15.4634 23.107L20.4752 24.7487C20.4774 24.7495 20.4799 24.7491 20.4819 24.7477L26.4488 20.4676C26.4521 20.4653 26.4529 20.4607 26.4507 20.4574L24.2138 17.1287C24.2115 17.1252 24.2068 17.1243 24.2034 17.1267L15.4634 23.107Z" fill="white"/>
</g>
<path d="M53.216 21L50.892 17.01H49.352V21H48.078V11.242H51.228C51.9653 11.242 52.586 11.368 53.09 11.62C53.6033 11.872 53.986 12.2127 54.238 12.642C54.49 13.0713 54.616 13.5613 54.616 14.112C54.616 14.784 54.42 15.3767 54.028 15.89C53.6453 16.4033 53.0667 16.744 52.292 16.912L54.742 21H53.216ZM49.352 15.988H51.228C51.9187 15.988 52.4367 15.82 52.782 15.484C53.1273 15.1387 53.3 14.6813 53.3 14.112C53.3 13.5333 53.1273 13.0853 52.782 12.768C52.446 12.4507 51.928 12.292 51.228 12.292H49.352V15.988ZM59.9416 21.126C59.2229 21.126 58.5696 20.9627 57.9816 20.636C57.4029 20.3093 56.9456 19.8473 56.6096 19.25C56.2829 18.6433 56.1196 17.9433 56.1196 17.15C56.1196 16.366 56.2876 15.6753 56.6236 15.078C56.9689 14.4713 57.4356 14.0093 58.0236 13.692C58.6116 13.3653 59.2696 13.202 59.9976 13.202C60.7256 13.202 61.3836 13.3653 61.9716 13.692C62.5596 14.0093 63.0216 14.4667 63.3576 15.064C63.7029 15.6613 63.8756 16.3567 63.8756 17.15C63.8756 17.9433 63.6982 18.6433 63.3436 19.25C62.9982 19.8473 62.5269 20.3093 61.9296 20.636C61.3322 20.9627 60.6696 21.126 59.9416 21.126ZM59.9416 20.006C60.3989 20.006 60.8282 19.8987 61.2296 19.684C61.6309 19.4693 61.9529 19.1473 62.1956 18.718C62.4476 18.2887 62.5736 17.766 62.5736 17.15C62.5736 16.534 62.4522 16.0113 62.2096 15.582C61.9669 15.1527 61.6496 14.8353 61.2576 14.63C60.8656 14.4153 60.4409 14.308 59.9836 14.308C59.5169 14.308 59.0876 14.4153 58.6956 14.63C58.3129 14.8353 58.0049 15.1527 57.7716 15.582C57.5382 16.0113 57.4216 16.534 57.4216 17.15C57.4216 17.7753 57.5336 18.3027 57.7576 18.732C57.9909 19.1613 58.2989 19.4833 58.6816 19.698C59.0642 19.9033 59.4842 20.006 59.9416 20.006ZM65.0747 17.15C65.0747 16.3567 65.2333 15.666 65.5507 15.078C65.868 14.4807 66.3067 14.0187 66.8667 13.692C67.436 13.3653 68.0847 13.202 68.8127 13.202C69.7553 13.202 70.53 13.4307 71.1367 13.888C71.7527 14.3453 72.1587 14.98 72.3547 15.792H70.9827C70.852 15.3253 70.5953 14.9567 70.2127 14.686C69.8393 14.4153 69.3727 14.28 68.8127 14.28C68.0847 14.28 67.4967 14.532 67.0487 15.036C66.6007 15.5307 66.3767 16.2353 66.3767 17.15C66.3767 18.074 66.6007 18.788 67.0487 19.292C67.4967 19.796 68.0847 20.048 68.8127 20.048C69.3727 20.048 69.8393 19.9173 70.2127 19.656C70.586 19.3947 70.8427 19.0213 70.9827 18.536H72.3547C72.1493 19.32 71.7387 19.95 71.1227 20.426C70.5067 20.8927 69.7367 21.126 68.8127 21.126C68.0847 21.126 67.436 20.9627 66.8667 20.636C66.3067 20.3093 65.868 19.8473 65.5507 19.25C65.2333 18.6527 65.0747 17.9527 65.0747 17.15ZM78.3386 21L75.3286 17.612V21H74.0546V10.64H75.3286V16.73L78.2826 13.328H80.0606L76.4486 17.15L80.0746 21H78.3386Z" fill="white"/>
<rect x="0.5" y="0.5" width="89" height="32" rx="8.5" stroke="white" stroke-opacity="0.47" stroke-dasharray="2 2"/>
<defs>
<clipPath id="clip0_625_102">
<rect width="21" height="21" fill="white" transform="translate(9 6)"/>
</clipPath>
</defs>
</svg>
