<svg width="8" height="15" viewBox="0 0 8 15" fill="none" xmlns="http://www.w3.org/2000/svg">
<path d="M6.40628 14.7917C6.25066 14.7922 6.0969 14.7579 5.95629 14.6912C5.81569 14.6245 5.69182 14.5271 5.59378 14.4063L0.562528 8.15625C0.409318 7.96986 0.325562 7.73607 0.325562 7.49479C0.325562 7.25352 0.409318 7.01972 0.562528 6.83333L5.77086 0.583336C5.94767 0.37061 6.20175 0.236835 6.47719 0.211439C6.75263 0.186044 7.02689 0.271108 7.23961 0.447919C7.45234 0.62473 7.58611 0.878804 7.61151 1.15425C7.6369 1.42969 7.55184 1.70394 7.37503 1.91667L2.71878 7.5L7.21878 13.0833C7.34616 13.2362 7.42707 13.4224 7.45194 13.6199C7.47682 13.8173 7.44461 14.0178 7.35914 14.1975C7.27366 14.3772 7.1385 14.5287 6.96963 14.634C6.80077 14.7393 6.60527 14.794 6.40628 14.7917Z" fill="black"/>
</svg>
