<svg width="91" height="33" viewBox="0 0 91 33" fill="none" xmlns="http://www.w3.org/2000/svg">
<rect x="1" y="1" width="89" height="31" rx="8" fill="#BBBBBB"/>
<path fill-rule="evenodd" clip-rule="evenodd" d="M9.0021 16.4396C8.9993 16.4348 8.9993 16.4289 9.00209 16.4241L14.2826 7.40209C14.2854 7.39741 14.2904 7.39453 14.2958 7.39453H24.7621C24.7675 7.39453 24.7726 7.39744 24.7753 7.40216L29.9979 16.4242C30.0007 16.4289 30.0007 16.4348 29.9979 16.4395L24.7753 25.4514C24.7726 25.4561 24.7675 25.459 24.7621 25.459H14.2958C14.2904 25.459 14.2854 25.4562 14.2826 25.4515L9.0021 16.4396ZM24.3652 16.4268C24.3652 19.1128 22.1877 21.2903 19.5016 21.2903C16.8156 21.2903 14.6381 19.1128 14.6381 16.4268C14.6381 13.7407 16.8156 11.5633 19.5016 11.5633C22.1877 11.5633 24.3652 13.7407 24.3652 16.4268Z" fill="white"/>
<path d="M51.172 21.098C50.528 21.098 49.9493 20.986 49.436 20.762C48.932 20.5287 48.5353 20.2113 48.246 19.81C47.9567 19.3993 47.8073 18.928 47.798 18.396H49.156C49.2027 18.8533 49.3893 19.2407 49.716 19.558C50.052 19.866 50.5373 20.02 51.172 20.02C51.7787 20.02 52.2547 19.8707 52.6 19.572C52.9547 19.264 53.132 18.872 53.132 18.396C53.132 18.0227 53.0293 17.7193 52.824 17.486C52.6187 17.2527 52.362 17.0753 52.054 16.954C51.746 16.8327 51.3307 16.702 50.808 16.562C50.164 16.394 49.646 16.226 49.254 16.058C48.8713 15.89 48.54 15.6287 48.26 15.274C47.9893 14.91 47.854 14.4247 47.854 13.818C47.854 13.286 47.9893 12.8147 48.26 12.404C48.5307 11.9933 48.9087 11.676 49.394 11.452C49.8887 11.228 50.4533 11.116 51.088 11.116C52.0027 11.116 52.7493 11.3447 53.328 11.802C53.916 12.2593 54.2473 12.866 54.322 13.622H52.922C52.8753 13.2487 52.6793 12.922 52.334 12.642C51.9887 12.3527 51.5313 12.208 50.962 12.208C50.43 12.208 49.996 12.348 49.66 12.628C49.324 12.8987 49.156 13.2813 49.156 13.776C49.156 14.1307 49.254 14.42 49.45 14.644C49.6553 14.868 49.9027 15.0407 50.192 15.162C50.4907 15.274 50.906 15.4047 51.438 15.554C52.082 15.7313 52.6 15.9087 52.992 16.086C53.384 16.254 53.72 16.52 54 16.884C54.28 17.2387 54.42 17.724 54.42 18.34C54.42 18.816 54.294 19.264 54.042 19.684C53.79 20.104 53.4167 20.4447 52.922 20.706C52.4273 20.9673 51.844 21.098 51.172 21.098ZM57.8488 14.378V18.9C57.8488 19.2733 57.9281 19.5393 58.0868 19.698C58.2455 19.8473 58.5208 19.922 58.9128 19.922H59.8508V21H58.7028C57.9935 21 57.4615 20.8367 57.1068 20.51C56.7521 20.1833 56.5748 19.6467 56.5748 18.9V14.378H55.5808V13.328H56.5748V11.396H57.8488V13.328H59.8508V14.378H57.8488ZM68.3944 16.87C68.3944 17.1127 68.3804 17.3693 68.3524 17.64H62.2204C62.2671 18.396 62.5237 18.9887 62.9904 19.418C63.4664 19.838 64.0404 20.048 64.7124 20.048C65.2631 20.048 65.7204 19.922 66.0844 19.67C66.4577 19.4087 66.7191 19.0633 66.8684 18.634H68.2404C68.0351 19.3713 67.6244 19.9733 67.0084 20.44C66.3924 20.8973 65.6271 21.126 64.7124 21.126C63.9844 21.126 63.3311 20.9627 62.7524 20.636C62.1831 20.3093 61.7351 19.8473 61.4084 19.25C61.0817 18.6433 60.9184 17.9433 60.9184 17.15C60.9184 16.3567 61.0771 15.6613 61.3944 15.064C61.7117 14.4667 62.1551 14.0093 62.7244 13.692C63.3031 13.3653 63.9657 13.202 64.7124 13.202C65.4404 13.202 66.0844 13.3607 66.6444 13.678C67.2044 13.9953 67.6337 14.434 67.9324 14.994C68.2404 15.5447 68.3944 16.17 68.3944 16.87ZM67.0784 16.604C67.0784 16.1187 66.9711 15.7033 66.7564 15.358C66.5417 15.0033 66.2477 14.7373 65.8744 14.56C65.5104 14.3733 65.1044 14.28 64.6564 14.28C64.0124 14.28 63.4617 14.4853 63.0044 14.896C62.5564 15.3067 62.2997 15.876 62.2344 16.604H67.0784ZM77.076 16.87C77.076 17.1127 77.062 17.3693 77.034 17.64H70.902C70.9487 18.396 71.2054 18.9887 71.672 19.418C72.148 19.838 72.722 20.048 73.394 20.048C73.9447 20.048 74.402 19.922 74.766 19.67C75.1394 19.4087 75.4007 19.0633 75.55 18.634H76.922C76.7167 19.3713 76.306 19.9733 75.69 20.44C75.074 20.8973 74.3087 21.126 73.394 21.126C72.666 21.126 72.0127 20.9627 71.434 20.636C70.8647 20.3093 70.4167 19.8473 70.09 19.25C69.7634 18.6433 69.6 17.9433 69.6 17.15C69.6 16.3567 69.7587 15.6613 70.076 15.064C70.3934 14.4667 70.8367 14.0093 71.406 13.692C71.9847 13.3653 72.6474 13.202 73.394 13.202C74.122 13.202 74.766 13.3607 75.326 13.678C75.886 13.9953 76.3154 14.434 76.614 14.994C76.922 15.5447 77.076 16.17 77.076 16.87ZM75.76 16.604C75.76 16.1187 75.6527 15.7033 75.438 15.358C75.2234 15.0033 74.9294 14.7373 74.556 14.56C74.192 14.3733 73.786 14.28 73.338 14.28C72.694 14.28 72.1434 14.4853 71.686 14.896C71.238 15.3067 70.9814 15.876 70.916 16.604H75.76ZM80.0317 10.64V21H78.7577V10.64H80.0317Z" fill="white"/>
<rect x="0.5" y="0.5" width="90" height="32" rx="8.5" stroke="white" stroke-opacity="0.47" stroke-dasharray="2 2"/>
</svg>
