<svg width="451" height="222" viewBox="0 0 451 222" fill="none" xmlns="http://www.w3.org/2000/svg">
<rect width="451" height="222" rx="12" fill="white"/>
<path d="M70.304 151.112C69.248 151.112 68.2773 150.867 67.392 150.376C66.5173 149.885 65.8187 149.203 65.296 148.328C64.784 147.443 64.528 146.451 64.528 145.352C64.528 144.253 64.784 143.267 65.296 142.392C65.8187 141.517 66.5173 140.835 67.392 140.344C68.2773 139.853 69.248 139.608 70.304 139.608C71.36 139.608 72.3253 139.853 73.2 140.344C74.0853 140.835 74.7787 141.517 75.28 142.392C75.792 143.267 76.048 144.253 76.048 145.352C76.048 146.451 75.792 147.443 75.28 148.328C74.768 149.203 74.0747 149.885 73.2 150.376C72.3253 150.867 71.36 151.112 70.304 151.112ZM70.304 148.616C71.2 148.616 71.9147 148.317 72.448 147.72C72.992 147.123 73.264 146.333 73.264 145.352C73.264 144.36 72.992 143.571 72.448 142.984C71.9147 142.387 71.2 142.088 70.304 142.088C69.3973 142.088 68.672 142.381 68.128 142.968C67.5947 143.555 67.328 144.349 67.328 145.352C67.328 146.344 67.5947 147.139 68.128 147.736C68.672 148.323 69.3973 148.616 70.304 148.616ZM89.5208 143.384C89.5208 144.035 89.3714 144.632 89.0728 145.176C88.7741 145.709 88.3154 146.141 87.6968 146.472C87.0781 146.803 86.3101 146.968 85.3928 146.968H83.6968V151H80.9608V139.768H85.3928C86.2888 139.768 87.0461 139.923 87.6648 140.232C88.2834 140.541 88.7474 140.968 89.0568 141.512C89.3661 142.056 89.5208 142.68 89.5208 143.384ZM85.1848 144.792C85.7074 144.792 86.0968 144.669 86.3528 144.424C86.6088 144.179 86.7368 143.832 86.7368 143.384C86.7368 142.936 86.6088 142.589 86.3528 142.344C86.0968 142.099 85.7074 141.976 85.1848 141.976H83.6968V144.792H85.1848ZM95.0091 151.128C94.1345 151.128 93.3451 150.941 92.6411 150.568C91.9478 150.195 91.3985 149.661 90.9931 148.968C90.5985 148.275 90.4011 147.464 90.4011 146.536C90.4011 145.619 90.6038 144.813 91.0091 144.12C91.4145 143.416 91.9691 142.877 92.6731 142.504C93.3771 142.131 94.1665 141.944 95.0411 141.944C95.9158 141.944 96.7051 142.131 97.4091 142.504C98.1131 142.877 98.6678 143.416 99.0731 144.12C99.4785 144.813 99.6811 145.619 99.6811 146.536C99.6811 147.453 99.4731 148.264 99.0571 148.968C98.6518 149.661 98.0918 150.195 97.3771 150.568C96.6731 150.941 95.8838 151.128 95.0091 151.128ZM95.0091 148.76C95.5318 148.76 95.9745 148.568 96.3371 148.184C96.7105 147.8 96.8971 147.251 96.8971 146.536C96.8971 145.821 96.7158 145.272 96.3531 144.888C96.0011 144.504 95.5638 144.312 95.0411 144.312C94.5078 144.312 94.0651 144.504 93.7131 144.888C93.3611 145.261 93.1851 145.811 93.1851 146.536C93.1851 147.251 93.3558 147.8 93.6971 148.184C94.0491 148.568 94.4865 148.76 95.0091 148.76ZM106.589 151L103.869 147.256V151H101.133V139.16H103.869V145.704L106.573 142.072H109.949L106.237 146.552L109.981 151H106.589ZM119.439 146.392C119.439 146.648 119.423 146.915 119.391 147.192H113.199C113.242 147.747 113.418 148.173 113.727 148.472C114.047 148.76 114.437 148.904 114.895 148.904C115.578 148.904 116.053 148.616 116.319 148.04H119.231C119.082 148.627 118.81 149.155 118.415 149.624C118.031 150.093 117.546 150.461 116.959 150.728C116.373 150.995 115.717 151.128 114.991 151.128C114.117 151.128 113.338 150.941 112.655 150.568C111.973 150.195 111.439 149.661 111.055 148.968C110.671 148.275 110.479 147.464 110.479 146.536C110.479 145.608 110.666 144.797 111.039 144.104C111.423 143.411 111.957 142.877 112.639 142.504C113.322 142.131 114.106 141.944 114.991 141.944C115.855 141.944 116.623 142.125 117.295 142.488C117.967 142.851 118.49 143.368 118.863 144.04C119.247 144.712 119.439 145.496 119.439 146.392ZM116.639 145.672C116.639 145.203 116.479 144.829 116.159 144.552C115.839 144.275 115.439 144.136 114.959 144.136C114.501 144.136 114.111 144.269 113.791 144.536C113.482 144.803 113.29 145.181 113.215 145.672H116.639ZM116.831 139.784L112.975 141.4V139.512L116.831 137.656V139.784ZM132.275 141.976C133.384 141.976 134.264 142.312 134.915 142.984C135.576 143.656 135.907 144.589 135.907 145.784V151H133.187V146.152C133.187 145.576 133.032 145.133 132.723 144.824C132.424 144.504 132.008 144.344 131.475 144.344C130.941 144.344 130.52 144.504 130.211 144.824C129.912 145.133 129.763 145.576 129.763 146.152V151H127.043V146.152C127.043 145.576 126.888 145.133 126.579 144.824C126.28 144.504 125.864 144.344 125.331 144.344C124.797 144.344 124.376 144.504 124.067 144.824C123.768 145.133 123.619 145.576 123.619 146.152V151H120.883V142.072H123.619V143.192C123.896 142.819 124.259 142.525 124.707 142.312C125.155 142.088 125.661 141.976 126.227 141.976C126.899 141.976 127.496 142.12 128.019 142.408C128.552 142.696 128.968 143.107 129.267 143.64C129.576 143.149 129.997 142.749 130.531 142.44C131.064 142.131 131.645 141.976 132.275 141.976ZM141.884 151.128C141.009 151.128 140.22 150.941 139.516 150.568C138.823 150.195 138.273 149.661 137.868 148.968C137.473 148.275 137.276 147.464 137.276 146.536C137.276 145.619 137.479 144.813 137.884 144.12C138.289 143.416 138.844 142.877 139.548 142.504C140.252 142.131 141.041 141.944 141.916 141.944C142.791 141.944 143.58 142.131 144.284 142.504C144.988 142.877 145.543 143.416 145.948 144.12C146.353 144.813 146.556 145.619 146.556 146.536C146.556 147.453 146.348 148.264 145.932 148.968C145.527 149.661 144.967 150.195 144.252 150.568C143.548 150.941 142.759 151.128 141.884 151.128ZM141.884 148.76C142.407 148.76 142.849 148.568 143.212 148.184C143.585 147.8 143.772 147.251 143.772 146.536C143.772 145.821 143.591 145.272 143.228 144.888C142.876 144.504 142.439 144.312 141.916 144.312C141.383 144.312 140.94 144.504 140.588 144.888C140.236 145.261 140.06 145.811 140.06 146.536C140.06 147.251 140.231 147.8 140.572 148.184C140.924 148.568 141.361 148.76 141.884 148.76ZM153.448 141.976C154.493 141.976 155.325 142.317 155.944 143C156.573 143.672 156.888 144.6 156.888 145.784V151H154.168V146.152C154.168 145.555 154.013 145.091 153.704 144.76C153.394 144.429 152.978 144.264 152.456 144.264C151.933 144.264 151.517 144.429 151.208 144.76C150.898 145.091 150.744 145.555 150.744 146.152V151H148.008V142.072H150.744V143.256C151.021 142.861 151.394 142.552 151.864 142.328C152.333 142.093 152.861 141.976 153.448 141.976ZM166.66 144.344H165.188V151H162.452V144.344H161.46V142.072H162.452V141.816C162.452 140.717 162.766 139.885 163.396 139.32C164.025 138.744 164.948 138.456 166.164 138.456C166.366 138.456 166.516 138.461 166.612 138.472V140.792C166.089 140.76 165.721 140.835 165.508 141.016C165.294 141.197 165.188 141.523 165.188 141.992V142.072H166.66V144.344ZM172.009 151.128C171.134 151.128 170.345 150.941 169.641 150.568C168.948 150.195 168.398 149.661 167.993 148.968C167.598 148.275 167.401 147.464 167.401 146.536C167.401 145.619 167.604 144.813 168.009 144.12C168.414 143.416 168.969 142.877 169.673 142.504C170.377 142.131 171.166 141.944 172.041 141.944C172.916 141.944 173.705 142.131 174.409 142.504C175.113 142.877 175.668 143.416 176.073 144.12C176.478 144.813 176.681 145.619 176.681 146.536C176.681 147.453 176.473 148.264 176.057 148.968C175.652 149.661 175.092 150.195 174.377 150.568C173.673 150.941 172.884 151.128 172.009 151.128ZM172.009 148.76C172.532 148.76 172.974 148.568 173.337 148.184C173.71 147.8 173.897 147.251 173.897 146.536C173.897 145.821 173.716 145.272 173.353 144.888C173.001 144.504 172.564 144.312 172.041 144.312C171.508 144.312 171.065 144.504 170.713 144.888C170.361 145.261 170.185 145.811 170.185 146.536C170.185 147.251 170.356 147.8 170.697 148.184C171.049 148.568 171.486 148.76 172.009 148.76ZM179.509 141.144C179.029 141.144 178.634 141.005 178.325 140.728C178.026 140.44 177.877 140.088 177.877 139.672C177.877 139.245 178.026 138.893 178.325 138.616C178.634 138.328 179.029 138.184 179.509 138.184C179.978 138.184 180.362 138.328 180.661 138.616C180.97 138.893 181.125 139.245 181.125 139.672C181.125 140.088 180.97 140.44 180.661 140.728C180.362 141.005 179.978 141.144 179.509 141.144ZM180.869 142.072V151H178.133V142.072H180.869ZM188.978 143.56C189.298 143.069 189.698 142.685 190.178 142.408C190.658 142.12 191.191 141.976 191.778 141.976V144.872H191.026C190.343 144.872 189.831 145.021 189.49 145.32C189.149 145.608 188.978 146.12 188.978 146.856V151H186.242V142.072H188.978V143.56ZM201.502 146.392C201.502 146.648 201.486 146.915 201.454 147.192H195.262C195.304 147.747 195.48 148.173 195.79 148.472C196.11 148.76 196.499 148.904 196.958 148.904C197.64 148.904 198.115 148.616 198.382 148.04H201.294C201.144 148.627 200.872 149.155 200.478 149.624C200.094 150.093 199.608 150.461 199.022 150.728C198.435 150.995 197.779 151.128 197.054 151.128C196.179 151.128 195.4 150.941 194.718 150.568C194.035 150.195 193.502 149.661 193.118 148.968C192.734 148.275 192.542 147.464 192.542 146.536C192.542 145.608 192.728 144.797 193.102 144.104C193.486 143.411 194.019 142.877 194.702 142.504C195.384 142.131 196.168 141.944 197.054 141.944C197.918 141.944 198.686 142.125 199.358 142.488C200.03 142.851 200.552 143.368 200.926 144.04C201.31 144.712 201.502 145.496 201.502 146.392ZM198.702 145.672C198.702 145.203 198.542 144.829 198.222 144.552C197.902 144.275 197.502 144.136 197.022 144.136C196.563 144.136 196.174 144.269 195.854 144.536C195.544 144.803 195.352 145.181 195.278 145.672H198.702ZM214.337 141.976C215.446 141.976 216.326 142.312 216.977 142.984C217.638 143.656 217.969 144.589 217.969 145.784V151H215.249V146.152C215.249 145.576 215.094 145.133 214.785 144.824C214.486 144.504 214.07 144.344 213.537 144.344C213.004 144.344 212.582 144.504 212.273 144.824C211.974 145.133 211.825 145.576 211.825 146.152V151H209.105V146.152C209.105 145.576 208.95 145.133 208.641 144.824C208.342 144.504 207.926 144.344 207.393 144.344C206.86 144.344 206.438 144.504 206.129 144.824C205.83 145.133 205.681 145.576 205.681 146.152V151H202.945V142.072H205.681V143.192C205.958 142.819 206.321 142.525 206.769 142.312C207.217 142.088 207.724 141.976 208.289 141.976C208.961 141.976 209.558 142.12 210.081 142.408C210.614 142.696 211.03 143.107 211.329 143.64C211.638 143.149 212.06 142.749 212.593 142.44C213.126 142.131 213.708 141.976 214.337 141.976ZM223.947 151.128C223.072 151.128 222.283 150.941 221.579 150.568C220.885 150.195 220.336 149.661 219.931 148.968C219.536 148.275 219.339 147.464 219.339 146.536C219.339 145.619 219.541 144.813 219.947 144.12C220.352 143.416 220.907 142.877 221.611 142.504C222.315 142.131 223.104 141.944 223.979 141.944C224.853 141.944 225.643 142.131 226.347 142.504C227.051 142.877 227.605 143.416 228.011 144.12C228.416 144.813 228.619 145.619 228.619 146.536C228.619 147.453 228.411 148.264 227.995 148.968C227.589 149.661 227.029 150.195 226.315 150.568C225.611 150.941 224.821 151.128 223.947 151.128ZM223.947 148.76C224.469 148.76 224.912 148.568 225.275 148.184C225.648 147.8 225.835 147.251 225.835 146.536C225.835 145.821 225.653 145.272 225.291 144.888C224.939 144.504 224.501 144.312 223.979 144.312C223.445 144.312 223.003 144.504 222.651 144.888C222.299 145.261 222.123 145.811 222.123 146.536C222.123 147.251 222.293 147.8 222.635 148.184C222.987 148.568 223.424 148.76 223.947 148.76ZM234.086 148.44L236.022 142.072H238.934L235.766 151H232.39L229.222 142.072H232.15L234.086 148.44ZM241.462 141.144C240.982 141.144 240.587 141.005 240.278 140.728C239.979 140.44 239.83 140.088 239.83 139.672C239.83 139.245 239.979 138.893 240.278 138.616C240.587 138.328 240.982 138.184 241.462 138.184C241.931 138.184 242.315 138.328 242.614 138.616C242.923 138.893 243.078 139.245 243.078 139.672C243.078 140.088 242.923 140.44 242.614 140.728C242.315 141.005 241.931 141.144 241.462 141.144ZM242.822 142.072V151H240.086V142.072H242.822ZM244.261 146.52C244.261 145.603 244.431 144.797 244.773 144.104C245.125 143.411 245.599 142.877 246.197 142.504C246.794 142.131 247.461 141.944 248.197 141.944C248.783 141.944 249.317 142.067 249.797 142.312C250.287 142.557 250.671 142.888 250.949 143.304V139.16H253.685V151H250.949V149.72C250.693 150.147 250.325 150.488 249.845 150.744C249.375 151 248.826 151.128 248.197 151.128C247.461 151.128 246.794 150.941 246.197 150.568C245.599 150.184 245.125 149.645 244.773 148.952C244.431 148.248 244.261 147.437 244.261 146.52ZM250.949 146.536C250.949 145.853 250.757 145.315 250.373 144.92C249.999 144.525 249.541 144.328 248.997 144.328C248.453 144.328 247.989 144.525 247.605 144.92C247.231 145.304 247.045 145.837 247.045 146.52C247.045 147.203 247.231 147.747 247.605 148.152C247.989 148.547 248.453 148.744 248.997 148.744C249.541 148.744 249.999 148.547 250.373 148.152C250.757 147.757 250.949 147.219 250.949 146.536ZM259.728 151.128C258.853 151.128 258.064 150.941 257.36 150.568C256.667 150.195 256.117 149.661 255.712 148.968C255.317 148.275 255.12 147.464 255.12 146.536C255.12 145.619 255.323 144.813 255.728 144.12C256.133 143.416 256.688 142.877 257.392 142.504C258.096 142.131 258.885 141.944 259.76 141.944C260.635 141.944 261.424 142.131 262.128 142.504C262.832 142.877 263.387 143.416 263.792 144.12C264.197 144.813 264.4 145.619 264.4 146.536C264.4 147.453 264.192 148.264 263.776 148.968C263.371 149.661 262.811 150.195 262.096 150.568C261.392 150.941 260.603 151.128 259.728 151.128ZM259.728 148.76C260.251 148.76 260.693 148.568 261.056 148.184C261.429 147.8 261.616 147.251 261.616 146.536C261.616 145.821 261.435 145.272 261.072 144.888C260.72 144.504 260.283 144.312 259.76 144.312C259.227 144.312 258.784 144.504 258.432 144.888C258.08 145.261 257.904 145.811 257.904 146.536C257.904 147.251 258.075 147.8 258.416 148.184C258.768 148.568 259.205 148.76 259.728 148.76ZM268.698 146.52C268.698 145.603 268.869 144.797 269.21 144.104C269.562 143.411 270.037 142.877 270.634 142.504C271.231 142.131 271.898 141.944 272.634 141.944C273.221 141.944 273.754 142.067 274.234 142.312C274.725 142.557 275.109 142.888 275.386 143.304V139.16H278.122V151H275.386V149.72C275.13 150.147 274.762 150.488 274.282 150.744C273.813 151 273.263 151.128 272.634 151.128C271.898 151.128 271.231 150.941 270.634 150.568C270.037 150.184 269.562 149.645 269.21 148.952C268.869 148.248 268.698 147.437 268.698 146.52ZM275.386 146.536C275.386 145.853 275.194 145.315 274.81 144.92C274.437 144.525 273.978 144.328 273.434 144.328C272.89 144.328 272.426 144.525 272.042 144.92C271.669 145.304 271.482 145.837 271.482 146.52C271.482 147.203 271.669 147.747 272.042 148.152C272.426 148.547 272.89 148.744 273.434 148.744C273.978 148.744 274.437 148.547 274.81 148.152C275.194 147.757 275.386 147.219 275.386 146.536ZM279.557 146.52C279.557 145.603 279.728 144.797 280.069 144.104C280.421 143.411 280.896 142.877 281.493 142.504C282.091 142.131 282.757 141.944 283.493 141.944C284.123 141.944 284.672 142.072 285.141 142.328C285.621 142.584 285.989 142.92 286.245 143.336V142.072H288.981V151H286.245V149.736C285.979 150.152 285.605 150.488 285.125 150.744C284.656 151 284.107 151.128 283.477 151.128C282.752 151.128 282.091 150.941 281.493 150.568C280.896 150.184 280.421 149.645 280.069 148.952C279.728 148.248 279.557 147.437 279.557 146.52ZM286.245 146.536C286.245 145.853 286.053 145.315 285.669 144.92C285.296 144.525 284.837 144.328 284.293 144.328C283.749 144.328 283.285 144.525 282.901 144.92C282.528 145.304 282.341 145.837 282.341 146.52C282.341 147.203 282.528 147.747 282.901 148.152C283.285 148.547 283.749 148.744 284.293 148.744C284.837 148.744 285.296 148.547 285.669 148.152C286.053 147.757 286.245 147.219 286.245 146.536ZM297.983 151.128C297.205 151.128 296.511 150.995 295.903 150.728C295.295 150.461 294.815 150.099 294.463 149.64C294.111 149.171 293.914 148.648 293.871 148.072H296.575C296.607 148.381 296.751 148.632 297.007 148.824C297.263 149.016 297.578 149.112 297.951 149.112C298.293 149.112 298.554 149.048 298.735 148.92C298.927 148.781 299.023 148.605 299.023 148.392C299.023 148.136 298.89 147.949 298.623 147.832C298.357 147.704 297.925 147.565 297.327 147.416C296.687 147.267 296.154 147.112 295.727 146.952C295.301 146.781 294.933 146.52 294.623 146.168C294.314 145.805 294.159 145.32 294.159 144.712C294.159 144.2 294.298 143.736 294.575 143.32C294.863 142.893 295.279 142.557 295.823 142.312C296.378 142.067 297.034 141.944 297.791 141.944C298.911 141.944 299.791 142.221 300.431 142.776C301.082 143.331 301.455 144.067 301.551 144.984H299.023C298.981 144.675 298.842 144.429 298.607 144.248C298.383 144.067 298.085 143.976 297.711 143.976C297.391 143.976 297.146 144.04 296.975 144.168C296.805 144.285 296.719 144.451 296.719 144.664C296.719 144.92 296.853 145.112 297.119 145.24C297.397 145.368 297.823 145.496 298.399 145.624C299.061 145.795 299.599 145.965 300.015 146.136C300.431 146.296 300.794 146.563 301.103 146.936C301.423 147.299 301.589 147.789 301.599 148.408C301.599 148.931 301.45 149.4 301.151 149.816C300.863 150.221 300.442 150.541 299.887 150.776C299.343 151.011 298.709 151.128 297.983 151.128ZM312.089 142.072V151H309.353V149.784C309.076 150.179 308.697 150.499 308.217 150.744C307.748 150.979 307.225 151.096 306.649 151.096C305.967 151.096 305.364 150.947 304.841 150.648C304.319 150.339 303.913 149.896 303.625 149.32C303.337 148.744 303.193 148.067 303.193 147.288V142.072H305.913V146.92C305.913 147.517 306.068 147.981 306.377 148.312C306.687 148.643 307.103 148.808 307.625 148.808C308.159 148.808 308.58 148.643 308.889 148.312C309.199 147.981 309.353 147.517 309.353 146.92V142.072H312.089ZM313.511 146.52C313.511 145.603 313.681 144.797 314.023 144.104C314.375 143.411 314.849 142.877 315.447 142.504C316.044 142.131 316.711 141.944 317.447 141.944C318.076 141.944 318.625 142.072 319.095 142.328C319.575 142.584 319.943 142.92 320.199 143.336V142.072H322.935V151H320.199V149.736C319.932 150.152 319.559 150.488 319.079 150.744C318.609 151 318.06 151.128 317.431 151.128C316.705 151.128 316.044 150.941 315.447 150.568C314.849 150.184 314.375 149.645 314.023 148.952C313.681 148.248 313.511 147.437 313.511 146.52ZM320.199 146.536C320.199 145.853 320.007 145.315 319.623 144.92C319.249 144.525 318.791 144.328 318.247 144.328C317.703 144.328 317.239 144.525 316.855 144.92C316.481 145.304 316.295 145.837 316.295 146.52C316.295 147.203 316.481 147.747 316.855 148.152C317.239 148.547 317.703 148.744 318.247 148.744C318.791 148.744 319.249 148.547 319.623 148.152C320.007 147.757 320.199 147.219 320.199 146.536ZM336.865 143.384C336.865 144.035 336.715 144.632 336.417 145.176C336.118 145.709 335.659 146.141 335.041 146.472C334.422 146.803 333.654 146.968 332.737 146.968H331.041V151H328.305V139.768H332.737C333.633 139.768 334.39 139.923 335.009 140.232C335.627 140.541 336.091 140.968 336.401 141.512C336.71 142.056 336.865 142.68 336.865 143.384ZM332.529 144.792C333.051 144.792 333.441 144.669 333.697 144.424C333.953 144.179 334.081 143.832 334.081 143.384C334.081 142.936 333.953 142.589 333.697 142.344C333.441 142.099 333.051 141.976 332.529 141.976H331.041V144.792H332.529ZM342.353 151.128C341.478 151.128 340.689 150.941 339.985 150.568C339.292 150.195 338.742 149.661 338.337 148.968C337.942 148.275 337.745 147.464 337.745 146.536C337.745 145.619 337.948 144.813 338.353 144.12C338.758 143.416 339.313 142.877 340.017 142.504C340.721 142.131 341.51 141.944 342.385 141.944C343.26 141.944 344.049 142.131 344.753 142.504C345.457 142.877 346.012 143.416 346.417 144.12C346.822 144.813 347.025 145.619 347.025 146.536C347.025 147.453 346.817 148.264 346.401 148.968C345.996 149.661 345.436 150.195 344.721 150.568C344.017 150.941 343.228 151.128 342.353 151.128ZM342.353 148.76C342.876 148.76 343.318 148.568 343.681 148.184C344.054 147.8 344.241 147.251 344.241 146.536C344.241 145.821 344.06 145.272 343.697 144.888C343.345 144.504 342.908 144.312 342.385 144.312C341.852 144.312 341.409 144.504 341.057 144.888C340.705 145.261 340.529 145.811 340.529 146.536C340.529 147.251 340.7 147.8 341.041 148.184C341.393 148.568 341.83 148.76 342.353 148.76ZM353.932 151L351.212 147.256V151H348.476V139.16H351.212V145.704L353.916 142.072H357.292L353.58 146.552L357.324 151H353.932ZM366.783 146.392C366.783 146.648 366.767 146.915 366.735 147.192H360.543C360.586 147.747 360.762 148.173 361.071 148.472C361.391 148.76 361.78 148.904 362.239 148.904C362.922 148.904 363.396 148.616 363.663 148.04H366.575C366.426 148.627 366.154 149.155 365.759 149.624C365.375 150.093 364.89 150.461 364.303 150.728C363.716 150.995 363.06 151.128 362.335 151.128C361.46 151.128 360.682 150.941 359.999 150.568C359.316 150.195 358.783 149.661 358.399 148.968C358.015 148.275 357.823 147.464 357.823 146.536C357.823 145.608 358.01 144.797 358.383 144.104C358.767 143.411 359.3 142.877 359.983 142.504C360.666 142.131 361.45 141.944 362.335 141.944C363.199 141.944 363.967 142.125 364.639 142.488C365.311 142.851 365.834 143.368 366.207 144.04C366.591 144.712 366.783 145.496 366.783 146.392ZM363.983 145.672C363.983 145.203 363.823 144.829 363.503 144.552C363.183 144.275 362.783 144.136 362.303 144.136C361.844 144.136 361.455 144.269 361.135 144.536C360.826 144.803 360.634 145.181 360.559 145.672H363.983ZM367.682 146.52C367.682 145.603 367.853 144.797 368.194 144.104C368.546 143.411 369.021 142.877 369.618 142.504C370.216 142.131 370.882 141.944 371.618 141.944C372.205 141.944 372.738 142.067 373.218 142.312C373.709 142.557 374.093 142.888 374.37 143.304V139.16H377.106V151H374.37V149.72C374.114 150.147 373.746 150.488 373.266 150.744C372.797 151 372.248 151.128 371.618 151.128C370.882 151.128 370.216 150.941 369.618 150.568C369.021 150.184 368.546 149.645 368.194 148.952C367.853 148.248 367.682 147.437 367.682 146.52ZM374.37 146.536C374.37 145.853 374.178 145.315 373.794 144.92C373.421 144.525 372.962 144.328 372.418 144.328C371.874 144.328 371.41 144.525 371.026 144.92C370.653 145.304 370.466 145.837 370.466 146.52C370.466 147.203 370.653 147.747 371.026 148.152C371.41 148.547 371.874 148.744 372.418 148.744C372.962 148.744 373.421 148.547 373.794 148.152C374.178 147.757 374.37 147.219 374.37 146.536ZM387.502 146.392C387.502 146.648 387.486 146.915 387.454 147.192H381.262C381.304 147.747 381.48 148.173 381.79 148.472C382.11 148.76 382.499 148.904 382.958 148.904C383.64 148.904 384.115 148.616 384.382 148.04H387.294C387.144 148.627 386.872 149.155 386.478 149.624C386.094 150.093 385.608 150.461 385.022 150.728C384.435 150.995 383.779 151.128 383.054 151.128C382.179 151.128 381.4 150.941 380.718 150.568C380.035 150.195 379.502 149.661 379.118 148.968C378.734 148.275 378.542 147.464 378.542 146.536C378.542 145.608 378.728 144.797 379.102 144.104C379.486 143.411 380.019 142.877 380.702 142.504C381.384 142.131 382.168 141.944 383.054 141.944C383.918 141.944 384.686 142.125 385.358 142.488C386.03 142.851 386.552 143.368 386.926 144.04C387.31 144.712 387.502 145.496 387.502 146.392ZM384.702 145.672C384.702 145.203 384.542 144.829 384.222 144.552C383.902 144.275 383.502 144.136 383.022 144.136C382.563 144.136 382.174 144.269 381.854 144.536C381.544 144.803 381.352 145.181 381.278 145.672H384.702ZM384.894 139.784L381.038 141.4V139.512L384.894 137.656V139.784ZM394.225 151L392.513 148.52L391.073 151H388.113L391.057 146.44L388.033 142.072H391.105L392.817 144.536L394.257 142.072H397.217L394.225 146.568L397.297 151H394.225Z" fill="black"/>
<path d="M156.912 114.336C153.744 114.336 150.832 113.6 148.176 112.128C145.552 110.656 143.456 108.608 141.888 105.984C140.352 103.328 139.584 100.352 139.584 97.056C139.584 93.76 140.352 90.8 141.888 88.176C143.456 85.552 145.552 83.504 148.176 82.032C150.832 80.56 153.744 79.824 156.912 79.824C160.08 79.824 162.976 80.56 165.6 82.032C168.256 83.504 170.336 85.552 171.84 88.176C173.376 90.8 174.144 93.76 174.144 97.056C174.144 100.352 173.376 103.328 171.84 105.984C170.304 108.608 168.224 110.656 165.6 112.128C162.976 113.6 160.08 114.336 156.912 114.336ZM156.912 106.848C159.6 106.848 161.744 105.952 163.344 104.16C164.976 102.368 165.792 100 165.792 97.056C165.792 94.08 164.976 91.712 163.344 89.952C161.744 88.16 159.6 87.264 156.912 87.264C154.192 87.264 152.016 88.144 150.384 89.904C148.784 91.664 147.984 94.048 147.984 97.056C147.984 100.032 148.784 102.416 150.384 104.208C152.016 105.968 154.192 106.848 156.912 106.848ZM195.174 86.928C198.246 86.928 200.71 87.952 202.566 90C204.422 92.016 205.35 94.8 205.35 98.352V114H197.19V99.456C197.19 97.664 196.726 96.272 195.798 95.28C194.87 94.288 193.622 93.792 192.054 93.792C190.486 93.792 189.238 94.288 188.31 95.28C187.382 96.272 186.918 97.664 186.918 99.456V114H178.71V78.48H186.918V90.816C187.75 89.632 188.886 88.688 190.326 87.984C191.766 87.28 193.382 86.928 195.174 86.928ZM219.886 106.416L214.558 120.192H209.326L212.11 106.416H219.886ZM251.327 86.928C254.463 86.928 256.959 87.952 258.815 90C260.703 92.016 261.647 94.8 261.647 98.352V114H253.487V99.456C253.487 97.664 253.023 96.272 252.095 95.28C251.167 94.288 249.919 93.792 248.351 93.792C246.783 93.792 245.535 94.288 244.607 95.28C243.679 96.272 243.215 97.664 243.215 99.456V114H235.007V87.216H243.215V90.768C244.047 89.584 245.167 88.656 246.575 87.984C247.983 87.28 249.567 86.928 251.327 86.928ZM279.543 114.384C276.919 114.384 274.551 113.824 272.439 112.704C270.359 111.584 268.711 109.984 267.495 107.904C266.311 105.824 265.719 103.392 265.719 100.608C265.719 97.856 266.327 95.44 267.543 93.36C268.759 91.248 270.423 89.632 272.535 88.512C274.647 87.392 277.015 86.832 279.639 86.832C282.263 86.832 284.631 87.392 286.743 88.512C288.855 89.632 290.519 91.248 291.735 93.36C292.951 95.44 293.559 97.856 293.559 100.608C293.559 103.36 292.935 105.792 291.687 107.904C290.471 109.984 288.791 111.584 286.647 112.704C284.535 113.824 282.167 114.384 279.543 114.384ZM279.543 107.28C281.111 107.28 282.439 106.704 283.527 105.552C284.647 104.4 285.207 102.752 285.207 100.608C285.207 98.464 284.663 96.816 283.575 95.664C282.519 94.512 281.207 93.936 279.639 93.936C278.039 93.936 276.711 94.512 275.655 95.664C274.599 96.784 274.071 98.432 274.071 100.608C274.071 102.752 274.583 104.4 275.607 105.552C276.663 106.704 277.975 107.28 279.543 107.28ZM308.714 79.104L307.754 102.096H300.794L299.834 79.104H308.714ZM304.394 114.384C302.954 114.384 301.77 113.968 300.842 113.136C299.946 112.272 299.498 111.216 299.498 109.968C299.498 108.688 299.946 107.616 300.842 106.752C301.77 105.888 302.954 105.456 304.394 105.456C305.802 105.456 306.954 105.888 307.85 106.752C308.778 107.616 309.242 108.688 309.242 109.968C309.242 111.216 308.778 112.272 307.85 113.136C306.954 113.968 305.802 114.384 304.394 114.384Z" fill="black"/>
</svg>
