<svg width="451" height="222" viewBox="0 0 451 222" fill="none" xmlns="http://www.w3.org/2000/svg">
<rect width="451" height="222" rx="12" fill="white"/>
<path d="M148.344 90.96C147.736 89.84 146.856 88.992 145.704 88.416C144.584 87.808 143.256 87.504 141.72 87.504C139.064 87.504 136.936 88.384 135.336 90.144C133.736 91.872 132.936 94.192 132.936 97.104C132.936 100.208 133.768 102.64 135.432 104.4C137.128 106.128 139.448 106.992 142.392 106.992C144.408 106.992 146.104 106.48 147.48 105.456C148.888 104.432 149.912 102.96 150.552 101.04H140.136V94.992H157.992V102.624C157.384 104.672 156.344 106.576 154.872 108.336C153.432 110.096 151.592 111.52 149.352 112.608C147.112 113.696 144.584 114.24 141.768 114.24C138.44 114.24 135.464 113.52 132.84 112.08C130.248 110.608 128.216 108.576 126.744 105.984C125.304 103.392 124.584 100.432 124.584 97.104C124.584 93.776 125.304 90.816 126.744 88.224C128.216 85.6 130.248 83.568 132.84 82.128C135.432 80.656 138.392 79.92 141.72 79.92C145.752 79.92 149.144 80.896 151.896 82.848C154.68 84.8 156.52 87.504 157.416 90.96H148.344ZM174.731 114.384C172.107 114.384 169.739 113.824 167.627 112.704C165.547 111.584 163.899 109.984 162.683 107.904C161.499 105.824 160.907 103.392 160.907 100.608C160.907 97.856 161.515 95.44 162.73 93.36C163.947 91.248 165.611 89.632 167.723 88.512C169.835 87.392 172.203 86.832 174.827 86.832C177.451 86.832 179.819 87.392 181.931 88.512C184.043 89.632 185.707 91.248 186.923 93.36C188.139 95.44 188.747 97.856 188.747 100.608C188.747 103.36 188.123 105.792 186.875 107.904C185.659 109.984 183.979 111.584 181.835 112.704C179.723 113.824 177.355 114.384 174.731 114.384ZM174.731 107.28C176.299 107.28 177.627 106.704 178.715 105.552C179.835 104.4 180.395 102.752 180.395 100.608C180.395 98.464 179.851 96.816 178.763 95.664C177.707 94.512 176.395 93.936 174.827 93.936C173.227 93.936 171.899 94.512 170.843 95.664C169.787 96.784 169.259 98.432 169.259 100.608C169.259 102.752 169.771 104.4 170.795 105.552C171.851 106.704 173.163 107.28 174.731 107.28ZM208.029 107.04V114H203.853C200.877 114 198.557 113.28 196.893 111.84C195.229 110.368 194.397 107.984 194.397 104.688V94.032H191.133V87.216H194.397V80.688H202.605V87.216H207.981V94.032H202.605V104.784C202.605 105.584 202.797 106.16 203.181 106.512C203.565 106.864 204.205 107.04 205.101 107.04H208.029ZM210.969 100.608C210.969 97.824 211.529 95.392 212.649 93.312C213.801 91.232 215.385 89.632 217.401 88.512C219.449 87.392 221.785 86.832 224.409 86.832C227.769 86.832 230.569 87.712 232.809 89.472C235.081 91.232 236.569 93.712 237.273 96.912H228.537C227.801 94.864 226.377 93.84 224.265 93.84C222.761 93.84 221.561 94.432 220.665 95.616C219.769 96.768 219.321 98.432 219.321 100.608C219.321 102.784 219.769 104.464 220.665 105.648C221.561 106.8 222.761 107.376 224.265 107.376C226.377 107.376 227.801 106.352 228.537 104.304H237.273C236.569 107.44 235.081 109.904 232.809 111.696C230.537 113.488 227.737 114.384 224.409 114.384C221.785 114.384 219.449 113.824 217.401 112.704C215.385 111.584 213.801 109.984 212.649 107.904C211.529 105.824 210.969 103.392 210.969 100.608ZM258.128 86.928C261.2 86.928 263.664 87.952 265.52 90C267.376 92.016 268.304 94.8 268.304 98.352V114H260.144V99.456C260.144 97.664 259.68 96.272 258.752 95.28C257.824 94.288 256.576 93.792 255.008 93.792C253.44 93.792 252.192 94.288 251.264 95.28C250.336 96.272 249.872 97.664 249.872 99.456V114H241.664V78.48H249.872V90.816C250.704 89.632 251.84 88.688 253.28 87.984C254.72 87.28 256.336 86.928 258.128 86.928ZM272.375 100.56C272.375 97.808 272.887 95.392 273.911 93.312C274.967 91.232 276.391 89.632 278.183 88.512C279.975 87.392 281.975 86.832 284.183 86.832C286.071 86.832 287.719 87.216 289.127 87.984C290.567 88.752 291.671 89.76 292.439 91.008V87.216H300.647V114H292.439V110.208C291.639 111.456 290.519 112.464 289.079 113.232C287.671 114 286.023 114.384 284.135 114.384C281.959 114.384 279.975 113.824 278.183 112.704C276.391 111.552 274.967 109.936 273.911 107.856C272.887 105.744 272.375 103.312 272.375 100.56ZM292.439 100.608C292.439 98.56 291.863 96.944 290.711 95.76C289.591 94.576 288.215 93.984 286.583 93.984C284.951 93.984 283.559 94.576 282.407 95.76C281.287 96.912 280.727 98.512 280.727 100.56C280.727 102.608 281.287 104.24 282.407 105.456C283.559 106.64 284.951 107.232 286.583 107.232C288.215 107.232 289.591 106.64 290.711 105.456C291.863 104.272 292.439 102.656 292.439 100.608ZM317.385 79.104L316.425 102.096H309.465L308.505 79.104H317.385ZM313.065 114.384C311.625 114.384 310.441 113.968 309.513 113.136C308.617 112.272 308.169 111.216 308.169 109.968C308.169 108.688 308.617 107.616 309.513 106.752C310.441 105.888 311.625 105.456 313.065 105.456C314.473 105.456 315.625 105.888 316.521 106.752C317.449 107.616 317.913 108.688 317.913 109.968C317.913 111.216 317.449 112.272 316.521 113.136C315.625 113.968 314.473 114.384 313.065 114.384Z" fill="black"/>
<path d="M70.304 151.112C69.248 151.112 68.2773 150.867 67.392 150.376C66.5173 149.885 65.8187 149.203 65.296 148.328C64.784 147.443 64.528 146.451 64.528 145.352C64.528 144.253 64.784 143.267 65.296 142.392C65.8187 141.517 66.5173 140.835 67.392 140.344C68.2773 139.853 69.248 139.608 70.304 139.608C71.36 139.608 72.3253 139.853 73.2 140.344C74.0853 140.835 74.7787 141.517 75.28 142.392C75.792 143.267 76.048 144.253 76.048 145.352C76.048 146.451 75.792 147.443 75.28 148.328C74.768 149.203 74.0747 149.885 73.2 150.376C72.3253 150.867 71.36 151.112 70.304 151.112ZM70.304 148.616C71.2 148.616 71.9147 148.317 72.448 147.72C72.992 147.123 73.264 146.333 73.264 145.352C73.264 144.36 72.992 143.571 72.448 142.984C71.9147 142.387 71.2 142.088 70.304 142.088C69.3973 142.088 68.672 142.381 68.128 142.968C67.5947 143.555 67.328 144.349 67.328 145.352C67.328 146.344 67.5947 147.139 68.128 147.736C68.672 148.323 69.3973 148.616 70.304 148.616ZM89.5208 143.384C89.5208 144.035 89.3714 144.632 89.0728 145.176C88.7741 145.709 88.3154 146.141 87.6968 146.472C87.0781 146.803 86.3101 146.968 85.3928 146.968H83.6968V151H80.9608V139.768H85.3928C86.2888 139.768 87.0461 139.923 87.6648 140.232C88.2834 140.541 88.7474 140.968 89.0568 141.512C89.3661 142.056 89.5208 142.68 89.5208 143.384ZM85.1848 144.792C85.7074 144.792 86.0968 144.669 86.3528 144.424C86.6088 144.179 86.7368 143.832 86.7368 143.384C86.7368 142.936 86.6088 142.589 86.3528 142.344C86.0968 142.099 85.7074 141.976 85.1848 141.976H83.6968V144.792H85.1848ZM95.0091 151.128C94.1345 151.128 93.3451 150.941 92.6411 150.568C91.9478 150.195 91.3985 149.661 90.9931 148.968C90.5985 148.275 90.4011 147.464 90.4011 146.536C90.4011 145.619 90.6038 144.813 91.0091 144.12C91.4145 143.416 91.9691 142.877 92.6731 142.504C93.3771 142.131 94.1665 141.944 95.0411 141.944C95.9158 141.944 96.7051 142.131 97.4091 142.504C98.1131 142.877 98.6678 143.416 99.0731 144.12C99.4785 144.813 99.6811 145.619 99.6811 146.536C99.6811 147.453 99.4731 148.264 99.0571 148.968C98.6518 149.661 98.0918 150.195 97.3771 150.568C96.6731 150.941 95.8838 151.128 95.0091 151.128ZM95.0091 148.76C95.5318 148.76 95.9745 148.568 96.3371 148.184C96.7105 147.8 96.8971 147.251 96.8971 146.536C96.8971 145.821 96.7158 145.272 96.3531 144.888C96.0011 144.504 95.5638 144.312 95.0411 144.312C94.5078 144.312 94.0651 144.504 93.7131 144.888C93.3611 145.261 93.1851 145.811 93.1851 146.536C93.1851 147.251 93.3558 147.8 93.6971 148.184C94.0491 148.568 94.4865 148.76 95.0091 148.76ZM106.589 151L103.869 147.256V151H101.133V139.16H103.869V145.704L106.573 142.072H109.949L106.237 146.552L109.981 151H106.589ZM119.439 146.392C119.439 146.648 119.423 146.915 119.391 147.192H113.199C113.242 147.747 113.418 148.173 113.727 148.472C114.047 148.76 114.437 148.904 114.895 148.904C115.578 148.904 116.053 148.616 116.319 148.04H119.231C119.082 148.627 118.81 149.155 118.415 149.624C118.031 150.093 117.546 150.461 116.959 150.728C116.373 150.995 115.717 151.128 114.991 151.128C114.117 151.128 113.338 150.941 112.655 150.568C111.973 150.195 111.439 149.661 111.055 148.968C110.671 148.275 110.479 147.464 110.479 146.536C110.479 145.608 110.666 144.797 111.039 144.104C111.423 143.411 111.957 142.877 112.639 142.504C113.322 142.131 114.106 141.944 114.991 141.944C115.855 141.944 116.623 142.125 117.295 142.488C117.967 142.851 118.49 143.368 118.863 144.04C119.247 144.712 119.439 145.496 119.439 146.392ZM116.639 145.672C116.639 145.203 116.479 144.829 116.159 144.552C115.839 144.275 115.439 144.136 114.959 144.136C114.501 144.136 114.111 144.269 113.791 144.536C113.482 144.803 113.29 145.181 113.215 145.672H116.639ZM116.831 139.784L112.975 141.4V139.512L116.831 137.656V139.784ZM132.275 141.976C133.384 141.976 134.264 142.312 134.915 142.984C135.576 143.656 135.907 144.589 135.907 145.784V151H133.187V146.152C133.187 145.576 133.032 145.133 132.723 144.824C132.424 144.504 132.008 144.344 131.475 144.344C130.941 144.344 130.52 144.504 130.211 144.824C129.912 145.133 129.763 145.576 129.763 146.152V151H127.043V146.152C127.043 145.576 126.888 145.133 126.579 144.824C126.28 144.504 125.864 144.344 125.331 144.344C124.797 144.344 124.376 144.504 124.067 144.824C123.768 145.133 123.619 145.576 123.619 146.152V151H120.883V142.072H123.619V143.192C123.896 142.819 124.259 142.525 124.707 142.312C125.155 142.088 125.661 141.976 126.227 141.976C126.899 141.976 127.496 142.12 128.019 142.408C128.552 142.696 128.968 143.107 129.267 143.64C129.576 143.149 129.997 142.749 130.531 142.44C131.064 142.131 131.645 141.976 132.275 141.976ZM141.884 151.128C141.009 151.128 140.22 150.941 139.516 150.568C138.823 150.195 138.273 149.661 137.868 148.968C137.473 148.275 137.276 147.464 137.276 146.536C137.276 145.619 137.479 144.813 137.884 144.12C138.289 143.416 138.844 142.877 139.548 142.504C140.252 142.131 141.041 141.944 141.916 141.944C142.791 141.944 143.58 142.131 144.284 142.504C144.988 142.877 145.543 143.416 145.948 144.12C146.353 144.813 146.556 145.619 146.556 146.536C146.556 147.453 146.348 148.264 145.932 148.968C145.527 149.661 144.967 150.195 144.252 150.568C143.548 150.941 142.759 151.128 141.884 151.128ZM141.884 148.76C142.407 148.76 142.849 148.568 143.212 148.184C143.585 147.8 143.772 147.251 143.772 146.536C143.772 145.821 143.591 145.272 143.228 144.888C142.876 144.504 142.439 144.312 141.916 144.312C141.383 144.312 140.94 144.504 140.588 144.888C140.236 145.261 140.06 145.811 140.06 146.536C140.06 147.251 140.231 147.8 140.572 148.184C140.924 148.568 141.361 148.76 141.884 148.76ZM153.448 141.976C154.493 141.976 155.325 142.317 155.944 143C156.573 143.672 156.888 144.6 156.888 145.784V151H154.168V146.152C154.168 145.555 154.013 145.091 153.704 144.76C153.394 144.429 152.978 144.264 152.456 144.264C151.933 144.264 151.517 144.429 151.208 144.76C150.898 145.091 150.744 145.555 150.744 146.152V151H148.008V142.072H150.744V143.256C151.021 142.861 151.394 142.552 151.864 142.328C152.333 142.093 152.861 141.976 153.448 141.976ZM166.66 144.344H165.188V151H162.452V144.344H161.46V142.072H162.452V141.816C162.452 140.717 162.766 139.885 163.396 139.32C164.025 138.744 164.948 138.456 166.164 138.456C166.366 138.456 166.516 138.461 166.612 138.472V140.792C166.089 140.76 165.721 140.835 165.508 141.016C165.294 141.197 165.188 141.523 165.188 141.992V142.072H166.66V144.344ZM172.009 151.128C171.134 151.128 170.345 150.941 169.641 150.568C168.948 150.195 168.398 149.661 167.993 148.968C167.598 148.275 167.401 147.464 167.401 146.536C167.401 145.619 167.604 144.813 168.009 144.12C168.414 143.416 168.969 142.877 169.673 142.504C170.377 142.131 171.166 141.944 172.041 141.944C172.916 141.944 173.705 142.131 174.409 142.504C175.113 142.877 175.668 143.416 176.073 144.12C176.478 144.813 176.681 145.619 176.681 146.536C176.681 147.453 176.473 148.264 176.057 148.968C175.652 149.661 175.092 150.195 174.377 150.568C173.673 150.941 172.884 151.128 172.009 151.128ZM172.009 148.76C172.532 148.76 172.974 148.568 173.337 148.184C173.71 147.8 173.897 147.251 173.897 146.536C173.897 145.821 173.716 145.272 173.353 144.888C173.001 144.504 172.564 144.312 172.041 144.312C171.508 144.312 171.065 144.504 170.713 144.888C170.361 145.261 170.185 145.811 170.185 146.536C170.185 147.251 170.356 147.8 170.697 148.184C171.049 148.568 171.486 148.76 172.009 148.76ZM179.509 141.144C179.029 141.144 178.634 141.005 178.325 140.728C178.026 140.44 177.877 140.088 177.877 139.672C177.877 139.245 178.026 138.893 178.325 138.616C178.634 138.328 179.029 138.184 179.509 138.184C179.978 138.184 180.362 138.328 180.661 138.616C180.97 138.893 181.125 139.245 181.125 139.672C181.125 140.088 180.97 140.44 180.661 140.728C180.362 141.005 179.978 141.144 179.509 141.144ZM180.869 142.072V151H178.133V142.072H180.869ZM185.698 146.52C185.698 145.603 185.869 144.797 186.21 144.104C186.562 143.411 187.037 142.877 187.634 142.504C188.231 142.131 188.898 141.944 189.634 141.944C190.263 141.944 190.813 142.072 191.282 142.328C191.762 142.584 192.13 142.92 192.386 143.336V142.072H195.122V151H192.386V149.736C192.119 150.152 191.746 150.488 191.266 150.744C190.797 151 190.247 151.128 189.618 151.128C188.893 151.128 188.231 150.941 187.634 150.568C187.037 150.184 186.562 149.645 186.21 148.952C185.869 148.248 185.698 147.437 185.698 146.52ZM192.386 146.536C192.386 145.853 192.194 145.315 191.81 144.92C191.437 144.525 190.978 144.328 190.434 144.328C189.89 144.328 189.426 144.525 189.042 144.92C188.669 145.304 188.482 145.837 188.482 146.52C188.482 147.203 188.669 147.747 189.042 148.152C189.426 148.547 189.89 148.744 190.434 148.744C190.978 148.744 191.437 148.547 191.81 148.152C192.194 147.757 192.386 147.219 192.386 146.536ZM196.557 146.52C196.557 145.603 196.728 144.797 197.069 144.104C197.421 143.411 197.896 142.877 198.493 142.504C199.091 142.131 199.757 141.944 200.493 141.944C201.08 141.944 201.613 142.067 202.093 142.312C202.584 142.557 202.968 142.888 203.245 143.304V139.16H205.981V151H203.245V149.72C202.989 150.147 202.621 150.488 202.141 150.744C201.672 151 201.123 151.128 200.493 151.128C199.757 151.128 199.091 150.941 198.493 150.568C197.896 150.184 197.421 149.645 197.069 148.952C196.728 148.248 196.557 147.437 196.557 146.52ZM203.245 146.536C203.245 145.853 203.053 145.315 202.669 144.92C202.296 144.525 201.837 144.328 201.293 144.328C200.749 144.328 200.285 144.525 199.901 144.92C199.528 145.304 199.341 145.837 199.341 146.52C199.341 147.203 199.528 147.747 199.901 148.152C200.285 148.547 200.749 148.744 201.293 148.744C201.837 148.744 202.296 148.547 202.669 148.152C203.053 147.757 203.245 147.219 203.245 146.536ZM209.337 141.144C208.857 141.144 208.462 141.005 208.153 140.728C207.854 140.44 207.705 140.088 207.705 139.672C207.705 139.245 207.854 138.893 208.153 138.616C208.462 138.328 208.857 138.184 209.337 138.184C209.806 138.184 210.19 138.328 210.489 138.616C210.798 138.893 210.953 139.245 210.953 139.672C210.953 140.088 210.798 140.44 210.489 140.728C210.19 141.005 209.806 141.144 209.337 141.144ZM210.697 142.072V151H207.961V142.072H210.697ZM212.136 146.536C212.136 145.608 212.322 144.797 212.696 144.104C213.08 143.411 213.608 142.877 214.28 142.504C214.962 142.131 215.741 141.944 216.616 141.944C217.736 141.944 218.669 142.237 219.416 142.824C220.173 143.411 220.669 144.237 220.904 145.304H217.992C217.746 144.621 217.272 144.28 216.568 144.28C216.066 144.28 215.666 144.477 215.368 144.872C215.069 145.256 214.92 145.811 214.92 146.536C214.92 147.261 215.069 147.821 215.368 148.216C215.666 148.6 216.066 148.792 216.568 148.792C217.272 148.792 217.746 148.451 217.992 147.768H220.904C220.669 148.813 220.173 149.635 219.416 150.232C218.658 150.829 217.725 151.128 216.616 151.128C215.741 151.128 214.962 150.941 214.28 150.568C213.608 150.195 213.08 149.661 212.696 148.968C212.322 148.275 212.136 147.464 212.136 146.536ZM223.743 141.144C223.263 141.144 222.868 141.005 222.559 140.728C222.26 140.44 222.111 140.088 222.111 139.672C222.111 139.245 222.26 138.893 222.559 138.616C222.868 138.328 223.263 138.184 223.743 138.184C224.212 138.184 224.596 138.328 224.895 138.616C225.204 138.893 225.359 139.245 225.359 139.672C225.359 140.088 225.204 140.44 224.895 140.728C224.596 141.005 224.212 141.144 223.743 141.144ZM225.103 142.072V151H222.367V142.072H225.103ZM231.15 151.128C230.275 151.128 229.486 150.941 228.782 150.568C228.088 150.195 227.539 149.661 227.134 148.968C226.739 148.275 226.542 147.464 226.542 146.536C226.542 145.619 226.744 144.813 227.15 144.12C227.555 143.416 228.11 142.877 228.814 142.504C229.518 142.131 230.307 141.944 231.182 141.944C232.056 141.944 232.846 142.131 233.55 142.504C234.254 142.877 234.808 143.416 235.214 144.12C235.619 144.813 235.822 145.619 235.822 146.536C235.822 147.453 235.614 148.264 235.198 148.968C234.792 149.661 234.232 150.195 233.518 150.568C232.814 150.941 232.024 151.128 231.15 151.128ZM231.15 148.76C231.672 148.76 232.115 148.568 232.478 148.184C232.851 147.8 233.038 147.251 233.038 146.536C233.038 145.821 232.856 145.272 232.494 144.888C232.142 144.504 231.704 144.312 231.182 144.312C230.648 144.312 230.206 144.504 229.854 144.888C229.502 145.261 229.326 145.811 229.326 146.536C229.326 147.251 229.496 147.8 229.838 148.184C230.19 148.568 230.627 148.76 231.15 148.76ZM242.713 141.976C243.759 141.976 244.591 142.317 245.209 143C245.839 143.672 246.153 144.6 246.153 145.784V151H243.433V146.152C243.433 145.555 243.279 145.091 242.969 144.76C242.66 144.429 242.244 144.264 241.721 144.264C241.199 144.264 240.783 144.429 240.473 144.76C240.164 145.091 240.009 145.555 240.009 146.152V151H237.273V142.072H240.009V143.256C240.287 142.861 240.66 142.552 241.129 142.328C241.599 142.093 242.127 141.976 242.713 141.976ZM247.511 146.52C247.511 145.603 247.681 144.797 248.023 144.104C248.375 143.411 248.849 142.877 249.447 142.504C250.044 142.131 250.711 141.944 251.447 141.944C252.076 141.944 252.625 142.072 253.095 142.328C253.575 142.584 253.943 142.92 254.199 143.336V142.072H256.935V151H254.199V149.736C253.932 150.152 253.559 150.488 253.079 150.744C252.609 151 252.06 151.128 251.431 151.128C250.705 151.128 250.044 150.941 249.447 150.568C248.849 150.184 248.375 149.645 248.023 148.952C247.681 148.248 247.511 147.437 247.511 146.52ZM254.199 146.536C254.199 145.853 254.007 145.315 253.623 144.92C253.249 144.525 252.791 144.328 252.247 144.328C251.703 144.328 251.239 144.525 250.855 144.92C250.481 145.304 250.295 145.837 250.295 146.52C250.295 147.203 250.481 147.747 250.855 148.152C251.239 148.547 251.703 148.744 252.247 148.744C252.791 148.744 253.249 148.547 253.623 148.152C254.007 147.757 254.199 147.219 254.199 146.536ZM258.37 146.52C258.37 145.603 258.541 144.797 258.882 144.104C259.234 143.411 259.709 142.877 260.306 142.504C260.903 142.131 261.57 141.944 262.306 141.944C262.893 141.944 263.426 142.067 263.906 142.312C264.397 142.557 264.781 142.888 265.058 143.304V139.16H267.794V151H265.058V149.72C264.802 150.147 264.434 150.488 263.954 150.744C263.485 151 262.935 151.128 262.306 151.128C261.57 151.128 260.903 150.941 260.306 150.568C259.709 150.184 259.234 149.645 258.882 148.952C258.541 148.248 258.37 147.437 258.37 146.52ZM265.058 146.536C265.058 145.853 264.866 145.315 264.482 144.92C264.109 144.525 263.65 144.328 263.106 144.328C262.562 144.328 262.098 144.525 261.714 144.92C261.341 145.304 261.154 145.837 261.154 146.52C261.154 147.203 261.341 147.747 261.714 148.152C262.098 148.547 262.562 148.744 263.106 148.744C263.65 148.744 264.109 148.547 264.482 148.152C264.866 147.757 265.058 147.219 265.058 146.536ZM273.837 151.128C272.963 151.128 272.173 150.941 271.469 150.568C270.776 150.195 270.227 149.661 269.821 148.968C269.427 148.275 269.229 147.464 269.229 146.536C269.229 145.619 269.432 144.813 269.837 144.12C270.243 143.416 270.797 142.877 271.501 142.504C272.205 142.131 272.995 141.944 273.869 141.944C274.744 141.944 275.533 142.131 276.237 142.504C276.941 142.877 277.496 143.416 277.901 144.12C278.307 144.813 278.509 145.619 278.509 146.536C278.509 147.453 278.301 148.264 277.885 148.968C277.48 149.661 276.92 150.195 276.205 150.568C275.501 150.941 274.712 151.128 273.837 151.128ZM273.837 148.76C274.36 148.76 274.803 148.568 275.165 148.184C275.539 147.8 275.725 147.251 275.725 146.536C275.725 145.821 275.544 145.272 275.181 144.888C274.829 144.504 274.392 144.312 273.869 144.312C273.336 144.312 272.893 144.504 272.541 144.888C272.189 145.261 272.013 145.811 272.013 146.536C272.013 147.251 272.184 147.8 272.525 148.184C272.877 148.568 273.315 148.76 273.837 148.76ZM282.807 146.52C282.807 145.603 282.978 144.797 283.319 144.104C283.671 143.411 284.146 142.877 284.743 142.504C285.341 142.131 286.007 141.944 286.743 141.944C287.373 141.944 287.922 142.072 288.391 142.328C288.871 142.584 289.239 142.92 289.495 143.336V142.072H292.231V151H289.495V149.736C289.229 150.152 288.855 150.488 288.375 150.744C287.906 151 287.357 151.128 286.727 151.128C286.002 151.128 285.341 150.941 284.743 150.568C284.146 150.184 283.671 149.645 283.319 148.952C282.978 148.248 282.807 147.437 282.807 146.52ZM289.495 146.536C289.495 145.853 289.303 145.315 288.919 144.92C288.546 144.525 288.087 144.328 287.543 144.328C286.999 144.328 286.535 144.525 286.151 144.92C285.778 145.304 285.591 145.837 285.591 146.52C285.591 147.203 285.778 147.747 286.151 148.152C286.535 148.547 286.999 148.744 287.543 148.744C288.087 148.744 288.546 148.547 288.919 148.152C289.303 147.757 289.495 147.219 289.495 146.536ZM301.233 151.128C300.455 151.128 299.761 150.995 299.153 150.728C298.545 150.461 298.065 150.099 297.713 149.64C297.361 149.171 297.164 148.648 297.121 148.072H299.825C299.857 148.381 300.001 148.632 300.257 148.824C300.513 149.016 300.828 149.112 301.201 149.112C301.543 149.112 301.804 149.048 301.985 148.92C302.177 148.781 302.273 148.605 302.273 148.392C302.273 148.136 302.14 147.949 301.873 147.832C301.607 147.704 301.175 147.565 300.577 147.416C299.937 147.267 299.404 147.112 298.977 146.952C298.551 146.781 298.183 146.52 297.873 146.168C297.564 145.805 297.409 145.32 297.409 144.712C297.409 144.2 297.548 143.736 297.825 143.32C298.113 142.893 298.529 142.557 299.073 142.312C299.628 142.067 300.284 141.944 301.041 141.944C302.161 141.944 303.041 142.221 303.681 142.776C304.332 143.331 304.705 144.067 304.801 144.984H302.273C302.231 144.675 302.092 144.429 301.857 144.248C301.633 144.067 301.335 143.976 300.961 143.976C300.641 143.976 300.396 144.04 300.225 144.168C300.055 144.285 299.969 144.451 299.969 144.664C299.969 144.92 300.103 145.112 300.369 145.24C300.647 145.368 301.073 145.496 301.649 145.624C302.311 145.795 302.849 145.965 303.265 146.136C303.681 146.296 304.044 146.563 304.353 146.936C304.673 147.299 304.839 147.789 304.849 148.408C304.849 148.931 304.7 149.4 304.401 149.816C304.113 150.221 303.692 150.541 303.137 150.776C302.593 151.011 301.959 151.128 301.233 151.128ZM315.339 142.072V151H312.603V149.784C312.326 150.179 311.947 150.499 311.467 150.744C310.998 150.979 310.475 151.096 309.899 151.096C309.217 151.096 308.614 150.947 308.091 150.648C307.569 150.339 307.163 149.896 306.875 149.32C306.587 148.744 306.443 148.067 306.443 147.288V142.072H309.163V146.92C309.163 147.517 309.318 147.981 309.627 148.312C309.937 148.643 310.353 148.808 310.875 148.808C311.409 148.808 311.83 148.643 312.139 148.312C312.449 147.981 312.603 147.517 312.603 146.92V142.072H315.339ZM316.761 146.52C316.761 145.603 316.931 144.797 317.273 144.104C317.625 143.411 318.099 142.877 318.697 142.504C319.294 142.131 319.961 141.944 320.697 141.944C321.326 141.944 321.875 142.072 322.345 142.328C322.825 142.584 323.193 142.92 323.449 143.336V142.072H326.185V151H323.449V149.736C323.182 150.152 322.809 150.488 322.329 150.744C321.859 151 321.31 151.128 320.681 151.128C319.955 151.128 319.294 150.941 318.697 150.568C318.099 150.184 317.625 149.645 317.273 148.952C316.931 148.248 316.761 147.437 316.761 146.52ZM323.449 146.536C323.449 145.853 323.257 145.315 322.873 144.92C322.499 144.525 322.041 144.328 321.497 144.328C320.953 144.328 320.489 144.525 320.105 144.92C319.731 145.304 319.545 145.837 319.545 146.52C319.545 147.203 319.731 147.747 320.105 148.152C320.489 148.547 320.953 148.744 321.497 148.744C322.041 148.744 322.499 148.547 322.873 148.152C323.257 147.757 323.449 147.219 323.449 146.536ZM340.115 143.384C340.115 144.035 339.965 144.632 339.667 145.176C339.368 145.709 338.909 146.141 338.291 146.472C337.672 146.803 336.904 146.968 335.987 146.968H334.291V151H331.555V139.768H335.987C336.883 139.768 337.64 139.923 338.259 140.232C338.877 140.541 339.341 140.968 339.651 141.512C339.96 142.056 340.115 142.68 340.115 143.384ZM335.779 144.792C336.301 144.792 336.691 144.669 336.947 144.424C337.203 144.179 337.331 143.832 337.331 143.384C337.331 142.936 337.203 142.589 336.947 142.344C336.691 142.099 336.301 141.976 335.779 141.976H334.291V144.792H335.779ZM345.603 151.128C344.728 151.128 343.939 150.941 343.235 150.568C342.542 150.195 341.992 149.661 341.587 148.968C341.192 148.275 340.995 147.464 340.995 146.536C340.995 145.619 341.198 144.813 341.603 144.12C342.008 143.416 342.563 142.877 343.267 142.504C343.971 142.131 344.76 141.944 345.635 141.944C346.51 141.944 347.299 142.131 348.003 142.504C348.707 142.877 349.262 143.416 349.667 144.12C350.072 144.813 350.275 145.619 350.275 146.536C350.275 147.453 350.067 148.264 349.651 148.968C349.246 149.661 348.686 150.195 347.971 150.568C347.267 150.941 346.478 151.128 345.603 151.128ZM345.603 148.76C346.126 148.76 346.568 148.568 346.931 148.184C347.304 147.8 347.491 147.251 347.491 146.536C347.491 145.821 347.31 145.272 346.947 144.888C346.595 144.504 346.158 144.312 345.635 144.312C345.102 144.312 344.659 144.504 344.307 144.888C343.955 145.261 343.779 145.811 343.779 146.536C343.779 147.251 343.95 147.8 344.291 148.184C344.643 148.568 345.08 148.76 345.603 148.76ZM357.182 151L354.462 147.256V151H351.726V139.16H354.462V145.704L357.166 142.072H360.542L356.83 146.552L360.574 151H357.182ZM370.033 146.392C370.033 146.648 370.017 146.915 369.985 147.192H363.793C363.836 147.747 364.012 148.173 364.321 148.472C364.641 148.76 365.03 148.904 365.489 148.904C366.172 148.904 366.646 148.616 366.913 148.04H369.825C369.676 148.627 369.404 149.155 369.009 149.624C368.625 150.093 368.14 150.461 367.553 150.728C366.966 150.995 366.31 151.128 365.585 151.128C364.71 151.128 363.932 150.941 363.249 150.568C362.566 150.195 362.033 149.661 361.649 148.968C361.265 148.275 361.073 147.464 361.073 146.536C361.073 145.608 361.26 144.797 361.633 144.104C362.017 143.411 362.55 142.877 363.233 142.504C363.916 142.131 364.7 141.944 365.585 141.944C366.449 141.944 367.217 142.125 367.889 142.488C368.561 142.851 369.084 143.368 369.457 144.04C369.841 144.712 370.033 145.496 370.033 146.392ZM367.233 145.672C367.233 145.203 367.073 144.829 366.753 144.552C366.433 144.275 366.033 144.136 365.553 144.136C365.094 144.136 364.705 144.269 364.385 144.536C364.076 144.803 363.884 145.181 363.809 145.672H367.233ZM367.425 139.784L363.569 141.4V139.512L367.425 137.656V139.784ZM370.932 146.52C370.932 145.603 371.103 144.797 371.444 144.104C371.796 143.411 372.271 142.877 372.868 142.504C373.466 142.131 374.132 141.944 374.868 141.944C375.455 141.944 375.988 142.067 376.468 142.312C376.959 142.557 377.343 142.888 377.62 143.304V139.16H380.356V151H377.62V149.72C377.364 150.147 376.996 150.488 376.516 150.744C376.047 151 375.498 151.128 374.868 151.128C374.132 151.128 373.466 150.941 372.868 150.568C372.271 150.184 371.796 149.645 371.444 148.952C371.103 148.248 370.932 147.437 370.932 146.52ZM377.62 146.536C377.62 145.853 377.428 145.315 377.044 144.92C376.671 144.525 376.212 144.328 375.668 144.328C375.124 144.328 374.66 144.525 374.276 144.92C373.903 145.304 373.716 145.837 373.716 146.52C373.716 147.203 373.903 147.747 374.276 148.152C374.66 148.547 375.124 148.744 375.668 148.744C376.212 148.744 376.671 148.547 377.044 148.152C377.428 147.757 377.62 147.219 377.62 146.536ZM390.752 146.392C390.752 146.648 390.736 146.915 390.704 147.192H384.512C384.554 147.747 384.73 148.173 385.04 148.472C385.36 148.76 385.749 148.904 386.208 148.904C386.89 148.904 387.365 148.616 387.632 148.04H390.544C390.394 148.627 390.122 149.155 389.728 149.624C389.344 150.093 388.858 150.461 388.272 150.728C387.685 150.995 387.029 151.128 386.304 151.128C385.429 151.128 384.65 150.941 383.968 150.568C383.285 150.195 382.752 149.661 382.368 148.968C381.984 148.275 381.792 147.464 381.792 146.536C381.792 145.608 381.978 144.797 382.352 144.104C382.736 143.411 383.269 142.877 383.952 142.504C384.634 142.131 385.418 141.944 386.304 141.944C387.168 141.944 387.936 142.125 388.608 142.488C389.28 142.851 389.802 143.368 390.176 144.04C390.56 144.712 390.752 145.496 390.752 146.392ZM387.952 145.672C387.952 145.203 387.792 144.829 387.472 144.552C387.152 144.275 386.752 144.136 386.272 144.136C385.813 144.136 385.424 144.269 385.104 144.536C384.794 144.803 384.602 145.181 384.528 145.672H387.952ZM397.475 151L395.763 148.52L394.323 151H391.363L394.307 146.44L391.283 142.072H394.355L396.067 144.536L397.507 142.072H400.467L397.475 146.568L400.547 151H397.475Z" fill="black"/>
</svg>
